%FSDAX24Y24*%
%MOIN*%
%SFA1B1*%

%IPPOS*%
%ADD87C,0.002000*%
%ADD88C,0.002700*%
%LNde-300617-1*%
%LPD*%
G54D87*
X019245Y014820D02*
Y014980D01*
X019405*
Y014820*
X019245*
X016095D02*
Y014980D01*
X016255*
Y014820*
X016095*
X014070Y016961D02*
Y017121D01*
X014230*
Y016961*
X014070*
Y015779D02*
Y015939D01*
X014230*
Y015779*
X014070*
Y013679D02*
Y013839D01*
X014230*
Y013679*
X014070*
Y014861D02*
Y015021D01*
X014230*
Y014861*
X014070*
X020513Y023220D02*
X020433Y023380D01*
X020593*
X020513Y023220*
X019687D02*
X019607Y023380D01*
X019767*
X019687Y023220*
X024980Y034848D02*
X025020Y034888D01*
X025060*
X025020Y034928*
X025060Y034968*
X025020*
X024980Y035008*
X024940Y034968*
X024900*
X024940Y034928*
X024900Y034888*
X024940*
X024980Y034848*
X025707Y035320D02*
X025747Y035400D01*
X025707Y035480*
X025787Y035440*
X025867Y035480*
X025827Y035400*
X025867Y035320*
X025787Y035360*
X025707Y035320*
X022833D02*
X022873Y035400D01*
X022833Y035480*
X022913Y035440*
X022993Y035480*
X022953Y035400*
X022993Y035320*
X022913Y035360*
X022833Y035320*
X025707Y037190D02*
X025747Y037270D01*
X025707Y037350*
X025787Y037310*
X025867Y037350*
X025827Y037270*
X025867Y037190*
X025787Y037230*
X025707Y037190*
X022833D02*
X022873Y037270D01*
X022833Y037350*
X022913Y037310*
X022993Y037350*
X022953Y037270*
X022993Y037190*
X022913Y037230*
X022833Y037190*
X024350Y034848D02*
X024390Y034888D01*
X024430*
X024390Y034928*
X024430Y034968*
X024390*
X024350Y035008*
X024310Y034968*
X024270*
X024310Y034928*
X024270Y034888*
X024310*
X024350Y034848*
X023720D02*
X023760Y034888D01*
X023800*
X023760Y034928*
X023800Y034968*
X023760*
X023720Y035008*
X023680Y034968*
X023640*
X023680Y034928*
X023640Y034888*
X023680*
X023720Y034848*
X024650Y035320D02*
X024690Y035360D01*
X024730*
X024690Y035400*
X024730Y035440*
X024690*
X024650Y035480*
X024610Y035440*
X024570*
X024610Y035400*
X024570Y035360*
X024610*
X024650Y035320*
X024050D02*
X024090Y035360D01*
X024130*
X024090Y035400*
X024130Y035440*
X024090*
X024050Y035480*
X024010Y035440*
X023970*
X024010Y035400*
X023970Y035360*
X024010*
X024050Y035320*
X030660Y035060D02*
Y035020D01*
X030740*
Y035060*
X030780*
Y035140*
X030740*
Y035180*
X030660*
Y035140*
X030620*
Y035060*
X030660*
X032510D02*
Y035020D01*
X032590*
Y035060*
X032630*
Y035140*
X032590*
Y035180*
X032510*
Y035140*
X032470*
Y035060*
X032510*
X032048D02*
Y035020D01*
X032127*
Y035060*
X032167*
Y035140*
X032127*
Y035180*
X032048*
Y035140*
X032008*
Y035060*
X032048*
X031585D02*
Y035020D01*
X031665*
Y035060*
X031705*
Y035140*
X031665*
Y035180*
X031585*
Y035140*
X031545*
Y035060*
X031585*
X031123D02*
Y035020D01*
X031202*
Y035060*
X031242*
Y035140*
X031202*
Y035180*
X031123*
Y035140*
X031082*
Y035060*
X031123*
Y034410D02*
Y034370D01*
X031202*
Y034410*
X031242*
Y034490*
X031202*
Y034530*
X031123*
Y034490*
X031082*
Y034410*
X031123*
X031585D02*
Y034370D01*
X031665*
Y034410*
X031705*
Y034490*
X031665*
Y034530*
X031585*
Y034490*
X031545*
Y034410*
X031585*
X032048D02*
Y034370D01*
X032127*
Y034410*
X032167*
Y034490*
X032127*
Y034530*
X032048*
Y034490*
X032008*
Y034410*
X032048*
X032510D02*
Y034370D01*
X032590*
Y034410*
X032630*
Y034490*
X032590*
Y034530*
X032510*
Y034490*
X032470*
Y034410*
X032510*
X033110Y029910D02*
Y029870D01*
X033190*
Y029910*
X033230*
Y029990*
X033190*
Y030030*
X033110*
Y029990*
X033070*
Y029910*
X033110*
Y030377D02*
Y030337D01*
X033190*
Y030377*
X033230*
Y030457*
X033190*
Y030497*
X033110*
Y030457*
X033070*
Y030377*
X033110*
Y030843D02*
Y030803D01*
X033190*
Y030843*
X033230*
Y030923*
X033190*
Y030963*
X033110*
Y030923*
X033070*
Y030843*
X033110*
Y031310D02*
Y031270D01*
X033190*
Y031310*
X033230*
Y031390*
X033190*
Y031430*
X033110*
Y031390*
X033070*
Y031310*
X033110*
X026060Y025360D02*
Y025320D01*
X026140*
Y025360*
X026180*
Y025440*
X026140*
Y025480*
X026060*
Y025440*
X026020*
Y025360*
X026060*
X028360Y031610D02*
Y031570D01*
X028440*
Y031610*
X028480*
Y031690*
X028440*
Y031730*
X028360*
Y031690*
X028320*
Y031610*
X028360*
X017760Y031060D02*
Y031020D01*
X017840*
Y031060*
X017880*
Y031140*
X017840*
Y031180*
X017760*
Y031140*
X017720*
Y031060*
X017760*
X023310Y029110D02*
Y029070D01*
X023390*
Y029110*
X023430*
Y029190*
X023390*
Y029230*
X023310*
Y029190*
X023270*
Y029110*
X023310*
X019860Y026060D02*
Y026020D01*
X019940*
Y026060*
X019980*
Y026140*
X019940*
Y026180*
X019860*
Y026140*
X019820*
Y026060*
X019860*
X025710Y017110D02*
Y017070D01*
X025790*
Y017110*
X025830*
Y017190*
X025790*
Y017230*
X025710*
Y017190*
X025670*
Y017110*
X025710*
X025260Y032760D02*
Y032720D01*
X025340*
Y032760*
X025380*
Y032840*
X025340*
Y032880*
X025260*
Y032840*
X025220*
Y032760*
X025260*
X025249Y029699D02*
Y029659D01*
X025329*
Y029699*
X025369*
Y029779*
X025329*
Y029819*
X025249*
Y029779*
X025209*
Y029699*
X025249*
X027060Y028260D02*
Y028220D01*
X027140*
Y028260*
X027180*
Y028340*
X027140*
Y028380*
X027060*
Y028340*
X027020*
Y028260*
X027060*
X026760Y027960D02*
Y027920D01*
X026840*
Y027960*
X026880*
Y028040*
X026840*
Y028080*
X026760*
Y028040*
X026720*
Y027960*
X026760*
X026210Y031610D02*
Y031570D01*
X026290*
Y031610*
X026330*
Y031690*
X026290*
Y031730*
X026210*
Y031690*
X026170*
Y031610*
X026210*
X025760D02*
Y031570D01*
X025840*
Y031610*
X025880*
Y031690*
X025840*
Y031730*
X025760*
Y031690*
X025720*
Y031610*
X025760*
X025325Y031617D02*
Y031577D01*
X025405*
Y031617*
X025445*
Y031697*
X025405*
Y031737*
X025325*
Y031697*
X025285*
Y031617*
X025325*
X025910Y032710D02*
Y032670D01*
X025990*
Y032710*
X026030*
Y032790*
X025990*
Y032830*
X025910*
Y032790*
X025870*
Y032710*
X025910*
X027160Y029660D02*
Y029620D01*
X027240*
Y029660*
X027280*
Y029740*
X027240*
Y029780*
X027160*
Y029740*
X027120*
Y029660*
X027160*
X026760Y029410D02*
Y029370D01*
X026840*
Y029410*
X026880*
Y029490*
X026840*
Y029530*
X026760*
Y029490*
X026720*
Y029410*
X026760*
X025910Y027660D02*
Y027620D01*
X025990*
Y027660*
X026030*
Y027740*
X025990*
Y027780*
X025910*
Y027740*
X025870*
Y027660*
X025910*
X026760Y028610D02*
Y028570D01*
X026840*
Y028610*
X026880*
Y028690*
X026840*
Y028730*
X026760*
Y028690*
X026720*
Y028610*
X026760*
X027410D02*
Y028570D01*
X027490*
Y028610*
X027530*
Y028690*
X027490*
Y028730*
X027410*
Y028690*
X027370*
Y028610*
X027410*
X022010Y029510D02*
Y029470D01*
X022090*
Y029510*
X022130*
Y029590*
X022090*
Y029630*
X022010*
Y029590*
X021970*
Y029510*
X022010*
X021460D02*
Y029470D01*
X021540*
Y029510*
X021580*
Y029590*
X021540*
Y029630*
X021460*
Y029590*
X021420*
Y029510*
X021460*
X021010Y028710D02*
Y028670D01*
X021090*
Y028710*
X021130*
Y028790*
X021090*
Y028830*
X021010*
Y028790*
X020970*
Y028710*
X021010*
X024910Y031610D02*
Y031570D01*
X024990*
Y031610*
X025030*
Y031690*
X024990*
Y031730*
X024910*
Y031690*
X024870*
Y031610*
X024910*
X023621Y032721D02*
Y032681D01*
X023701*
Y032721*
X023741*
Y032801*
X023701*
Y032841*
X023621*
Y032801*
X023581*
Y032721*
X023621*
X023360Y028660D02*
Y028620D01*
X023440*
Y028660*
X023480*
Y028740*
X023440*
Y028780*
X023360*
Y028740*
X023320*
Y028660*
X023360*
X016160Y026160D02*
Y026120D01*
X016240*
Y026160*
X016280*
Y026240*
X016240*
Y026280*
X016160*
Y026240*
X016120*
Y026160*
X016160*
Y026710D02*
Y026670D01*
X016240*
Y026710*
X016280*
Y026790*
X016240*
Y026830*
X016160*
Y026790*
X016120*
Y026710*
X016160*
X016660D02*
Y026670D01*
X016740*
Y026710*
X016780*
Y026790*
X016740*
Y026830*
X016660*
Y026790*
X016620*
Y026710*
X016660*
X028297Y034410D02*
Y034370D01*
X028377*
Y034410*
X028417*
Y034490*
X028377*
Y034530*
X028297*
Y034490*
X028257*
Y034410*
X028297*
X030660D02*
Y034370D01*
X030740*
Y034410*
X030780*
Y034490*
X030740*
Y034530*
X030660*
Y034490*
X030620*
Y034410*
X030660*
X027010Y035410D02*
Y035370D01*
X027090*
Y035410*
X027130*
Y035490*
X027090*
Y035530*
X027010*
Y035490*
X026970*
Y035410*
X027010*
X030660Y033060D02*
Y033020D01*
X030740*
Y033060*
X030780*
Y033140*
X030740*
Y033180*
X030660*
Y033140*
X030620*
Y033060*
X030660*
X027760Y028260D02*
Y028220D01*
X027840*
Y028260*
X027880*
Y028340*
X027840*
Y028380*
X027760*
Y028340*
X027720*
Y028260*
X027760*
X028110Y027960D02*
Y027920D01*
X028190*
Y027960*
X028230*
Y028040*
X028190*
Y028080*
X028110*
Y028040*
X028070*
Y027960*
X028110*
X024160Y028660D02*
Y028620D01*
X024240*
Y028660*
X024280*
Y028740*
X024240*
Y028780*
X024160*
Y028740*
X024120*
Y028660*
X024160*
X023760Y028460D02*
Y028420D01*
X023840*
Y028460*
X023880*
Y028540*
X023840*
Y028580*
X023760*
Y028540*
X023720*
Y028460*
X023760*
X021860Y032710D02*
Y032670D01*
X021940*
Y032710*
X021980*
Y032790*
X021940*
Y032830*
X021860*
Y032790*
X021820*
Y032710*
X021860*
X027260Y025360D02*
Y025320D01*
X027340*
Y025360*
X027380*
Y025440*
X027340*
Y025480*
X027260*
Y025440*
X027220*
Y025360*
X027260*
X025710Y018260D02*
Y018220D01*
X025790*
Y018260*
X025830*
Y018340*
X025790*
Y018380*
X025710*
Y018340*
X025670*
Y018260*
X025710*
X031460Y033060D02*
Y033020D01*
X031540*
Y033060*
X031580*
Y033140*
X031540*
Y033180*
X031460*
Y033140*
X031420*
Y033060*
X031460*
X017760Y032410D02*
Y032370D01*
X017840*
Y032410*
X017880*
Y032490*
X017840*
Y032530*
X017760*
Y032490*
X017720*
Y032410*
X017760*
G54D88*
X013480Y028650D02*
D01*
X013479Y028655*
X013479Y028661*
X013478Y028666*
X013476Y028672*
X013475Y028677*
X013473Y028682*
X013470Y028687*
X013467Y028692*
X013464Y028697*
X013461Y028701*
X013457Y028705*
X013453Y028709*
X013449Y028713*
X013444Y028716*
X013440Y028719*
X013435Y028721*
X013429Y028724*
X013424Y028726*
X013419Y028727*
X013413Y028728*
X013408Y028729*
X013402Y028729*
X013397*
X013391Y028729*
X013386Y028728*
X013380Y028727*
X013375Y028726*
X013370Y028724*
X013364Y028721*
X013360Y028719*
X013355Y028716*
X013350Y028713*
X013346Y028709*
X013342Y028705*
X013338Y028701*
X013335Y028697*
X013332Y028692*
X013329Y028687*
X013326Y028682*
X013324Y028677*
X013323Y028672*
X013321Y028666*
X013320Y028661*
X013320Y028655*
X013320Y028650*
X013320Y028644*
X013320Y028638*
X013321Y028633*
X013323Y028627*
X013324Y028622*
X013326Y028617*
X013329Y028612*
X013332Y028607*
X013335Y028602*
X013338Y028598*
X013342Y028594*
X013346Y028590*
X013350Y028586*
X013355Y028583*
X013360Y028580*
X013364Y028578*
X013370Y028575*
X013375Y028573*
X013380Y028572*
X013386Y028571*
X013391Y028570*
X013397Y028570*
X013402*
X013408Y028570*
X013413Y028571*
X013419Y028572*
X013424Y028573*
X013429Y028575*
X013435Y028578*
X013440Y028580*
X013444Y028583*
X013449Y028586*
X013453Y028590*
X013457Y028594*
X013461Y028598*
X013464Y028602*
X013467Y028607*
X013470Y028612*
X013473Y028617*
X013475Y028622*
X013476Y028627*
X013478Y028633*
X013479Y028638*
X013479Y028644*
X013480Y028650*
Y027650D02*
D01*
X013479Y027655*
X013479Y027661*
X013478Y027666*
X013476Y027672*
X013475Y027677*
X013473Y027682*
X013470Y027687*
X013467Y027692*
X013464Y027697*
X013461Y027701*
X013457Y027705*
X013453Y027709*
X013449Y027713*
X013444Y027716*
X013440Y027719*
X013435Y027721*
X013429Y027724*
X013424Y027726*
X013419Y027727*
X013413Y027728*
X013408Y027729*
X013402Y027729*
X013397*
X013391Y027729*
X013386Y027728*
X013380Y027727*
X013375Y027726*
X013370Y027724*
X013364Y027721*
X013360Y027719*
X013355Y027716*
X013350Y027713*
X013346Y027709*
X013342Y027705*
X013338Y027701*
X013335Y027697*
X013332Y027692*
X013329Y027687*
X013326Y027682*
X013324Y027677*
X013323Y027672*
X013321Y027666*
X013320Y027661*
X013320Y027655*
X013320Y027650*
X013320Y027644*
X013320Y027638*
X013321Y027633*
X013323Y027627*
X013324Y027622*
X013326Y027617*
X013329Y027612*
X013332Y027607*
X013335Y027602*
X013338Y027598*
X013342Y027594*
X013346Y027590*
X013350Y027586*
X013355Y027583*
X013360Y027580*
X013364Y027578*
X013370Y027575*
X013375Y027573*
X013380Y027572*
X013386Y027571*
X013391Y027570*
X013397Y027570*
X013402*
X013408Y027570*
X013413Y027571*
X013419Y027572*
X013424Y027573*
X013429Y027575*
X013435Y027578*
X013440Y027580*
X013444Y027583*
X013449Y027586*
X013453Y027590*
X013457Y027594*
X013461Y027598*
X013464Y027602*
X013467Y027607*
X013470Y027612*
X013473Y027617*
X013475Y027622*
X013476Y027627*
X013478Y027633*
X013479Y027638*
X013479Y027644*
X013480Y027650*
Y026650D02*
D01*
X013479Y026655*
X013479Y026661*
X013478Y026666*
X013476Y026672*
X013475Y026677*
X013473Y026682*
X013470Y026687*
X013467Y026692*
X013464Y026697*
X013461Y026701*
X013457Y026705*
X013453Y026709*
X013449Y026713*
X013444Y026716*
X013440Y026719*
X013435Y026721*
X013429Y026724*
X013424Y026726*
X013419Y026727*
X013413Y026728*
X013408Y026729*
X013402Y026729*
X013397*
X013391Y026729*
X013386Y026728*
X013380Y026727*
X013375Y026726*
X013370Y026724*
X013364Y026721*
X013360Y026719*
X013355Y026716*
X013350Y026713*
X013346Y026709*
X013342Y026705*
X013338Y026701*
X013335Y026697*
X013332Y026692*
X013329Y026687*
X013326Y026682*
X013324Y026677*
X013323Y026672*
X013321Y026666*
X013320Y026661*
X013320Y026655*
X013320Y026650*
X013320Y026644*
X013320Y026638*
X013321Y026633*
X013323Y026627*
X013324Y026622*
X013326Y026617*
X013329Y026612*
X013332Y026607*
X013335Y026602*
X013338Y026598*
X013342Y026594*
X013346Y026590*
X013350Y026586*
X013355Y026583*
X013360Y026580*
X013364Y026578*
X013370Y026575*
X013375Y026573*
X013380Y026572*
X013386Y026571*
X013391Y026570*
X013397Y026570*
X013402*
X013408Y026570*
X013413Y026571*
X013419Y026572*
X013424Y026573*
X013429Y026575*
X013435Y026578*
X013440Y026580*
X013444Y026583*
X013449Y026586*
X013453Y026590*
X013457Y026594*
X013461Y026598*
X013464Y026602*
X013467Y026607*
X013470Y026612*
X013473Y026617*
X013475Y026622*
X013476Y026627*
X013478Y026633*
X013479Y026638*
X013479Y026644*
X013480Y026650*
Y025650D02*
D01*
X013479Y025655*
X013479Y025661*
X013478Y025666*
X013476Y025672*
X013475Y025677*
X013473Y025682*
X013470Y025687*
X013467Y025692*
X013464Y025697*
X013461Y025701*
X013457Y025705*
X013453Y025709*
X013449Y025713*
X013444Y025716*
X013440Y025719*
X013435Y025721*
X013429Y025724*
X013424Y025726*
X013419Y025727*
X013413Y025728*
X013408Y025729*
X013402Y025729*
X013397*
X013391Y025729*
X013386Y025728*
X013380Y025727*
X013375Y025726*
X013370Y025724*
X013364Y025721*
X013360Y025719*
X013355Y025716*
X013350Y025713*
X013346Y025709*
X013342Y025705*
X013338Y025701*
X013335Y025697*
X013332Y025692*
X013329Y025687*
X013326Y025682*
X013324Y025677*
X013323Y025672*
X013321Y025666*
X013320Y025661*
X013320Y025655*
X013320Y025650*
X013320Y025644*
X013320Y025638*
X013321Y025633*
X013323Y025627*
X013324Y025622*
X013326Y025617*
X013329Y025612*
X013332Y025607*
X013335Y025602*
X013338Y025598*
X013342Y025594*
X013346Y025590*
X013350Y025586*
X013355Y025583*
X013360Y025580*
X013364Y025578*
X013370Y025575*
X013375Y025573*
X013380Y025572*
X013386Y025571*
X013391Y025570*
X013397Y025570*
X013402*
X013408Y025570*
X013413Y025571*
X013419Y025572*
X013424Y025573*
X013429Y025575*
X013435Y025578*
X013440Y025580*
X013444Y025583*
X013449Y025586*
X013453Y025590*
X013457Y025594*
X013461Y025598*
X013464Y025602*
X013467Y025607*
X013470Y025612*
X013473Y025617*
X013475Y025622*
X013476Y025627*
X013478Y025633*
X013479Y025638*
X013479Y025644*
X013480Y025650*
Y024650D02*
D01*
X013479Y024655*
X013479Y024661*
X013478Y024666*
X013476Y024672*
X013475Y024677*
X013473Y024682*
X013470Y024687*
X013467Y024692*
X013464Y024697*
X013461Y024701*
X013457Y024705*
X013453Y024709*
X013449Y024713*
X013444Y024716*
X013440Y024719*
X013435Y024721*
X013429Y024724*
X013424Y024726*
X013419Y024727*
X013413Y024728*
X013408Y024729*
X013402Y024729*
X013397*
X013391Y024729*
X013386Y024728*
X013380Y024727*
X013375Y024726*
X013370Y024724*
X013364Y024721*
X013360Y024719*
X013355Y024716*
X013350Y024713*
X013346Y024709*
X013342Y024705*
X013338Y024701*
X013335Y024697*
X013332Y024692*
X013329Y024687*
X013326Y024682*
X013324Y024677*
X013323Y024672*
X013321Y024666*
X013320Y024661*
X013320Y024655*
X013320Y024650*
X013320Y024644*
X013320Y024638*
X013321Y024633*
X013323Y024627*
X013324Y024622*
X013326Y024617*
X013329Y024612*
X013332Y024607*
X013335Y024602*
X013338Y024598*
X013342Y024594*
X013346Y024590*
X013350Y024586*
X013355Y024583*
X013360Y024580*
X013364Y024578*
X013370Y024575*
X013375Y024573*
X013380Y024572*
X013386Y024571*
X013391Y024570*
X013397Y024570*
X013402*
X013408Y024570*
X013413Y024571*
X013419Y024572*
X013424Y024573*
X013429Y024575*
X013435Y024578*
X013440Y024580*
X013444Y024583*
X013449Y024586*
X013453Y024590*
X013457Y024594*
X013461Y024598*
X013464Y024602*
X013467Y024607*
X013470Y024612*
X013473Y024617*
X013475Y024622*
X013476Y024627*
X013478Y024633*
X013479Y024638*
X013479Y024644*
X013480Y024650*
Y023650D02*
D01*
X013479Y023655*
X013479Y023661*
X013478Y023666*
X013476Y023672*
X013475Y023677*
X013473Y023682*
X013470Y023687*
X013467Y023692*
X013464Y023697*
X013461Y023701*
X013457Y023705*
X013453Y023709*
X013449Y023713*
X013444Y023716*
X013440Y023719*
X013435Y023721*
X013429Y023724*
X013424Y023726*
X013419Y023727*
X013413Y023728*
X013408Y023729*
X013402Y023729*
X013397*
X013391Y023729*
X013386Y023728*
X013380Y023727*
X013375Y023726*
X013370Y023724*
X013364Y023721*
X013360Y023719*
X013355Y023716*
X013350Y023713*
X013346Y023709*
X013342Y023705*
X013338Y023701*
X013335Y023697*
X013332Y023692*
X013329Y023687*
X013326Y023682*
X013324Y023677*
X013323Y023672*
X013321Y023666*
X013320Y023661*
X013320Y023655*
X013320Y023650*
X013320Y023644*
X013320Y023638*
X013321Y023633*
X013323Y023627*
X013324Y023622*
X013326Y023617*
X013329Y023612*
X013332Y023607*
X013335Y023602*
X013338Y023598*
X013342Y023594*
X013346Y023590*
X013350Y023586*
X013355Y023583*
X013360Y023580*
X013364Y023578*
X013370Y023575*
X013375Y023573*
X013380Y023572*
X013386Y023571*
X013391Y023570*
X013397Y023570*
X013402*
X013408Y023570*
X013413Y023571*
X013419Y023572*
X013424Y023573*
X013429Y023575*
X013435Y023578*
X013440Y023580*
X013444Y023583*
X013449Y023586*
X013453Y023590*
X013457Y023594*
X013461Y023598*
X013464Y023602*
X013467Y023607*
X013470Y023612*
X013473Y023617*
X013475Y023622*
X013476Y023627*
X013478Y023633*
X013479Y023638*
X013479Y023644*
X013480Y023650*
Y022650D02*
D01*
X013479Y022655*
X013479Y022661*
X013478Y022666*
X013476Y022672*
X013475Y022677*
X013473Y022682*
X013470Y022687*
X013467Y022692*
X013464Y022697*
X013461Y022701*
X013457Y022705*
X013453Y022709*
X013449Y022713*
X013444Y022716*
X013440Y022719*
X013435Y022721*
X013429Y022724*
X013424Y022726*
X013419Y022727*
X013413Y022728*
X013408Y022729*
X013402Y022729*
X013397*
X013391Y022729*
X013386Y022728*
X013380Y022727*
X013375Y022726*
X013370Y022724*
X013364Y022721*
X013360Y022719*
X013355Y022716*
X013350Y022713*
X013346Y022709*
X013342Y022705*
X013338Y022701*
X013335Y022697*
X013332Y022692*
X013329Y022687*
X013326Y022682*
X013324Y022677*
X013323Y022672*
X013321Y022666*
X013320Y022661*
X013320Y022655*
X013320Y022650*
X013320Y022644*
X013320Y022638*
X013321Y022633*
X013323Y022627*
X013324Y022622*
X013326Y022617*
X013329Y022612*
X013332Y022607*
X013335Y022602*
X013338Y022598*
X013342Y022594*
X013346Y022590*
X013350Y022586*
X013355Y022583*
X013360Y022580*
X013364Y022578*
X013370Y022575*
X013375Y022573*
X013380Y022572*
X013386Y022571*
X013391Y022570*
X013397Y022570*
X013402*
X013408Y022570*
X013413Y022571*
X013419Y022572*
X013424Y022573*
X013429Y022575*
X013435Y022578*
X013440Y022580*
X013444Y022583*
X013449Y022586*
X013453Y022590*
X013457Y022594*
X013461Y022598*
X013464Y022602*
X013467Y022607*
X013470Y022612*
X013473Y022617*
X013475Y022622*
X013476Y022627*
X013478Y022633*
X013479Y022638*
X013479Y022644*
X013480Y022650*
Y021650D02*
D01*
X013479Y021655*
X013479Y021661*
X013478Y021666*
X013476Y021672*
X013475Y021677*
X013473Y021682*
X013470Y021687*
X013467Y021692*
X013464Y021697*
X013461Y021701*
X013457Y021705*
X013453Y021709*
X013449Y021713*
X013444Y021716*
X013440Y021719*
X013435Y021721*
X013429Y021724*
X013424Y021726*
X013419Y021727*
X013413Y021728*
X013408Y021729*
X013402Y021729*
X013397*
X013391Y021729*
X013386Y021728*
X013380Y021727*
X013375Y021726*
X013370Y021724*
X013364Y021721*
X013360Y021719*
X013355Y021716*
X013350Y021713*
X013346Y021709*
X013342Y021705*
X013338Y021701*
X013335Y021697*
X013332Y021692*
X013329Y021687*
X013326Y021682*
X013324Y021677*
X013323Y021672*
X013321Y021666*
X013320Y021661*
X013320Y021655*
X013320Y021650*
X013320Y021644*
X013320Y021638*
X013321Y021633*
X013323Y021627*
X013324Y021622*
X013326Y021617*
X013329Y021612*
X013332Y021607*
X013335Y021602*
X013338Y021598*
X013342Y021594*
X013346Y021590*
X013350Y021586*
X013355Y021583*
X013360Y021580*
X013364Y021578*
X013370Y021575*
X013375Y021573*
X013380Y021572*
X013386Y021571*
X013391Y021570*
X013397Y021570*
X013402*
X013408Y021570*
X013413Y021571*
X013419Y021572*
X013424Y021573*
X013429Y021575*
X013435Y021578*
X013440Y021580*
X013444Y021583*
X013449Y021586*
X013453Y021590*
X013457Y021594*
X013461Y021598*
X013464Y021602*
X013467Y021607*
X013470Y021612*
X013473Y021617*
X013475Y021622*
X013476Y021627*
X013478Y021633*
X013479Y021638*
X013479Y021644*
X013480Y021650*
X031330Y027250D02*
D01*
X031329Y027255*
X031329Y027261*
X031328Y027266*
X031326Y027272*
X031325Y027277*
X031323Y027282*
X031320Y027287*
X031317Y027292*
X031314Y027297*
X031311Y027301*
X031307Y027305*
X031303Y027309*
X031299Y027313*
X031294Y027316*
X031290Y027319*
X031285Y027321*
X031279Y027324*
X031274Y027326*
X031269Y027327*
X031263Y027328*
X031258Y027329*
X031252Y027329*
X031247*
X031241Y027329*
X031236Y027328*
X031230Y027327*
X031225Y027326*
X031220Y027324*
X031214Y027321*
X031210Y027319*
X031205Y027316*
X031200Y027313*
X031196Y027309*
X031192Y027305*
X031188Y027301*
X031185Y027297*
X031182Y027292*
X031179Y027287*
X031176Y027282*
X031174Y027277*
X031173Y027272*
X031171Y027266*
X031170Y027261*
X031170Y027255*
X031170Y027250*
X031170Y027244*
X031170Y027238*
X031171Y027233*
X031173Y027227*
X031174Y027222*
X031176Y027217*
X031179Y027212*
X031182Y027207*
X031185Y027202*
X031188Y027198*
X031192Y027194*
X031196Y027190*
X031200Y027186*
X031205Y027183*
X031210Y027180*
X031214Y027178*
X031220Y027175*
X031225Y027173*
X031230Y027172*
X031236Y027171*
X031241Y027170*
X031247Y027170*
X031252*
X031258Y027170*
X031263Y027171*
X031269Y027172*
X031274Y027173*
X031279Y027175*
X031285Y027178*
X031290Y027180*
X031294Y027183*
X031299Y027186*
X031303Y027190*
X031307Y027194*
X031311Y027198*
X031314Y027202*
X031317Y027207*
X031320Y027212*
X031323Y027217*
X031325Y027222*
X031326Y027227*
X031328Y027233*
X031329Y027238*
X031329Y027244*
X031330Y027250*
X032330D02*
D01*
X032329Y027255*
X032329Y027261*
X032328Y027266*
X032326Y027272*
X032325Y027277*
X032323Y027282*
X032320Y027287*
X032317Y027292*
X032314Y027297*
X032311Y027301*
X032307Y027305*
X032303Y027309*
X032299Y027313*
X032294Y027316*
X032290Y027319*
X032285Y027321*
X032279Y027324*
X032274Y027326*
X032269Y027327*
X032263Y027328*
X032258Y027329*
X032252Y027329*
X032247*
X032241Y027329*
X032236Y027328*
X032230Y027327*
X032225Y027326*
X032220Y027324*
X032214Y027321*
X032210Y027319*
X032205Y027316*
X032200Y027313*
X032196Y027309*
X032192Y027305*
X032188Y027301*
X032185Y027297*
X032182Y027292*
X032179Y027287*
X032176Y027282*
X032174Y027277*
X032173Y027272*
X032171Y027266*
X032170Y027261*
X032170Y027255*
X032170Y027250*
X032170Y027244*
X032170Y027238*
X032171Y027233*
X032173Y027227*
X032174Y027222*
X032176Y027217*
X032179Y027212*
X032182Y027207*
X032185Y027202*
X032188Y027198*
X032192Y027194*
X032196Y027190*
X032200Y027186*
X032205Y027183*
X032210Y027180*
X032214Y027178*
X032220Y027175*
X032225Y027173*
X032230Y027172*
X032236Y027171*
X032241Y027170*
X032247Y027170*
X032252*
X032258Y027170*
X032263Y027171*
X032269Y027172*
X032274Y027173*
X032279Y027175*
X032285Y027178*
X032290Y027180*
X032294Y027183*
X032299Y027186*
X032303Y027190*
X032307Y027194*
X032311Y027198*
X032314Y027202*
X032317Y027207*
X032320Y027212*
X032323Y027217*
X032325Y027222*
X032326Y027227*
X032328Y027233*
X032329Y027238*
X032329Y027244*
X032330Y027250*
X034880Y015850D02*
D01*
X034879Y015855*
X034879Y015861*
X034878Y015866*
X034876Y015872*
X034875Y015877*
X034873Y015882*
X034870Y015887*
X034867Y015892*
X034864Y015897*
X034861Y015901*
X034857Y015905*
X034853Y015909*
X034849Y015913*
X034844Y015916*
X034840Y015919*
X034835Y015921*
X034829Y015924*
X034824Y015926*
X034819Y015927*
X034813Y015928*
X034808Y015929*
X034802Y015929*
X034797*
X034791Y015929*
X034786Y015928*
X034780Y015927*
X034775Y015926*
X034770Y015924*
X034764Y015921*
X034760Y015919*
X034755Y015916*
X034750Y015913*
X034746Y015909*
X034742Y015905*
X034738Y015901*
X034735Y015897*
X034732Y015892*
X034729Y015887*
X034726Y015882*
X034724Y015877*
X034723Y015872*
X034721Y015866*
X034720Y015861*
X034720Y015855*
X034720Y015850*
X034720Y015844*
X034720Y015838*
X034721Y015833*
X034723Y015827*
X034724Y015822*
X034726Y015817*
X034729Y015812*
X034732Y015807*
X034735Y015802*
X034738Y015798*
X034742Y015794*
X034746Y015790*
X034750Y015786*
X034755Y015783*
X034760Y015780*
X034764Y015778*
X034770Y015775*
X034775Y015773*
X034780Y015772*
X034786Y015771*
X034791Y015770*
X034797Y015770*
X034802*
X034808Y015770*
X034813Y015771*
X034819Y015772*
X034824Y015773*
X034829Y015775*
X034835Y015778*
X034840Y015780*
X034844Y015783*
X034849Y015786*
X034853Y015790*
X034857Y015794*
X034861Y015798*
X034864Y015802*
X034867Y015807*
X034870Y015812*
X034873Y015817*
X034875Y015822*
X034876Y015827*
X034878Y015833*
X034879Y015838*
X034879Y015844*
X034880Y015850*
X033880D02*
D01*
X033879Y015855*
X033879Y015861*
X033878Y015866*
X033876Y015872*
X033875Y015877*
X033873Y015882*
X033870Y015887*
X033867Y015892*
X033864Y015897*
X033861Y015901*
X033857Y015905*
X033853Y015909*
X033849Y015913*
X033844Y015916*
X033840Y015919*
X033835Y015921*
X033829Y015924*
X033824Y015926*
X033819Y015927*
X033813Y015928*
X033808Y015929*
X033802Y015929*
X033797*
X033791Y015929*
X033786Y015928*
X033780Y015927*
X033775Y015926*
X033770Y015924*
X033764Y015921*
X033760Y015919*
X033755Y015916*
X033750Y015913*
X033746Y015909*
X033742Y015905*
X033738Y015901*
X033735Y015897*
X033732Y015892*
X033729Y015887*
X033726Y015882*
X033724Y015877*
X033723Y015872*
X033721Y015866*
X033720Y015861*
X033720Y015855*
X033720Y015850*
X033720Y015844*
X033720Y015838*
X033721Y015833*
X033723Y015827*
X033724Y015822*
X033726Y015817*
X033729Y015812*
X033732Y015807*
X033735Y015802*
X033738Y015798*
X033742Y015794*
X033746Y015790*
X033750Y015786*
X033755Y015783*
X033760Y015780*
X033764Y015778*
X033770Y015775*
X033775Y015773*
X033780Y015772*
X033786Y015771*
X033791Y015770*
X033797Y015770*
X033802*
X033808Y015770*
X033813Y015771*
X033819Y015772*
X033824Y015773*
X033829Y015775*
X033835Y015778*
X033840Y015780*
X033844Y015783*
X033849Y015786*
X033853Y015790*
X033857Y015794*
X033861Y015798*
X033864Y015802*
X033867Y015807*
X033870Y015812*
X033873Y015817*
X033875Y015822*
X033876Y015827*
X033878Y015833*
X033879Y015838*
X033879Y015844*
X033880Y015850*
X032880D02*
D01*
X032879Y015855*
X032879Y015861*
X032878Y015866*
X032876Y015872*
X032875Y015877*
X032873Y015882*
X032870Y015887*
X032867Y015892*
X032864Y015897*
X032861Y015901*
X032857Y015905*
X032853Y015909*
X032849Y015913*
X032844Y015916*
X032840Y015919*
X032835Y015921*
X032829Y015924*
X032824Y015926*
X032819Y015927*
X032813Y015928*
X032808Y015929*
X032802Y015929*
X032797*
X032791Y015929*
X032786Y015928*
X032780Y015927*
X032775Y015926*
X032770Y015924*
X032764Y015921*
X032760Y015919*
X032755Y015916*
X032750Y015913*
X032746Y015909*
X032742Y015905*
X032738Y015901*
X032735Y015897*
X032732Y015892*
X032729Y015887*
X032726Y015882*
X032724Y015877*
X032723Y015872*
X032721Y015866*
X032720Y015861*
X032720Y015855*
X032720Y015850*
X032720Y015844*
X032720Y015838*
X032721Y015833*
X032723Y015827*
X032724Y015822*
X032726Y015817*
X032729Y015812*
X032732Y015807*
X032735Y015802*
X032738Y015798*
X032742Y015794*
X032746Y015790*
X032750Y015786*
X032755Y015783*
X032760Y015780*
X032764Y015778*
X032770Y015775*
X032775Y015773*
X032780Y015772*
X032786Y015771*
X032791Y015770*
X032797Y015770*
X032802*
X032808Y015770*
X032813Y015771*
X032819Y015772*
X032824Y015773*
X032829Y015775*
X032835Y015778*
X032840Y015780*
X032844Y015783*
X032849Y015786*
X032853Y015790*
X032857Y015794*
X032861Y015798*
X032864Y015802*
X032867Y015807*
X032870Y015812*
X032873Y015817*
X032875Y015822*
X032876Y015827*
X032878Y015833*
X032879Y015838*
X032879Y015844*
X032880Y015850*
X031880D02*
D01*
X031879Y015855*
X031879Y015861*
X031878Y015866*
X031876Y015872*
X031875Y015877*
X031873Y015882*
X031870Y015887*
X031867Y015892*
X031864Y015897*
X031861Y015901*
X031857Y015905*
X031853Y015909*
X031849Y015913*
X031844Y015916*
X031840Y015919*
X031835Y015921*
X031829Y015924*
X031824Y015926*
X031819Y015927*
X031813Y015928*
X031808Y015929*
X031802Y015929*
X031797*
X031791Y015929*
X031786Y015928*
X031780Y015927*
X031775Y015926*
X031770Y015924*
X031764Y015921*
X031760Y015919*
X031755Y015916*
X031750Y015913*
X031746Y015909*
X031742Y015905*
X031738Y015901*
X031735Y015897*
X031732Y015892*
X031729Y015887*
X031726Y015882*
X031724Y015877*
X031723Y015872*
X031721Y015866*
X031720Y015861*
X031720Y015855*
X031720Y015850*
X031720Y015844*
X031720Y015838*
X031721Y015833*
X031723Y015827*
X031724Y015822*
X031726Y015817*
X031729Y015812*
X031732Y015807*
X031735Y015802*
X031738Y015798*
X031742Y015794*
X031746Y015790*
X031750Y015786*
X031755Y015783*
X031760Y015780*
X031764Y015778*
X031770Y015775*
X031775Y015773*
X031780Y015772*
X031786Y015771*
X031791Y015770*
X031797Y015770*
X031802*
X031808Y015770*
X031813Y015771*
X031819Y015772*
X031824Y015773*
X031829Y015775*
X031835Y015778*
X031840Y015780*
X031844Y015783*
X031849Y015786*
X031853Y015790*
X031857Y015794*
X031861Y015798*
X031864Y015802*
X031867Y015807*
X031870Y015812*
X031873Y015817*
X031875Y015822*
X031876Y015827*
X031878Y015833*
X031879Y015838*
X031879Y015844*
X031880Y015850*
X030880D02*
D01*
X030879Y015855*
X030879Y015861*
X030878Y015866*
X030876Y015872*
X030875Y015877*
X030873Y015882*
X030870Y015887*
X030867Y015892*
X030864Y015897*
X030861Y015901*
X030857Y015905*
X030853Y015909*
X030849Y015913*
X030844Y015916*
X030840Y015919*
X030835Y015921*
X030829Y015924*
X030824Y015926*
X030819Y015927*
X030813Y015928*
X030808Y015929*
X030802Y015929*
X030797*
X030791Y015929*
X030786Y015928*
X030780Y015927*
X030775Y015926*
X030770Y015924*
X030764Y015921*
X030760Y015919*
X030755Y015916*
X030750Y015913*
X030746Y015909*
X030742Y015905*
X030738Y015901*
X030735Y015897*
X030732Y015892*
X030729Y015887*
X030726Y015882*
X030724Y015877*
X030723Y015872*
X030721Y015866*
X030720Y015861*
X030720Y015855*
X030720Y015850*
X030720Y015844*
X030720Y015838*
X030721Y015833*
X030723Y015827*
X030724Y015822*
X030726Y015817*
X030729Y015812*
X030732Y015807*
X030735Y015802*
X030738Y015798*
X030742Y015794*
X030746Y015790*
X030750Y015786*
X030755Y015783*
X030760Y015780*
X030764Y015778*
X030770Y015775*
X030775Y015773*
X030780Y015772*
X030786Y015771*
X030791Y015770*
X030797Y015770*
X030802*
X030808Y015770*
X030813Y015771*
X030819Y015772*
X030824Y015773*
X030829Y015775*
X030835Y015778*
X030840Y015780*
X030844Y015783*
X030849Y015786*
X030853Y015790*
X030857Y015794*
X030861Y015798*
X030864Y015802*
X030867Y015807*
X030870Y015812*
X030873Y015817*
X030875Y015822*
X030876Y015827*
X030878Y015833*
X030879Y015838*
X030879Y015844*
X030880Y015850*
X022430Y025650D02*
D01*
X022429Y025655*
X022429Y025661*
X022428Y025666*
X022426Y025672*
X022425Y025677*
X022423Y025682*
X022420Y025687*
X022417Y025692*
X022414Y025697*
X022411Y025701*
X022407Y025705*
X022403Y025709*
X022399Y025713*
X022394Y025716*
X022390Y025719*
X022385Y025721*
X022379Y025724*
X022374Y025726*
X022369Y025727*
X022363Y025728*
X022358Y025729*
X022352Y025729*
X022347*
X022341Y025729*
X022336Y025728*
X022330Y025727*
X022325Y025726*
X022320Y025724*
X022314Y025721*
X022310Y025719*
X022305Y025716*
X022300Y025713*
X022296Y025709*
X022292Y025705*
X022288Y025701*
X022285Y025697*
X022282Y025692*
X022279Y025687*
X022276Y025682*
X022274Y025677*
X022273Y025672*
X022271Y025666*
X022270Y025661*
X022270Y025655*
X022270Y025650*
X022270Y025644*
X022270Y025638*
X022271Y025633*
X022273Y025627*
X022274Y025622*
X022276Y025617*
X022279Y025612*
X022282Y025607*
X022285Y025602*
X022288Y025598*
X022292Y025594*
X022296Y025590*
X022300Y025586*
X022305Y025583*
X022310Y025580*
X022314Y025578*
X022320Y025575*
X022325Y025573*
X022330Y025572*
X022336Y025571*
X022341Y025570*
X022347Y025570*
X022352*
X022358Y025570*
X022363Y025571*
X022369Y025572*
X022374Y025573*
X022379Y025575*
X022385Y025578*
X022390Y025580*
X022394Y025583*
X022399Y025586*
X022403Y025590*
X022407Y025594*
X022411Y025598*
X022414Y025602*
X022417Y025607*
X022420Y025612*
X022423Y025617*
X022425Y025622*
X022426Y025627*
X022428Y025633*
X022429Y025638*
X022429Y025644*
X022430Y025650*
X021430D02*
D01*
X021429Y025655*
X021429Y025661*
X021428Y025666*
X021426Y025672*
X021425Y025677*
X021423Y025682*
X021420Y025687*
X021417Y025692*
X021414Y025697*
X021411Y025701*
X021407Y025705*
X021403Y025709*
X021399Y025713*
X021394Y025716*
X021390Y025719*
X021385Y025721*
X021379Y025724*
X021374Y025726*
X021369Y025727*
X021363Y025728*
X021358Y025729*
X021352Y025729*
X021347*
X021341Y025729*
X021336Y025728*
X021330Y025727*
X021325Y025726*
X021320Y025724*
X021314Y025721*
X021310Y025719*
X021305Y025716*
X021300Y025713*
X021296Y025709*
X021292Y025705*
X021288Y025701*
X021285Y025697*
X021282Y025692*
X021279Y025687*
X021276Y025682*
X021274Y025677*
X021273Y025672*
X021271Y025666*
X021270Y025661*
X021270Y025655*
X021270Y025650*
X021270Y025644*
X021270Y025638*
X021271Y025633*
X021273Y025627*
X021274Y025622*
X021276Y025617*
X021279Y025612*
X021282Y025607*
X021285Y025602*
X021288Y025598*
X021292Y025594*
X021296Y025590*
X021300Y025586*
X021305Y025583*
X021310Y025580*
X021314Y025578*
X021320Y025575*
X021325Y025573*
X021330Y025572*
X021336Y025571*
X021341Y025570*
X021347Y025570*
X021352*
X021358Y025570*
X021363Y025571*
X021369Y025572*
X021374Y025573*
X021379Y025575*
X021385Y025578*
X021390Y025580*
X021394Y025583*
X021399Y025586*
X021403Y025590*
X021407Y025594*
X021411Y025598*
X021414Y025602*
X021417Y025607*
X021420Y025612*
X021423Y025617*
X021425Y025622*
X021426Y025627*
X021428Y025633*
X021429Y025638*
X021429Y025644*
X021430Y025650*
X026980Y015900D02*
D01*
X026979Y015905*
X026979Y015911*
X026978Y015916*
X026976Y015922*
X026975Y015927*
X026973Y015932*
X026970Y015937*
X026967Y015942*
X026964Y015947*
X026961Y015951*
X026957Y015955*
X026953Y015959*
X026949Y015963*
X026944Y015966*
X026940Y015969*
X026935Y015971*
X026929Y015974*
X026924Y015976*
X026919Y015977*
X026913Y015978*
X026908Y015979*
X026902Y015979*
X026897*
X026891Y015979*
X026886Y015978*
X026880Y015977*
X026875Y015976*
X026870Y015974*
X026864Y015971*
X026860Y015969*
X026855Y015966*
X026850Y015963*
X026846Y015959*
X026842Y015955*
X026838Y015951*
X026835Y015947*
X026832Y015942*
X026829Y015937*
X026826Y015932*
X026824Y015927*
X026823Y015922*
X026821Y015916*
X026820Y015911*
X026820Y015905*
X026820Y015900*
X026820Y015894*
X026820Y015888*
X026821Y015883*
X026823Y015877*
X026824Y015872*
X026826Y015867*
X026829Y015862*
X026832Y015857*
X026835Y015852*
X026838Y015848*
X026842Y015844*
X026846Y015840*
X026850Y015836*
X026855Y015833*
X026860Y015830*
X026864Y015828*
X026870Y015825*
X026875Y015823*
X026880Y015822*
X026886Y015821*
X026891Y015820*
X026897Y015820*
X026902*
X026908Y015820*
X026913Y015821*
X026919Y015822*
X026924Y015823*
X026929Y015825*
X026935Y015828*
X026940Y015830*
X026944Y015833*
X026949Y015836*
X026953Y015840*
X026957Y015844*
X026961Y015848*
X026964Y015852*
X026967Y015857*
X026970Y015862*
X026973Y015867*
X026975Y015872*
X026976Y015877*
X026978Y015883*
X026979Y015888*
X026979Y015894*
X026980Y015900*
Y014900D02*
D01*
X026979Y014905*
X026979Y014911*
X026978Y014916*
X026976Y014922*
X026975Y014927*
X026973Y014932*
X026970Y014937*
X026967Y014942*
X026964Y014947*
X026961Y014951*
X026957Y014955*
X026953Y014959*
X026949Y014963*
X026944Y014966*
X026940Y014969*
X026935Y014971*
X026929Y014974*
X026924Y014976*
X026919Y014977*
X026913Y014978*
X026908Y014979*
X026902Y014979*
X026897*
X026891Y014979*
X026886Y014978*
X026880Y014977*
X026875Y014976*
X026870Y014974*
X026864Y014971*
X026860Y014969*
X026855Y014966*
X026850Y014963*
X026846Y014959*
X026842Y014955*
X026838Y014951*
X026835Y014947*
X026832Y014942*
X026829Y014937*
X026826Y014932*
X026824Y014927*
X026823Y014922*
X026821Y014916*
X026820Y014911*
X026820Y014905*
X026820Y014900*
X026820Y014894*
X026820Y014888*
X026821Y014883*
X026823Y014877*
X026824Y014872*
X026826Y014867*
X026829Y014862*
X026832Y014857*
X026835Y014852*
X026838Y014848*
X026842Y014844*
X026846Y014840*
X026850Y014836*
X026855Y014833*
X026860Y014830*
X026864Y014828*
X026870Y014825*
X026875Y014823*
X026880Y014822*
X026886Y014821*
X026891Y014820*
X026897Y014820*
X026902*
X026908Y014820*
X026913Y014821*
X026919Y014822*
X026924Y014823*
X026929Y014825*
X026935Y014828*
X026940Y014830*
X026944Y014833*
X026949Y014836*
X026953Y014840*
X026957Y014844*
X026961Y014848*
X026964Y014852*
X026967Y014857*
X026970Y014862*
X026973Y014867*
X026975Y014872*
X026976Y014877*
X026978Y014883*
X026979Y014888*
X026979Y014894*
X026980Y014900*
X025980Y015900D02*
D01*
X025979Y015905*
X025979Y015911*
X025978Y015916*
X025976Y015922*
X025975Y015927*
X025973Y015932*
X025970Y015937*
X025967Y015942*
X025964Y015947*
X025961Y015951*
X025957Y015955*
X025953Y015959*
X025949Y015963*
X025944Y015966*
X025940Y015969*
X025935Y015971*
X025929Y015974*
X025924Y015976*
X025919Y015977*
X025913Y015978*
X025908Y015979*
X025902Y015979*
X025897*
X025891Y015979*
X025886Y015978*
X025880Y015977*
X025875Y015976*
X025870Y015974*
X025864Y015971*
X025860Y015969*
X025855Y015966*
X025850Y015963*
X025846Y015959*
X025842Y015955*
X025838Y015951*
X025835Y015947*
X025832Y015942*
X025829Y015937*
X025826Y015932*
X025824Y015927*
X025823Y015922*
X025821Y015916*
X025820Y015911*
X025820Y015905*
X025820Y015900*
X025820Y015894*
X025820Y015888*
X025821Y015883*
X025823Y015877*
X025824Y015872*
X025826Y015867*
X025829Y015862*
X025832Y015857*
X025835Y015852*
X025838Y015848*
X025842Y015844*
X025846Y015840*
X025850Y015836*
X025855Y015833*
X025860Y015830*
X025864Y015828*
X025870Y015825*
X025875Y015823*
X025880Y015822*
X025886Y015821*
X025891Y015820*
X025897Y015820*
X025902*
X025908Y015820*
X025913Y015821*
X025919Y015822*
X025924Y015823*
X025929Y015825*
X025935Y015828*
X025940Y015830*
X025944Y015833*
X025949Y015836*
X025953Y015840*
X025957Y015844*
X025961Y015848*
X025964Y015852*
X025967Y015857*
X025970Y015862*
X025973Y015867*
X025975Y015872*
X025976Y015877*
X025978Y015883*
X025979Y015888*
X025979Y015894*
X025980Y015900*
Y014900D02*
D01*
X025979Y014905*
X025979Y014911*
X025978Y014916*
X025976Y014922*
X025975Y014927*
X025973Y014932*
X025970Y014937*
X025967Y014942*
X025964Y014947*
X025961Y014951*
X025957Y014955*
X025953Y014959*
X025949Y014963*
X025944Y014966*
X025940Y014969*
X025935Y014971*
X025929Y014974*
X025924Y014976*
X025919Y014977*
X025913Y014978*
X025908Y014979*
X025902Y014979*
X025897*
X025891Y014979*
X025886Y014978*
X025880Y014977*
X025875Y014976*
X025870Y014974*
X025864Y014971*
X025860Y014969*
X025855Y014966*
X025850Y014963*
X025846Y014959*
X025842Y014955*
X025838Y014951*
X025835Y014947*
X025832Y014942*
X025829Y014937*
X025826Y014932*
X025824Y014927*
X025823Y014922*
X025821Y014916*
X025820Y014911*
X025820Y014905*
X025820Y014900*
X025820Y014894*
X025820Y014888*
X025821Y014883*
X025823Y014877*
X025824Y014872*
X025826Y014867*
X025829Y014862*
X025832Y014857*
X025835Y014852*
X025838Y014848*
X025842Y014844*
X025846Y014840*
X025850Y014836*
X025855Y014833*
X025860Y014830*
X025864Y014828*
X025870Y014825*
X025875Y014823*
X025880Y014822*
X025886Y014821*
X025891Y014820*
X025897Y014820*
X025902*
X025908Y014820*
X025913Y014821*
X025919Y014822*
X025924Y014823*
X025929Y014825*
X025935Y014828*
X025940Y014830*
X025944Y014833*
X025949Y014836*
X025953Y014840*
X025957Y014844*
X025961Y014848*
X025964Y014852*
X025967Y014857*
X025970Y014862*
X025973Y014867*
X025975Y014872*
X025976Y014877*
X025978Y014883*
X025979Y014888*
X025979Y014894*
X025980Y014900*
X024980Y015900D02*
D01*
X024979Y015905*
X024979Y015911*
X024978Y015916*
X024976Y015922*
X024975Y015927*
X024973Y015932*
X024970Y015937*
X024967Y015942*
X024964Y015947*
X024961Y015951*
X024957Y015955*
X024953Y015959*
X024949Y015963*
X024944Y015966*
X024940Y015969*
X024935Y015971*
X024929Y015974*
X024924Y015976*
X024919Y015977*
X024913Y015978*
X024908Y015979*
X024902Y015979*
X024897*
X024891Y015979*
X024886Y015978*
X024880Y015977*
X024875Y015976*
X024870Y015974*
X024864Y015971*
X024860Y015969*
X024855Y015966*
X024850Y015963*
X024846Y015959*
X024842Y015955*
X024838Y015951*
X024835Y015947*
X024832Y015942*
X024829Y015937*
X024826Y015932*
X024824Y015927*
X024823Y015922*
X024821Y015916*
X024820Y015911*
X024820Y015905*
X024820Y015900*
X024820Y015894*
X024820Y015888*
X024821Y015883*
X024823Y015877*
X024824Y015872*
X024826Y015867*
X024829Y015862*
X024832Y015857*
X024835Y015852*
X024838Y015848*
X024842Y015844*
X024846Y015840*
X024850Y015836*
X024855Y015833*
X024860Y015830*
X024864Y015828*
X024870Y015825*
X024875Y015823*
X024880Y015822*
X024886Y015821*
X024891Y015820*
X024897Y015820*
X024902*
X024908Y015820*
X024913Y015821*
X024919Y015822*
X024924Y015823*
X024929Y015825*
X024935Y015828*
X024940Y015830*
X024944Y015833*
X024949Y015836*
X024953Y015840*
X024957Y015844*
X024961Y015848*
X024964Y015852*
X024967Y015857*
X024970Y015862*
X024973Y015867*
X024975Y015872*
X024976Y015877*
X024978Y015883*
X024979Y015888*
X024979Y015894*
X024980Y015900*
Y014900D02*
D01*
X024979Y014905*
X024979Y014911*
X024978Y014916*
X024976Y014922*
X024975Y014927*
X024973Y014932*
X024970Y014937*
X024967Y014942*
X024964Y014947*
X024961Y014951*
X024957Y014955*
X024953Y014959*
X024949Y014963*
X024944Y014966*
X024940Y014969*
X024935Y014971*
X024929Y014974*
X024924Y014976*
X024919Y014977*
X024913Y014978*
X024908Y014979*
X024902Y014979*
X024897*
X024891Y014979*
X024886Y014978*
X024880Y014977*
X024875Y014976*
X024870Y014974*
X024864Y014971*
X024860Y014969*
X024855Y014966*
X024850Y014963*
X024846Y014959*
X024842Y014955*
X024838Y014951*
X024835Y014947*
X024832Y014942*
X024829Y014937*
X024826Y014932*
X024824Y014927*
X024823Y014922*
X024821Y014916*
X024820Y014911*
X024820Y014905*
X024820Y014900*
X024820Y014894*
X024820Y014888*
X024821Y014883*
X024823Y014877*
X024824Y014872*
X024826Y014867*
X024829Y014862*
X024832Y014857*
X024835Y014852*
X024838Y014848*
X024842Y014844*
X024846Y014840*
X024850Y014836*
X024855Y014833*
X024860Y014830*
X024864Y014828*
X024870Y014825*
X024875Y014823*
X024880Y014822*
X024886Y014821*
X024891Y014820*
X024897Y014820*
X024902*
X024908Y014820*
X024913Y014821*
X024919Y014822*
X024924Y014823*
X024929Y014825*
X024935Y014828*
X024940Y014830*
X024944Y014833*
X024949Y014836*
X024953Y014840*
X024957Y014844*
X024961Y014848*
X024964Y014852*
X024967Y014857*
X024970Y014862*
X024973Y014867*
X024975Y014872*
X024976Y014877*
X024978Y014883*
X024979Y014888*
X024979Y014894*
X024980Y014900*
X023980Y015900D02*
D01*
X023979Y015905*
X023979Y015911*
X023978Y015916*
X023976Y015922*
X023975Y015927*
X023973Y015932*
X023970Y015937*
X023967Y015942*
X023964Y015947*
X023961Y015951*
X023957Y015955*
X023953Y015959*
X023949Y015963*
X023944Y015966*
X023940Y015969*
X023935Y015971*
X023929Y015974*
X023924Y015976*
X023919Y015977*
X023913Y015978*
X023908Y015979*
X023902Y015979*
X023897*
X023891Y015979*
X023886Y015978*
X023880Y015977*
X023875Y015976*
X023870Y015974*
X023864Y015971*
X023860Y015969*
X023855Y015966*
X023850Y015963*
X023846Y015959*
X023842Y015955*
X023838Y015951*
X023835Y015947*
X023832Y015942*
X023829Y015937*
X023826Y015932*
X023824Y015927*
X023823Y015922*
X023821Y015916*
X023820Y015911*
X023820Y015905*
X023820Y015900*
X023820Y015894*
X023820Y015888*
X023821Y015883*
X023823Y015877*
X023824Y015872*
X023826Y015867*
X023829Y015862*
X023832Y015857*
X023835Y015852*
X023838Y015848*
X023842Y015844*
X023846Y015840*
X023850Y015836*
X023855Y015833*
X023860Y015830*
X023864Y015828*
X023870Y015825*
X023875Y015823*
X023880Y015822*
X023886Y015821*
X023891Y015820*
X023897Y015820*
X023902*
X023908Y015820*
X023913Y015821*
X023919Y015822*
X023924Y015823*
X023929Y015825*
X023935Y015828*
X023940Y015830*
X023944Y015833*
X023949Y015836*
X023953Y015840*
X023957Y015844*
X023961Y015848*
X023964Y015852*
X023967Y015857*
X023970Y015862*
X023973Y015867*
X023975Y015872*
X023976Y015877*
X023978Y015883*
X023979Y015888*
X023979Y015894*
X023980Y015900*
Y014900D02*
D01*
X023979Y014905*
X023979Y014911*
X023978Y014916*
X023976Y014922*
X023975Y014927*
X023973Y014932*
X023970Y014937*
X023967Y014942*
X023964Y014947*
X023961Y014951*
X023957Y014955*
X023953Y014959*
X023949Y014963*
X023944Y014966*
X023940Y014969*
X023935Y014971*
X023929Y014974*
X023924Y014976*
X023919Y014977*
X023913Y014978*
X023908Y014979*
X023902Y014979*
X023897*
X023891Y014979*
X023886Y014978*
X023880Y014977*
X023875Y014976*
X023870Y014974*
X023864Y014971*
X023860Y014969*
X023855Y014966*
X023850Y014963*
X023846Y014959*
X023842Y014955*
X023838Y014951*
X023835Y014947*
X023832Y014942*
X023829Y014937*
X023826Y014932*
X023824Y014927*
X023823Y014922*
X023821Y014916*
X023820Y014911*
X023820Y014905*
X023820Y014900*
X023820Y014894*
X023820Y014888*
X023821Y014883*
X023823Y014877*
X023824Y014872*
X023826Y014867*
X023829Y014862*
X023832Y014857*
X023835Y014852*
X023838Y014848*
X023842Y014844*
X023846Y014840*
X023850Y014836*
X023855Y014833*
X023860Y014830*
X023864Y014828*
X023870Y014825*
X023875Y014823*
X023880Y014822*
X023886Y014821*
X023891Y014820*
X023897Y014820*
X023902*
X023908Y014820*
X023913Y014821*
X023919Y014822*
X023924Y014823*
X023929Y014825*
X023935Y014828*
X023940Y014830*
X023944Y014833*
X023949Y014836*
X023953Y014840*
X023957Y014844*
X023961Y014848*
X023964Y014852*
X023967Y014857*
X023970Y014862*
X023973Y014867*
X023975Y014872*
X023976Y014877*
X023978Y014883*
X023979Y014888*
X023979Y014894*
X023980Y014900*
X029080Y031000D02*
D01*
X029079Y031005*
X029079Y031011*
X029078Y031016*
X029076Y031022*
X029075Y031027*
X029073Y031032*
X029070Y031037*
X029067Y031042*
X029064Y031047*
X029061Y031051*
X029057Y031055*
X029053Y031059*
X029049Y031063*
X029044Y031066*
X029040Y031069*
X029035Y031071*
X029029Y031074*
X029024Y031076*
X029019Y031077*
X029013Y031078*
X029008Y031079*
X029002Y031079*
X028997*
X028991Y031079*
X028986Y031078*
X028980Y031077*
X028975Y031076*
X028970Y031074*
X028964Y031071*
X028960Y031069*
X028955Y031066*
X028950Y031063*
X028946Y031059*
X028942Y031055*
X028938Y031051*
X028935Y031047*
X028932Y031042*
X028929Y031037*
X028926Y031032*
X028924Y031027*
X028923Y031022*
X028921Y031016*
X028920Y031011*
X028920Y031005*
X028920Y031000*
X028920Y030994*
X028920Y030988*
X028921Y030983*
X028923Y030977*
X028924Y030972*
X028926Y030967*
X028929Y030962*
X028932Y030957*
X028935Y030952*
X028938Y030948*
X028942Y030944*
X028946Y030940*
X028950Y030936*
X028955Y030933*
X028960Y030930*
X028964Y030928*
X028970Y030925*
X028975Y030923*
X028980Y030922*
X028986Y030921*
X028991Y030920*
X028997Y030920*
X029002*
X029008Y030920*
X029013Y030921*
X029019Y030922*
X029024Y030923*
X029029Y030925*
X029035Y030928*
X029040Y030930*
X029044Y030933*
X029049Y030936*
X029053Y030940*
X029057Y030944*
X029061Y030948*
X029064Y030952*
X029067Y030957*
X029070Y030962*
X029073Y030967*
X029075Y030972*
X029076Y030977*
X029078Y030983*
X029079Y030988*
X029079Y030994*
X029080Y031000*
X030080D02*
D01*
X030079Y031005*
X030079Y031011*
X030078Y031016*
X030076Y031022*
X030075Y031027*
X030073Y031032*
X030070Y031037*
X030067Y031042*
X030064Y031047*
X030061Y031051*
X030057Y031055*
X030053Y031059*
X030049Y031063*
X030044Y031066*
X030040Y031069*
X030035Y031071*
X030029Y031074*
X030024Y031076*
X030019Y031077*
X030013Y031078*
X030008Y031079*
X030002Y031079*
X029997*
X029991Y031079*
X029986Y031078*
X029980Y031077*
X029975Y031076*
X029970Y031074*
X029964Y031071*
X029960Y031069*
X029955Y031066*
X029950Y031063*
X029946Y031059*
X029942Y031055*
X029938Y031051*
X029935Y031047*
X029932Y031042*
X029929Y031037*
X029926Y031032*
X029924Y031027*
X029923Y031022*
X029921Y031016*
X029920Y031011*
X029920Y031005*
X029920Y031000*
X029920Y030994*
X029920Y030988*
X029921Y030983*
X029923Y030977*
X029924Y030972*
X029926Y030967*
X029929Y030962*
X029932Y030957*
X029935Y030952*
X029938Y030948*
X029942Y030944*
X029946Y030940*
X029950Y030936*
X029955Y030933*
X029960Y030930*
X029964Y030928*
X029970Y030925*
X029975Y030923*
X029980Y030922*
X029986Y030921*
X029991Y030920*
X029997Y030920*
X030002*
X030008Y030920*
X030013Y030921*
X030019Y030922*
X030024Y030923*
X030029Y030925*
X030035Y030928*
X030040Y030930*
X030044Y030933*
X030049Y030936*
X030053Y030940*
X030057Y030944*
X030061Y030948*
X030064Y030952*
X030067Y030957*
X030070Y030962*
X030073Y030967*
X030075Y030972*
X030076Y030977*
X030078Y030983*
X030079Y030988*
X030079Y030994*
X030080Y031000*
X029080Y030000D02*
D01*
X029079Y030005*
X029079Y030011*
X029078Y030016*
X029076Y030022*
X029075Y030027*
X029073Y030032*
X029070Y030037*
X029067Y030042*
X029064Y030047*
X029061Y030051*
X029057Y030055*
X029053Y030059*
X029049Y030063*
X029044Y030066*
X029040Y030069*
X029035Y030071*
X029029Y030074*
X029024Y030076*
X029019Y030077*
X029013Y030078*
X029008Y030079*
X029002Y030079*
X028997*
X028991Y030079*
X028986Y030078*
X028980Y030077*
X028975Y030076*
X028970Y030074*
X028964Y030071*
X028960Y030069*
X028955Y030066*
X028950Y030063*
X028946Y030059*
X028942Y030055*
X028938Y030051*
X028935Y030047*
X028932Y030042*
X028929Y030037*
X028926Y030032*
X028924Y030027*
X028923Y030022*
X028921Y030016*
X028920Y030011*
X028920Y030005*
X028920Y030000*
X028920Y029994*
X028920Y029988*
X028921Y029983*
X028923Y029977*
X028924Y029972*
X028926Y029967*
X028929Y029962*
X028932Y029957*
X028935Y029952*
X028938Y029948*
X028942Y029944*
X028946Y029940*
X028950Y029936*
X028955Y029933*
X028960Y029930*
X028964Y029928*
X028970Y029925*
X028975Y029923*
X028980Y029922*
X028986Y029921*
X028991Y029920*
X028997Y029920*
X029002*
X029008Y029920*
X029013Y029921*
X029019Y029922*
X029024Y029923*
X029029Y029925*
X029035Y029928*
X029040Y029930*
X029044Y029933*
X029049Y029936*
X029053Y029940*
X029057Y029944*
X029061Y029948*
X029064Y029952*
X029067Y029957*
X029070Y029962*
X029073Y029967*
X029075Y029972*
X029076Y029977*
X029078Y029983*
X029079Y029988*
X029079Y029994*
X029080Y030000*
X030080D02*
D01*
X030079Y030005*
X030079Y030011*
X030078Y030016*
X030076Y030022*
X030075Y030027*
X030073Y030032*
X030070Y030037*
X030067Y030042*
X030064Y030047*
X030061Y030051*
X030057Y030055*
X030053Y030059*
X030049Y030063*
X030044Y030066*
X030040Y030069*
X030035Y030071*
X030029Y030074*
X030024Y030076*
X030019Y030077*
X030013Y030078*
X030008Y030079*
X030002Y030079*
X029997*
X029991Y030079*
X029986Y030078*
X029980Y030077*
X029975Y030076*
X029970Y030074*
X029964Y030071*
X029960Y030069*
X029955Y030066*
X029950Y030063*
X029946Y030059*
X029942Y030055*
X029938Y030051*
X029935Y030047*
X029932Y030042*
X029929Y030037*
X029926Y030032*
X029924Y030027*
X029923Y030022*
X029921Y030016*
X029920Y030011*
X029920Y030005*
X029920Y030000*
X029920Y029994*
X029920Y029988*
X029921Y029983*
X029923Y029977*
X029924Y029972*
X029926Y029967*
X029929Y029962*
X029932Y029957*
X029935Y029952*
X029938Y029948*
X029942Y029944*
X029946Y029940*
X029950Y029936*
X029955Y029933*
X029960Y029930*
X029964Y029928*
X029970Y029925*
X029975Y029923*
X029980Y029922*
X029986Y029921*
X029991Y029920*
X029997Y029920*
X030002*
X030008Y029920*
X030013Y029921*
X030019Y029922*
X030024Y029923*
X030029Y029925*
X030035Y029928*
X030040Y029930*
X030044Y029933*
X030049Y029936*
X030053Y029940*
X030057Y029944*
X030061Y029948*
X030064Y029952*
X030067Y029957*
X030070Y029962*
X030073Y029967*
X030075Y029972*
X030076Y029977*
X030078Y029983*
X030079Y029988*
X030079Y029994*
X030080Y030000*
X029080Y029000D02*
D01*
X029079Y029005*
X029079Y029011*
X029078Y029016*
X029076Y029022*
X029075Y029027*
X029073Y029032*
X029070Y029037*
X029067Y029042*
X029064Y029047*
X029061Y029051*
X029057Y029055*
X029053Y029059*
X029049Y029063*
X029044Y029066*
X029040Y029069*
X029035Y029071*
X029029Y029074*
X029024Y029076*
X029019Y029077*
X029013Y029078*
X029008Y029079*
X029002Y029079*
X028997*
X028991Y029079*
X028986Y029078*
X028980Y029077*
X028975Y029076*
X028970Y029074*
X028964Y029071*
X028960Y029069*
X028955Y029066*
X028950Y029063*
X028946Y029059*
X028942Y029055*
X028938Y029051*
X028935Y029047*
X028932Y029042*
X028929Y029037*
X028926Y029032*
X028924Y029027*
X028923Y029022*
X028921Y029016*
X028920Y029011*
X028920Y029005*
X028920Y029000*
X028920Y028994*
X028920Y028988*
X028921Y028983*
X028923Y028977*
X028924Y028972*
X028926Y028967*
X028929Y028962*
X028932Y028957*
X028935Y028952*
X028938Y028948*
X028942Y028944*
X028946Y028940*
X028950Y028936*
X028955Y028933*
X028960Y028930*
X028964Y028928*
X028970Y028925*
X028975Y028923*
X028980Y028922*
X028986Y028921*
X028991Y028920*
X028997Y028920*
X029002*
X029008Y028920*
X029013Y028921*
X029019Y028922*
X029024Y028923*
X029029Y028925*
X029035Y028928*
X029040Y028930*
X029044Y028933*
X029049Y028936*
X029053Y028940*
X029057Y028944*
X029061Y028948*
X029064Y028952*
X029067Y028957*
X029070Y028962*
X029073Y028967*
X029075Y028972*
X029076Y028977*
X029078Y028983*
X029079Y028988*
X029079Y028994*
X029080Y029000*
X030080D02*
D01*
X030079Y029005*
X030079Y029011*
X030078Y029016*
X030076Y029022*
X030075Y029027*
X030073Y029032*
X030070Y029037*
X030067Y029042*
X030064Y029047*
X030061Y029051*
X030057Y029055*
X030053Y029059*
X030049Y029063*
X030044Y029066*
X030040Y029069*
X030035Y029071*
X030029Y029074*
X030024Y029076*
X030019Y029077*
X030013Y029078*
X030008Y029079*
X030002Y029079*
X029997*
X029991Y029079*
X029986Y029078*
X029980Y029077*
X029975Y029076*
X029970Y029074*
X029964Y029071*
X029960Y029069*
X029955Y029066*
X029950Y029063*
X029946Y029059*
X029942Y029055*
X029938Y029051*
X029935Y029047*
X029932Y029042*
X029929Y029037*
X029926Y029032*
X029924Y029027*
X029923Y029022*
X029921Y029016*
X029920Y029011*
X029920Y029005*
X029920Y029000*
X029920Y028994*
X029920Y028988*
X029921Y028983*
X029923Y028977*
X029924Y028972*
X029926Y028967*
X029929Y028962*
X029932Y028957*
X029935Y028952*
X029938Y028948*
X029942Y028944*
X029946Y028940*
X029950Y028936*
X029955Y028933*
X029960Y028930*
X029964Y028928*
X029970Y028925*
X029975Y028923*
X029980Y028922*
X029986Y028921*
X029991Y028920*
X029997Y028920*
X030002*
X030008Y028920*
X030013Y028921*
X030019Y028922*
X030024Y028923*
X030029Y028925*
X030035Y028928*
X030040Y028930*
X030044Y028933*
X030049Y028936*
X030053Y028940*
X030057Y028944*
X030061Y028948*
X030064Y028952*
X030067Y028957*
X030070Y028962*
X030073Y028967*
X030075Y028972*
X030076Y028977*
X030078Y028983*
X030079Y028988*
X030079Y028994*
X030080Y029000*
X029080Y028000D02*
D01*
X029079Y028005*
X029079Y028011*
X029078Y028016*
X029076Y028022*
X029075Y028027*
X029073Y028032*
X029070Y028037*
X029067Y028042*
X029064Y028047*
X029061Y028051*
X029057Y028055*
X029053Y028059*
X029049Y028063*
X029044Y028066*
X029040Y028069*
X029035Y028071*
X029029Y028074*
X029024Y028076*
X029019Y028077*
X029013Y028078*
X029008Y028079*
X029002Y028079*
X028997*
X028991Y028079*
X028986Y028078*
X028980Y028077*
X028975Y028076*
X028970Y028074*
X028964Y028071*
X028960Y028069*
X028955Y028066*
X028950Y028063*
X028946Y028059*
X028942Y028055*
X028938Y028051*
X028935Y028047*
X028932Y028042*
X028929Y028037*
X028926Y028032*
X028924Y028027*
X028923Y028022*
X028921Y028016*
X028920Y028011*
X028920Y028005*
X028920Y028000*
X028920Y027994*
X028920Y027988*
X028921Y027983*
X028923Y027977*
X028924Y027972*
X028926Y027967*
X028929Y027962*
X028932Y027957*
X028935Y027952*
X028938Y027948*
X028942Y027944*
X028946Y027940*
X028950Y027936*
X028955Y027933*
X028960Y027930*
X028964Y027928*
X028970Y027925*
X028975Y027923*
X028980Y027922*
X028986Y027921*
X028991Y027920*
X028997Y027920*
X029002*
X029008Y027920*
X029013Y027921*
X029019Y027922*
X029024Y027923*
X029029Y027925*
X029035Y027928*
X029040Y027930*
X029044Y027933*
X029049Y027936*
X029053Y027940*
X029057Y027944*
X029061Y027948*
X029064Y027952*
X029067Y027957*
X029070Y027962*
X029073Y027967*
X029075Y027972*
X029076Y027977*
X029078Y027983*
X029079Y027988*
X029079Y027994*
X029080Y028000*
X030080D02*
D01*
X030079Y028005*
X030079Y028011*
X030078Y028016*
X030076Y028022*
X030075Y028027*
X030073Y028032*
X030070Y028037*
X030067Y028042*
X030064Y028047*
X030061Y028051*
X030057Y028055*
X030053Y028059*
X030049Y028063*
X030044Y028066*
X030040Y028069*
X030035Y028071*
X030029Y028074*
X030024Y028076*
X030019Y028077*
X030013Y028078*
X030008Y028079*
X030002Y028079*
X029997*
X029991Y028079*
X029986Y028078*
X029980Y028077*
X029975Y028076*
X029970Y028074*
X029964Y028071*
X029960Y028069*
X029955Y028066*
X029950Y028063*
X029946Y028059*
X029942Y028055*
X029938Y028051*
X029935Y028047*
X029932Y028042*
X029929Y028037*
X029926Y028032*
X029924Y028027*
X029923Y028022*
X029921Y028016*
X029920Y028011*
X029920Y028005*
X029920Y028000*
X029920Y027994*
X029920Y027988*
X029921Y027983*
X029923Y027977*
X029924Y027972*
X029926Y027967*
X029929Y027962*
X029932Y027957*
X029935Y027952*
X029938Y027948*
X029942Y027944*
X029946Y027940*
X029950Y027936*
X029955Y027933*
X029960Y027930*
X029964Y027928*
X029970Y027925*
X029975Y027923*
X029980Y027922*
X029986Y027921*
X029991Y027920*
X029997Y027920*
X030002*
X030008Y027920*
X030013Y027921*
X030019Y027922*
X030024Y027923*
X030029Y027925*
X030035Y027928*
X030040Y027930*
X030044Y027933*
X030049Y027936*
X030053Y027940*
X030057Y027944*
X030061Y027948*
X030064Y027952*
X030067Y027957*
X030070Y027962*
X030073Y027967*
X030075Y027972*
X030076Y027977*
X030078Y027983*
X030079Y027988*
X030079Y027994*
X030080Y028000*
X029080Y027000D02*
D01*
X029079Y027005*
X029079Y027011*
X029078Y027016*
X029076Y027022*
X029075Y027027*
X029073Y027032*
X029070Y027037*
X029067Y027042*
X029064Y027047*
X029061Y027051*
X029057Y027055*
X029053Y027059*
X029049Y027063*
X029044Y027066*
X029040Y027069*
X029035Y027071*
X029029Y027074*
X029024Y027076*
X029019Y027077*
X029013Y027078*
X029008Y027079*
X029002Y027079*
X028997*
X028991Y027079*
X028986Y027078*
X028980Y027077*
X028975Y027076*
X028970Y027074*
X028964Y027071*
X028960Y027069*
X028955Y027066*
X028950Y027063*
X028946Y027059*
X028942Y027055*
X028938Y027051*
X028935Y027047*
X028932Y027042*
X028929Y027037*
X028926Y027032*
X028924Y027027*
X028923Y027022*
X028921Y027016*
X028920Y027011*
X028920Y027005*
X028920Y027000*
X028920Y026994*
X028920Y026988*
X028921Y026983*
X028923Y026977*
X028924Y026972*
X028926Y026967*
X028929Y026962*
X028932Y026957*
X028935Y026952*
X028938Y026948*
X028942Y026944*
X028946Y026940*
X028950Y026936*
X028955Y026933*
X028960Y026930*
X028964Y026928*
X028970Y026925*
X028975Y026923*
X028980Y026922*
X028986Y026921*
X028991Y026920*
X028997Y026920*
X029002*
X029008Y026920*
X029013Y026921*
X029019Y026922*
X029024Y026923*
X029029Y026925*
X029035Y026928*
X029040Y026930*
X029044Y026933*
X029049Y026936*
X029053Y026940*
X029057Y026944*
X029061Y026948*
X029064Y026952*
X029067Y026957*
X029070Y026962*
X029073Y026967*
X029075Y026972*
X029076Y026977*
X029078Y026983*
X029079Y026988*
X029079Y026994*
X029080Y027000*
X030080D02*
D01*
X030079Y027005*
X030079Y027011*
X030078Y027016*
X030076Y027022*
X030075Y027027*
X030073Y027032*
X030070Y027037*
X030067Y027042*
X030064Y027047*
X030061Y027051*
X030057Y027055*
X030053Y027059*
X030049Y027063*
X030044Y027066*
X030040Y027069*
X030035Y027071*
X030029Y027074*
X030024Y027076*
X030019Y027077*
X030013Y027078*
X030008Y027079*
X030002Y027079*
X029997*
X029991Y027079*
X029986Y027078*
X029980Y027077*
X029975Y027076*
X029970Y027074*
X029964Y027071*
X029960Y027069*
X029955Y027066*
X029950Y027063*
X029946Y027059*
X029942Y027055*
X029938Y027051*
X029935Y027047*
X029932Y027042*
X029929Y027037*
X029926Y027032*
X029924Y027027*
X029923Y027022*
X029921Y027016*
X029920Y027011*
X029920Y027005*
X029920Y027000*
X029920Y026994*
X029920Y026988*
X029921Y026983*
X029923Y026977*
X029924Y026972*
X029926Y026967*
X029929Y026962*
X029932Y026957*
X029935Y026952*
X029938Y026948*
X029942Y026944*
X029946Y026940*
X029950Y026936*
X029955Y026933*
X029960Y026930*
X029964Y026928*
X029970Y026925*
X029975Y026923*
X029980Y026922*
X029986Y026921*
X029991Y026920*
X029997Y026920*
X030002*
X030008Y026920*
X030013Y026921*
X030019Y026922*
X030024Y026923*
X030029Y026925*
X030035Y026928*
X030040Y026930*
X030044Y026933*
X030049Y026936*
X030053Y026940*
X030057Y026944*
X030061Y026948*
X030064Y026952*
X030067Y026957*
X030070Y026962*
X030073Y026967*
X030075Y026972*
X030076Y026977*
X030078Y026983*
X030079Y026988*
X030079Y026994*
X030080Y027000*
X020030Y036100D02*
D01*
X020029Y036105*
X020029Y036111*
X020028Y036116*
X020026Y036122*
X020025Y036127*
X020023Y036132*
X020020Y036137*
X020017Y036142*
X020014Y036147*
X020011Y036151*
X020007Y036155*
X020003Y036159*
X019999Y036163*
X019994Y036166*
X019990Y036169*
X019985Y036171*
X019979Y036174*
X019974Y036176*
X019969Y036177*
X019963Y036178*
X019958Y036179*
X019952Y036179*
X019947*
X019941Y036179*
X019936Y036178*
X019930Y036177*
X019925Y036176*
X019920Y036174*
X019914Y036171*
X019910Y036169*
X019905Y036166*
X019900Y036163*
X019896Y036159*
X019892Y036155*
X019888Y036151*
X019885Y036147*
X019882Y036142*
X019879Y036137*
X019876Y036132*
X019874Y036127*
X019873Y036122*
X019871Y036116*
X019870Y036111*
X019870Y036105*
X019870Y036100*
X019870Y036094*
X019870Y036088*
X019871Y036083*
X019873Y036077*
X019874Y036072*
X019876Y036067*
X019879Y036062*
X019882Y036057*
X019885Y036052*
X019888Y036048*
X019892Y036044*
X019896Y036040*
X019900Y036036*
X019905Y036033*
X019910Y036030*
X019914Y036028*
X019920Y036025*
X019925Y036023*
X019930Y036022*
X019936Y036021*
X019941Y036020*
X019947Y036020*
X019952*
X019958Y036020*
X019963Y036021*
X019969Y036022*
X019974Y036023*
X019979Y036025*
X019985Y036028*
X019990Y036030*
X019994Y036033*
X019999Y036036*
X020003Y036040*
X020007Y036044*
X020011Y036048*
X020014Y036052*
X020017Y036057*
X020020Y036062*
X020023Y036067*
X020025Y036072*
X020026Y036077*
X020028Y036083*
X020029Y036088*
X020029Y036094*
X020030Y036100*
Y035100D02*
D01*
X020029Y035105*
X020029Y035111*
X020028Y035116*
X020026Y035122*
X020025Y035127*
X020023Y035132*
X020020Y035137*
X020017Y035142*
X020014Y035147*
X020011Y035151*
X020007Y035155*
X020003Y035159*
X019999Y035163*
X019994Y035166*
X019990Y035169*
X019985Y035171*
X019979Y035174*
X019974Y035176*
X019969Y035177*
X019963Y035178*
X019958Y035179*
X019952Y035179*
X019947*
X019941Y035179*
X019936Y035178*
X019930Y035177*
X019925Y035176*
X019920Y035174*
X019914Y035171*
X019910Y035169*
X019905Y035166*
X019900Y035163*
X019896Y035159*
X019892Y035155*
X019888Y035151*
X019885Y035147*
X019882Y035142*
X019879Y035137*
X019876Y035132*
X019874Y035127*
X019873Y035122*
X019871Y035116*
X019870Y035111*
X019870Y035105*
X019870Y035100*
X019870Y035094*
X019870Y035088*
X019871Y035083*
X019873Y035077*
X019874Y035072*
X019876Y035067*
X019879Y035062*
X019882Y035057*
X019885Y035052*
X019888Y035048*
X019892Y035044*
X019896Y035040*
X019900Y035036*
X019905Y035033*
X019910Y035030*
X019914Y035028*
X019920Y035025*
X019925Y035023*
X019930Y035022*
X019936Y035021*
X019941Y035020*
X019947Y035020*
X019952*
X019958Y035020*
X019963Y035021*
X019969Y035022*
X019974Y035023*
X019979Y035025*
X019985Y035028*
X019990Y035030*
X019994Y035033*
X019999Y035036*
X020003Y035040*
X020007Y035044*
X020011Y035048*
X020014Y035052*
X020017Y035057*
X020020Y035062*
X020023Y035067*
X020025Y035072*
X020026Y035077*
X020028Y035083*
X020029Y035088*
X020029Y035094*
X020030Y035100*
X019030Y036100D02*
D01*
X019029Y036105*
X019029Y036111*
X019028Y036116*
X019026Y036122*
X019025Y036127*
X019023Y036132*
X019020Y036137*
X019017Y036142*
X019014Y036147*
X019011Y036151*
X019007Y036155*
X019003Y036159*
X018999Y036163*
X018994Y036166*
X018990Y036169*
X018985Y036171*
X018979Y036174*
X018974Y036176*
X018969Y036177*
X018963Y036178*
X018958Y036179*
X018952Y036179*
X018947*
X018941Y036179*
X018936Y036178*
X018930Y036177*
X018925Y036176*
X018920Y036174*
X018914Y036171*
X018910Y036169*
X018905Y036166*
X018900Y036163*
X018896Y036159*
X018892Y036155*
X018888Y036151*
X018885Y036147*
X018882Y036142*
X018879Y036137*
X018876Y036132*
X018874Y036127*
X018873Y036122*
X018871Y036116*
X018870Y036111*
X018870Y036105*
X018870Y036100*
X018870Y036094*
X018870Y036088*
X018871Y036083*
X018873Y036077*
X018874Y036072*
X018876Y036067*
X018879Y036062*
X018882Y036057*
X018885Y036052*
X018888Y036048*
X018892Y036044*
X018896Y036040*
X018900Y036036*
X018905Y036033*
X018910Y036030*
X018914Y036028*
X018920Y036025*
X018925Y036023*
X018930Y036022*
X018936Y036021*
X018941Y036020*
X018947Y036020*
X018952*
X018958Y036020*
X018963Y036021*
X018969Y036022*
X018974Y036023*
X018979Y036025*
X018985Y036028*
X018990Y036030*
X018994Y036033*
X018999Y036036*
X019003Y036040*
X019007Y036044*
X019011Y036048*
X019014Y036052*
X019017Y036057*
X019020Y036062*
X019023Y036067*
X019025Y036072*
X019026Y036077*
X019028Y036083*
X019029Y036088*
X019029Y036094*
X019030Y036100*
Y035100D02*
D01*
X019029Y035105*
X019029Y035111*
X019028Y035116*
X019026Y035122*
X019025Y035127*
X019023Y035132*
X019020Y035137*
X019017Y035142*
X019014Y035147*
X019011Y035151*
X019007Y035155*
X019003Y035159*
X018999Y035163*
X018994Y035166*
X018990Y035169*
X018985Y035171*
X018979Y035174*
X018974Y035176*
X018969Y035177*
X018963Y035178*
X018958Y035179*
X018952Y035179*
X018947*
X018941Y035179*
X018936Y035178*
X018930Y035177*
X018925Y035176*
X018920Y035174*
X018914Y035171*
X018910Y035169*
X018905Y035166*
X018900Y035163*
X018896Y035159*
X018892Y035155*
X018888Y035151*
X018885Y035147*
X018882Y035142*
X018879Y035137*
X018876Y035132*
X018874Y035127*
X018873Y035122*
X018871Y035116*
X018870Y035111*
X018870Y035105*
X018870Y035100*
X018870Y035094*
X018870Y035088*
X018871Y035083*
X018873Y035077*
X018874Y035072*
X018876Y035067*
X018879Y035062*
X018882Y035057*
X018885Y035052*
X018888Y035048*
X018892Y035044*
X018896Y035040*
X018900Y035036*
X018905Y035033*
X018910Y035030*
X018914Y035028*
X018920Y035025*
X018925Y035023*
X018930Y035022*
X018936Y035021*
X018941Y035020*
X018947Y035020*
X018952*
X018958Y035020*
X018963Y035021*
X018969Y035022*
X018974Y035023*
X018979Y035025*
X018985Y035028*
X018990Y035030*
X018994Y035033*
X018999Y035036*
X019003Y035040*
X019007Y035044*
X019011Y035048*
X019014Y035052*
X019017Y035057*
X019020Y035062*
X019023Y035067*
X019025Y035072*
X019026Y035077*
X019028Y035083*
X019029Y035088*
X019029Y035094*
X019030Y035100*
X018030Y036100D02*
D01*
X018029Y036105*
X018029Y036111*
X018028Y036116*
X018026Y036122*
X018025Y036127*
X018023Y036132*
X018020Y036137*
X018017Y036142*
X018014Y036147*
X018011Y036151*
X018007Y036155*
X018003Y036159*
X017999Y036163*
X017994Y036166*
X017990Y036169*
X017985Y036171*
X017979Y036174*
X017974Y036176*
X017969Y036177*
X017963Y036178*
X017958Y036179*
X017952Y036179*
X017947*
X017941Y036179*
X017936Y036178*
X017930Y036177*
X017925Y036176*
X017920Y036174*
X017914Y036171*
X017910Y036169*
X017905Y036166*
X017900Y036163*
X017896Y036159*
X017892Y036155*
X017888Y036151*
X017885Y036147*
X017882Y036142*
X017879Y036137*
X017876Y036132*
X017874Y036127*
X017873Y036122*
X017871Y036116*
X017870Y036111*
X017870Y036105*
X017870Y036100*
X017870Y036094*
X017870Y036088*
X017871Y036083*
X017873Y036077*
X017874Y036072*
X017876Y036067*
X017879Y036062*
X017882Y036057*
X017885Y036052*
X017888Y036048*
X017892Y036044*
X017896Y036040*
X017900Y036036*
X017905Y036033*
X017910Y036030*
X017914Y036028*
X017920Y036025*
X017925Y036023*
X017930Y036022*
X017936Y036021*
X017941Y036020*
X017947Y036020*
X017952*
X017958Y036020*
X017963Y036021*
X017969Y036022*
X017974Y036023*
X017979Y036025*
X017985Y036028*
X017990Y036030*
X017994Y036033*
X017999Y036036*
X018003Y036040*
X018007Y036044*
X018011Y036048*
X018014Y036052*
X018017Y036057*
X018020Y036062*
X018023Y036067*
X018025Y036072*
X018026Y036077*
X018028Y036083*
X018029Y036088*
X018029Y036094*
X018030Y036100*
Y035100D02*
D01*
X018029Y035105*
X018029Y035111*
X018028Y035116*
X018026Y035122*
X018025Y035127*
X018023Y035132*
X018020Y035137*
X018017Y035142*
X018014Y035147*
X018011Y035151*
X018007Y035155*
X018003Y035159*
X017999Y035163*
X017994Y035166*
X017990Y035169*
X017985Y035171*
X017979Y035174*
X017974Y035176*
X017969Y035177*
X017963Y035178*
X017958Y035179*
X017952Y035179*
X017947*
X017941Y035179*
X017936Y035178*
X017930Y035177*
X017925Y035176*
X017920Y035174*
X017914Y035171*
X017910Y035169*
X017905Y035166*
X017900Y035163*
X017896Y035159*
X017892Y035155*
X017888Y035151*
X017885Y035147*
X017882Y035142*
X017879Y035137*
X017876Y035132*
X017874Y035127*
X017873Y035122*
X017871Y035116*
X017870Y035111*
X017870Y035105*
X017870Y035100*
X017870Y035094*
X017870Y035088*
X017871Y035083*
X017873Y035077*
X017874Y035072*
X017876Y035067*
X017879Y035062*
X017882Y035057*
X017885Y035052*
X017888Y035048*
X017892Y035044*
X017896Y035040*
X017900Y035036*
X017905Y035033*
X017910Y035030*
X017914Y035028*
X017920Y035025*
X017925Y035023*
X017930Y035022*
X017936Y035021*
X017941Y035020*
X017947Y035020*
X017952*
X017958Y035020*
X017963Y035021*
X017969Y035022*
X017974Y035023*
X017979Y035025*
X017985Y035028*
X017990Y035030*
X017994Y035033*
X017999Y035036*
X018003Y035040*
X018007Y035044*
X018011Y035048*
X018014Y035052*
X018017Y035057*
X018020Y035062*
X018023Y035067*
X018025Y035072*
X018026Y035077*
X018028Y035083*
X018029Y035088*
X018029Y035094*
X018030Y035100*
X017030Y036100D02*
D01*
X017029Y036105*
X017029Y036111*
X017028Y036116*
X017026Y036122*
X017025Y036127*
X017023Y036132*
X017020Y036137*
X017017Y036142*
X017014Y036147*
X017011Y036151*
X017007Y036155*
X017003Y036159*
X016999Y036163*
X016994Y036166*
X016990Y036169*
X016985Y036171*
X016979Y036174*
X016974Y036176*
X016969Y036177*
X016963Y036178*
X016958Y036179*
X016952Y036179*
X016947*
X016941Y036179*
X016936Y036178*
X016930Y036177*
X016925Y036176*
X016920Y036174*
X016914Y036171*
X016910Y036169*
X016905Y036166*
X016900Y036163*
X016896Y036159*
X016892Y036155*
X016888Y036151*
X016885Y036147*
X016882Y036142*
X016879Y036137*
X016876Y036132*
X016874Y036127*
X016873Y036122*
X016871Y036116*
X016870Y036111*
X016870Y036105*
X016870Y036100*
X016870Y036094*
X016870Y036088*
X016871Y036083*
X016873Y036077*
X016874Y036072*
X016876Y036067*
X016879Y036062*
X016882Y036057*
X016885Y036052*
X016888Y036048*
X016892Y036044*
X016896Y036040*
X016900Y036036*
X016905Y036033*
X016910Y036030*
X016914Y036028*
X016920Y036025*
X016925Y036023*
X016930Y036022*
X016936Y036021*
X016941Y036020*
X016947Y036020*
X016952*
X016958Y036020*
X016963Y036021*
X016969Y036022*
X016974Y036023*
X016979Y036025*
X016985Y036028*
X016990Y036030*
X016994Y036033*
X016999Y036036*
X017003Y036040*
X017007Y036044*
X017011Y036048*
X017014Y036052*
X017017Y036057*
X017020Y036062*
X017023Y036067*
X017025Y036072*
X017026Y036077*
X017028Y036083*
X017029Y036088*
X017029Y036094*
X017030Y036100*
Y035100D02*
D01*
X017029Y035105*
X017029Y035111*
X017028Y035116*
X017026Y035122*
X017025Y035127*
X017023Y035132*
X017020Y035137*
X017017Y035142*
X017014Y035147*
X017011Y035151*
X017007Y035155*
X017003Y035159*
X016999Y035163*
X016994Y035166*
X016990Y035169*
X016985Y035171*
X016979Y035174*
X016974Y035176*
X016969Y035177*
X016963Y035178*
X016958Y035179*
X016952Y035179*
X016947*
X016941Y035179*
X016936Y035178*
X016930Y035177*
X016925Y035176*
X016920Y035174*
X016914Y035171*
X016910Y035169*
X016905Y035166*
X016900Y035163*
X016896Y035159*
X016892Y035155*
X016888Y035151*
X016885Y035147*
X016882Y035142*
X016879Y035137*
X016876Y035132*
X016874Y035127*
X016873Y035122*
X016871Y035116*
X016870Y035111*
X016870Y035105*
X016870Y035100*
X016870Y035094*
X016870Y035088*
X016871Y035083*
X016873Y035077*
X016874Y035072*
X016876Y035067*
X016879Y035062*
X016882Y035057*
X016885Y035052*
X016888Y035048*
X016892Y035044*
X016896Y035040*
X016900Y035036*
X016905Y035033*
X016910Y035030*
X016914Y035028*
X016920Y035025*
X016925Y035023*
X016930Y035022*
X016936Y035021*
X016941Y035020*
X016947Y035020*
X016952*
X016958Y035020*
X016963Y035021*
X016969Y035022*
X016974Y035023*
X016979Y035025*
X016985Y035028*
X016990Y035030*
X016994Y035033*
X016999Y035036*
X017003Y035040*
X017007Y035044*
X017011Y035048*
X017014Y035052*
X017017Y035057*
X017020Y035062*
X017023Y035067*
X017025Y035072*
X017026Y035077*
X017028Y035083*
X017029Y035088*
X017029Y035094*
X017030Y035100*
X016030Y036100D02*
D01*
X016029Y036105*
X016029Y036111*
X016028Y036116*
X016026Y036122*
X016025Y036127*
X016023Y036132*
X016020Y036137*
X016017Y036142*
X016014Y036147*
X016011Y036151*
X016007Y036155*
X016003Y036159*
X015999Y036163*
X015994Y036166*
X015990Y036169*
X015985Y036171*
X015979Y036174*
X015974Y036176*
X015969Y036177*
X015963Y036178*
X015958Y036179*
X015952Y036179*
X015947*
X015941Y036179*
X015936Y036178*
X015930Y036177*
X015925Y036176*
X015920Y036174*
X015914Y036171*
X015910Y036169*
X015905Y036166*
X015900Y036163*
X015896Y036159*
X015892Y036155*
X015888Y036151*
X015885Y036147*
X015882Y036142*
X015879Y036137*
X015876Y036132*
X015874Y036127*
X015873Y036122*
X015871Y036116*
X015870Y036111*
X015870Y036105*
X015870Y036100*
X015870Y036094*
X015870Y036088*
X015871Y036083*
X015873Y036077*
X015874Y036072*
X015876Y036067*
X015879Y036062*
X015882Y036057*
X015885Y036052*
X015888Y036048*
X015892Y036044*
X015896Y036040*
X015900Y036036*
X015905Y036033*
X015910Y036030*
X015914Y036028*
X015920Y036025*
X015925Y036023*
X015930Y036022*
X015936Y036021*
X015941Y036020*
X015947Y036020*
X015952*
X015958Y036020*
X015963Y036021*
X015969Y036022*
X015974Y036023*
X015979Y036025*
X015985Y036028*
X015990Y036030*
X015994Y036033*
X015999Y036036*
X016003Y036040*
X016007Y036044*
X016011Y036048*
X016014Y036052*
X016017Y036057*
X016020Y036062*
X016023Y036067*
X016025Y036072*
X016026Y036077*
X016028Y036083*
X016029Y036088*
X016029Y036094*
X016030Y036100*
Y035100D02*
D01*
X016029Y035105*
X016029Y035111*
X016028Y035116*
X016026Y035122*
X016025Y035127*
X016023Y035132*
X016020Y035137*
X016017Y035142*
X016014Y035147*
X016011Y035151*
X016007Y035155*
X016003Y035159*
X015999Y035163*
X015994Y035166*
X015990Y035169*
X015985Y035171*
X015979Y035174*
X015974Y035176*
X015969Y035177*
X015963Y035178*
X015958Y035179*
X015952Y035179*
X015947*
X015941Y035179*
X015936Y035178*
X015930Y035177*
X015925Y035176*
X015920Y035174*
X015914Y035171*
X015910Y035169*
X015905Y035166*
X015900Y035163*
X015896Y035159*
X015892Y035155*
X015888Y035151*
X015885Y035147*
X015882Y035142*
X015879Y035137*
X015876Y035132*
X015874Y035127*
X015873Y035122*
X015871Y035116*
X015870Y035111*
X015870Y035105*
X015870Y035100*
X015870Y035094*
X015870Y035088*
X015871Y035083*
X015873Y035077*
X015874Y035072*
X015876Y035067*
X015879Y035062*
X015882Y035057*
X015885Y035052*
X015888Y035048*
X015892Y035044*
X015896Y035040*
X015900Y035036*
X015905Y035033*
X015910Y035030*
X015914Y035028*
X015920Y035025*
X015925Y035023*
X015930Y035022*
X015936Y035021*
X015941Y035020*
X015947Y035020*
X015952*
X015958Y035020*
X015963Y035021*
X015969Y035022*
X015974Y035023*
X015979Y035025*
X015985Y035028*
X015990Y035030*
X015994Y035033*
X015999Y035036*
X016003Y035040*
X016007Y035044*
X016011Y035048*
X016014Y035052*
X016017Y035057*
X016020Y035062*
X016023Y035067*
X016025Y035072*
X016026Y035077*
X016028Y035083*
X016029Y035088*
X016029Y035094*
X016030Y035100*
M02*