%FSDAX24Y24*%
%MOIN*%
%SFA1B1*%

%IPPOS*%
%ADD10C,0.059100*%
%ADD39C,0.060000*%
%ADD40R,0.059100X0.059100*%
%ADD41C,0.047200*%
%ADD42R,0.059100X0.059100*%
%ADD43C,0.039400*%
%ADD44C,0.078700*%
%LNde-300617-1*%
%LPD*%
G54D10*
X013400Y028650D03*
Y027650D03*
Y026650D03*
Y025650D03*
Y024650D03*
Y023650D03*
Y022650D03*
X031250Y027250D03*
X033800Y015850D03*
X032800D03*
X031800D03*
X030800D03*
X022350Y025650D03*
X026900Y014900D03*
X025900Y015900D03*
Y014900D03*
X024900Y015900D03*
Y014900D03*
X023900Y015900D03*
Y014900D03*
X030000Y031000D03*
X029000Y030000D03*
X030000D03*
X029000Y029000D03*
X030000D03*
X029000Y028000D03*
X030000D03*
X029000Y027000D03*
X030000D03*
X019950Y035100D03*
X018950Y036100D03*
Y035100D03*
X017950Y036100D03*
Y035100D03*
X016950Y036100D03*
Y035100D03*
X015950Y036100D03*
Y035100D03*
G54D39*
X019325Y014900D03*
X016175D03*
X014150Y017041D03*
Y015859D03*
Y013759D03*
Y014941D03*
G54D40*
X013400Y021650D03*
X029000Y031000D03*
G54D41*
X020513Y023300D03*
X019687D03*
G54D42*
X032250Y027250D03*
X034800Y015850D03*
X021350Y025650D03*
X026900Y015900D03*
X019950Y036100D03*
G54D43*
X024980Y034928D03*
X024350D03*
X023720D03*
X024650Y035400D03*
X024050D03*
G54D44*
X025787Y035400D03*
X022913D03*
X025787Y037270D03*
X022913D03*
M02*