%FSDAX24Y24*%
%MOIN*%
%SFA1B1*%

%IPPOS*%
%AMD27*
4,1,8,-0.063000,0.018700,-0.063000,-0.018700,-0.044300,-0.037400,0.044300,-0.037400,0.063000,-0.018700,0.063000,0.018700,0.044300,0.037400,-0.044300,0.037400,-0.063000,0.018700,0.0*
%
%ADD10C,0.059100*%
%ADD11R,0.039400X0.043300*%
%ADD12R,0.043300X0.039400*%
%ADD13O,0.023600X0.086600*%
%ADD14R,0.023600X0.019700*%
%ADD15R,0.094500X0.070900*%
%ADD16R,0.072800X0.149600*%
%ADD17R,0.216500X0.078700*%
%ADD18R,0.051200X0.059100*%
%ADD19R,0.135800X0.061000*%
%ADD20R,0.043300X0.061000*%
%ADD21R,0.043300X0.061000*%
%ADD22R,0.059100X0.051200*%
%ADD23O,0.011800X0.070900*%
%ADD24O,0.070900X0.011800*%
%ADD25R,0.055100X0.023600*%
%ADD26R,0.070900X0.023600*%
G04~CAMADD=27~4~0.0~0.0~748.0~1260.0~0.0~187.0~0~0.0~0.0~0.0~0.0~0~0.0~0.0~0.0~0.0~0~0.0~0.0~0.0~90.0~1260.0~748.0*
%ADD27D27*%
%ADD28R,0.149600X0.072800*%
%ADD29R,0.051200X0.023600*%
%ADD30R,0.021700X0.057100*%
%ADD31R,0.023600X0.051200*%
%ADD32C,0.010000*%
%ADD33C,0.030000*%
%ADD34C,0.005000*%
%ADD35C,0.020000*%
%ADD36R,0.295000X0.210000*%
%ADD37R,0.520000X0.175000*%
%ADD38R,0.470000X0.245000*%
%ADD39C,0.060000*%
%ADD40R,0.059100X0.059100*%
%ADD41C,0.047200*%
%ADD42R,0.059100X0.059100*%
%ADD43C,0.039400*%
%ADD44C,0.078700*%
%ADD45C,0.031500*%
%LNde-300617-1*%
%LPD*%
G36*
X028605Y037524D02*
X029000D01*
Y037424*
X028605*
Y037132*
X028555*
Y037005*
X028197*
X028164Y036998*
X027836*
X027803Y037005*
X027397*
Y037182*
X027347*
Y037435*
X026753*
Y037182*
X026703*
Y036497*
X026699*
Y036453*
X025350*
X025272Y036442*
X025199Y036412*
X025136Y036364*
X024836Y036064*
X024788Y036001*
X024758Y035928*
X024747Y035850*
X024756Y035784*
X024755Y035780*
X024733Y035754*
X024716Y035741*
X024650Y035750*
X024559Y035738*
X024475Y035703*
X024403Y035647*
X024375Y035611*
X024325*
X024297Y035647*
X024254Y035681*
Y035700*
X024238Y035778*
X024194Y035844*
X023560Y036479*
X023493Y036523*
X023415Y036539*
X022297*
Y036701*
X021603*
Y035968*
X021653*
Y035715*
X021950*
X022247*
Y035968*
X022297*
Y036131*
X023331*
X023803Y035658*
Y035647*
X023747Y035575*
X023712Y035491*
X023700Y035400*
X023712Y035309*
X023726Y035276*
X023725Y035270*
X023694Y035223*
X023643Y035217*
X023570Y035187*
X023508Y035139*
X023461Y035077*
X023431Y035005*
X023427Y034978*
X023720*
Y034928*
X023770*
Y034635*
X023798Y034638*
X023870Y034668*
X023932Y034716*
X023979Y034778*
X023981Y034782*
X024035*
X024047Y034753*
X024103Y034680*
X024146Y034647*
Y034451*
X024003*
Y034401*
X023800*
Y034085*
X023750*
Y034035*
X023453*
Y033782*
X023403*
Y033619*
X023365*
X023342Y033615*
X023292Y033656*
Y033913*
X023124*
Y033607*
X023203*
X023219Y033566*
Y033557*
X023018Y033356*
X022968Y033377*
Y033543*
X022432*
Y032731*
X022968*
Y032933*
X023087*
X023165Y032948*
X023231Y032992*
X023357Y033119*
X023403Y033099*
Y033049*
X023449*
X023466Y032999*
X023442Y032980*
X023392Y032916*
X023361Y032841*
X023351Y032761*
X023361Y032681*
X023392Y032606*
X023442Y032542*
X023457Y032530*
Y031847*
X023285*
Y031550*
X023185*
Y031847*
X022932*
Y031897*
X022203*
Y032693*
X022210Y032750*
X022200Y032830*
X022169Y032905*
X022119Y032969*
X022055Y033019*
X021980Y033050*
X021900Y033060*
X021820Y033050*
X021745Y033019*
X021681Y032969*
X021631Y032905*
X021600Y032830*
X021590Y032750*
X021597Y032693*
Y032103*
X017600*
X017522Y032092*
X017449Y032062*
X017386Y032014*
X016901Y031529*
X016853Y031467*
X016823Y031394*
X016813Y031315*
Y029847*
X016749*
Y029153*
X016797*
Y029001*
X016753*
Y028937*
X016685*
X016606Y028927*
X016533Y028897*
X016504Y028874*
X016454Y028899*
Y031816*
X018444Y033806*
X018488Y033872*
X018504Y033950*
Y034366*
X018813Y034675*
X018834Y034666*
X018950Y034651*
X019066Y034666*
X019175Y034711*
X019268Y034782*
X019339Y034875*
X019384Y034984*
X019399Y035100*
X019384Y035216*
X019339Y035325*
X019268Y035418*
X019175Y035489*
X019066Y035534*
X018950Y035549*
X018834Y035534*
X018725Y035489*
X018632Y035418*
X018561Y035325*
X018516Y035216*
X018501Y035100*
X018516Y034984*
X018525Y034963*
X018220Y034658*
X018170Y034679*
Y034709*
X018175Y034711*
X018268Y034782*
X018339Y034875*
X018384Y034984*
X018399Y035100*
X018384Y035216*
X018339Y035325*
X018268Y035418*
X018175Y035489*
X018066Y035534*
X017950Y035549*
X017834Y035534*
X017730Y035491*
X017720Y035492*
X017677Y035515*
X017674Y035536*
X017813Y035675*
X017834Y035666*
X017950Y035651*
X018066Y035666*
X018175Y035711*
X018268Y035782*
X018339Y035875*
X018384Y035984*
X018399Y036100*
X018384Y036216*
X018339Y036325*
X018268Y036418*
X018175Y036489*
X018066Y036534*
X017950Y036549*
X017834Y036534*
X017725Y036489*
X017632Y036418*
X017561Y036325*
X017516Y036216*
X017501Y036100*
X017516Y035984*
X017525Y035963*
X017306Y035744*
X017262Y035678*
X017246Y035600*
Y035491*
X017201Y035468*
X017175Y035489*
X017066Y035534*
X016950Y035549*
X016834Y035534*
X016813Y035525*
X016674Y035664*
X016677Y035685*
X016720Y035708*
X016730Y035709*
X016834Y035666*
X016950Y035651*
X017066Y035666*
X017175Y035711*
X017268Y035782*
X017339Y035875*
X017384Y035984*
X017399Y036100*
X017384Y036216*
X017339Y036325*
X017268Y036418*
X017175Y036489*
X017154Y036497*
Y036500*
X017138Y036578*
X017122Y036603*
X017148Y036653*
X018746*
Y036497*
X018725Y036489*
X018632Y036418*
X018561Y036325*
X018516Y036216*
X018501Y036100*
X018516Y035984*
X018561Y035875*
X018632Y035782*
X018725Y035711*
X018834Y035666*
X018950Y035651*
X019066Y035666*
X019175Y035711*
X019201Y035732*
X019246Y035709*
Y035600*
X019262Y035522*
X019306Y035456*
X019525Y035237*
X019516Y035216*
X019501Y035100*
X019516Y034984*
X019561Y034875*
X019632Y034782*
X019725Y034711*
X019834Y034666*
X019950Y034651*
X020066Y034666*
X020175Y034711*
X020268Y034782*
X020339Y034875*
X020384Y034984*
X020399Y035100*
X020384Y035216*
X020339Y035325*
X020268Y035418*
X020175Y035489*
X020066Y035534*
X019950Y035549*
X019834Y035534*
X019813Y035525*
X019730Y035609*
X019749Y035655*
X020395*
Y036545*
X019654*
Y037150*
X019638Y037228*
X019594Y037294*
X019152Y037737*
X019162Y037787*
X022739*
X022749Y037737*
X022664Y037701*
X022561Y037622*
X022482Y037519*
X022432Y037399*
X022422Y037320*
X022913*
Y037270*
Y037320*
X023404*
X023394Y037399*
X023344Y037519*
X023265Y037622*
X023162Y037701*
X023077Y037737*
X023087Y037787*
X025613*
X025623Y037737*
X025538Y037701*
X025435Y037622*
X025356Y037519*
X025306Y037399*
X025296Y037320*
X025787*
X026278*
X026268Y037399*
X026218Y037519*
X026139Y037622*
X026036Y037701*
X025951Y037737*
X025961Y037787*
X026753*
Y037535*
X027347*
Y037787*
X028605*
Y037524*
G37*
G36*
X033203Y037535D02*
X033500D01*
Y037435*
X033203*
Y037182*
X033153*
Y036449*
X033555*
X033565Y036447*
X033755*
Y036353*
X032872*
Y036679*
X032555*
Y036729*
Y036679*
X032239*
Y036353*
X032017*
Y037184*
X031283*
Y036353*
X031111*
Y037184*
X030378*
Y037135*
X030328Y037101*
X030313Y037108*
X030235Y037118*
X030147*
Y037182*
X030097*
Y037435*
X029800*
Y037535*
X030097*
Y037787*
X033203*
Y037535*
G37*
G36*
X026699Y035803D02*
X026763D01*
Y035560*
X026750Y035530*
X026740Y035450*
X026750Y035370*
X026781Y035295*
X026831Y035231*
X026895Y035181*
X026970Y035150*
X027050Y035140*
X027130Y035150*
X027205Y035181*
X027253Y035218*
X027303Y035197*
Y034757*
X027140Y034594*
X027096Y034528*
X027081Y034450*
Y034319*
X027024*
Y033963*
X026974*
Y033913*
X026756*
Y033754*
X026494*
Y034369*
X025958*
Y033982*
X025919Y033950*
X025900Y033954*
X025847*
Y034035*
X025550*
Y034085*
X025500*
Y034401*
X025297*
Y034451*
X025123*
X025094Y034494*
X025047Y034541*
X025063Y034589*
X025070Y034590*
X025155Y034625*
X025227Y034680*
X025283Y034753*
X025318Y034837*
X025330Y034928*
X025318Y035018*
X025283Y035102*
X025227Y035175*
X025184Y035208*
Y035581*
X025201Y035588*
X025264Y035636*
X025345Y035717*
X025383Y035684*
X025356Y035649*
X025306Y035529*
X025296Y035450*
X025787*
Y035400*
Y035450*
X026278*
X026268Y035529*
X026218Y035649*
X026139Y035752*
X026080Y035797*
X026097Y035847*
X026699*
Y035803*
G37*
G36*
X015632Y035782D02*
X015725Y035711D01*
X015834Y035666*
X015950Y035651*
X016066Y035666*
X016175Y035711*
X016201Y035732*
X016246Y035709*
Y035600*
X016262Y035522*
X016306Y035456*
X016525Y035237*
X016516Y035216*
X016501Y035100*
X016516Y034984*
X016561Y034875*
X016632Y034782*
X016725Y034711*
X016834Y034666*
X016950Y034651*
X017066Y034666*
X017175Y034711*
X017201Y034732*
X017246Y034709*
Y034034*
X015706Y032494*
X015662Y032428*
X015646Y032350*
Y027350*
X015662Y027272*
X015706Y027206*
X015964Y026948*
X015931Y026905*
X015900Y026830*
X015890Y026750*
X015900Y026670*
X015931Y026595*
X015981Y026531*
X016012Y026507*
Y026443*
X015981Y026419*
X015931Y026355*
X015900Y026280*
X015890Y026200*
X015897Y026145*
X015861Y026095*
X015483*
X015253Y026325*
Y027550*
Y028819*
X015242Y028898*
X015212Y028971*
X015164Y029033*
X015049Y029149*
X014986Y029197*
X014913Y029227*
X014835Y029237*
X014647*
Y029301*
X013953*
Y029237*
X013685*
X013606Y029227*
X013533Y029197*
X013471Y029149*
X013419Y029097*
X013400Y029099*
X013284Y029084*
X013203Y029050*
X013153Y029081*
Y034920*
X013450*
Y035276*
X013550*
Y034920*
X013895*
X013905*
X014250*
Y035276*
X014300*
Y035326*
X014695*
Y035618*
X014745*
Y035721*
X015324*
X015402Y035732*
X015475Y035762*
X015522Y035797*
X015621*
X015632Y035782*
G37*
G36*
X035968Y012604D02*
X035296D01*
X035272Y012654*
X035286Y012673*
X035316Y012746*
X035327Y012824*
Y014405*
X035430*
Y015295*
X035327*
Y015376*
X035316Y015454*
X035286Y015527*
X035245Y015580*
Y016294*
X035253Y016350*
Y016405*
X035330*
Y017295*
X034518*
Y017245*
X034226*
Y016850*
Y016455*
X034518*
Y016405*
X034522*
X034545Y016360*
X034538Y016351*
X034515Y016295*
X034355*
Y015405*
X034572*
X034586Y015386*
X034635Y015337*
X034618Y015295*
Y015245*
X034326*
Y014850*
Y014455*
X034618*
Y014405*
X034721*
Y013003*
X027553*
Y014100*
X027542Y014178*
X027512Y014251*
X027464Y014314*
X027231Y014547*
X027251Y014597*
X027650*
X027728Y014608*
X027801Y014638*
X027864Y014686*
X027901Y014723*
X027955*
Y014620*
X028845*
X029645*
Y015432*
X029595*
Y015724*
X029200*
Y015824*
X029595*
Y016096*
X030266*
X030375Y015987*
X030366Y015966*
X030351Y015850*
X030366Y015734*
X030411Y015625*
X030482Y015532*
X030575Y015461*
X030684Y015416*
X030800Y015401*
X030916Y015416*
X031025Y015461*
X031118Y015532*
X031189Y015625*
X031234Y015734*
X031249Y015850*
X031234Y015966*
X031189Y016075*
X031118Y016168*
X031025Y016239*
X030916Y016284*
X030823Y016296*
X030826Y016346*
X031016*
X031375Y015987*
X031366Y015966*
X031351Y015850*
X031366Y015734*
X031411Y015625*
X031482Y015532*
X031575Y015461*
X031684Y015416*
X031800Y015401*
X031916Y015416*
X032025Y015461*
X032118Y015532*
X032189Y015625*
X032234Y015734*
X032249Y015850*
X032234Y015966*
X032189Y016075*
X032118Y016168*
X032025Y016239*
X031916Y016284*
X031800Y016299*
X031684Y016284*
X031663Y016275*
X031388Y016550*
X031408Y016596*
X031766*
X032375Y015987*
X032366Y015966*
X032351Y015850*
X032366Y015734*
X032411Y015625*
X032482Y015532*
X032575Y015461*
X032684Y015416*
X032800Y015401*
X032916Y015416*
X033025Y015461*
X033118Y015532*
X033189Y015625*
X033234Y015734*
X033249Y015850*
X033234Y015966*
X033189Y016075*
X033118Y016168*
X033025Y016239*
X032916Y016284*
X032800Y016299*
X032684Y016284*
X032663Y016275*
X031994Y016944*
X031928Y016988*
X031850Y017004*
X029034*
X028604Y017434*
Y026703*
X028654Y026720*
X028682Y026682*
X028775Y026611*
X028884Y026566*
X029000Y026551*
X029116Y026566*
X029225Y026611*
X029318Y026682*
X029389Y026775*
X029434Y026884*
X029449Y027000*
X029434Y027116*
X029389Y027225*
X029318Y027318*
X029225Y027389*
X029116Y027434*
X029000Y027449*
X028884Y027434*
X028775Y027389*
X028682Y027318*
X028654Y027280*
X028604Y027297*
Y027400*
X028588Y027478*
X028544Y027544*
X028364Y027724*
X028367Y027779*
X028369Y027781*
X028419Y027845*
X028450Y027920*
X028460Y028000*
X028450Y028080*
X028442Y028099*
X028484Y028127*
X028558Y028054*
X028551Y028000*
X028566Y027884*
X028611Y027775*
X028682Y027682*
X028775Y027611*
X028884Y027566*
X029000Y027551*
X029116Y027566*
X029225Y027611*
X029318Y027682*
X029389Y027775*
X029434Y027884*
X029449Y028000*
X029434Y028116*
X029391Y028220*
X029392Y028230*
X029415Y028273*
X029436Y028276*
X029575Y028137*
X029566Y028116*
X029551Y028000*
X029566Y027884*
X029611Y027775*
X029682Y027682*
X029775Y027611*
X029884Y027566*
X030000Y027551*
X030116Y027566*
X030225Y027611*
X030318Y027682*
X030389Y027775*
X030434Y027884*
X030449Y028000*
X030434Y028116*
X030389Y028225*
X030318Y028318*
X030225Y028389*
X030116Y028434*
X030000Y028449*
X029884Y028434*
X029863Y028425*
X029644Y028644*
X029578Y028688*
X029500Y028704*
X029391*
X029368Y028749*
X029389Y028775*
X029434Y028884*
X029449Y029000*
X029434Y029116*
X029389Y029225*
X029318Y029318*
X029225Y029389*
X029116Y029434*
X029000Y029449*
X028884Y029434*
X028775Y029389*
X028682Y029318*
X028611Y029225*
X028566Y029116*
X028552Y029007*
X028508Y028980*
X028202Y029287*
X028136Y029331*
X028057Y029346*
X027253*
X027250Y029396*
X027280Y029400*
X027355Y029431*
X027419Y029481*
X027469Y029545*
X027500Y029620*
X027510Y029700*
X027500Y029780*
X027471Y029849*
X027490Y029899*
X027795*
X027803*
X028050*
Y030215*
X028100*
Y030265*
X028397*
Y030518*
X028447*
Y030584*
X028505Y030591*
X028533Y030579*
X028555Y030565*
Y030555*
X029445*
Y030817*
X029520Y030892*
X029571Y030872*
X029611Y030775*
X029682Y030682*
X029775Y030611*
X029884Y030566*
X030000Y030551*
X030116Y030566*
X030225Y030611*
X030318Y030682*
X030389Y030775*
X030434Y030884*
X030449Y031000*
X030434Y031116*
X030425Y031137*
X030469Y031181*
X030553*
Y031018*
X030603*
Y030765*
X030900*
Y030715*
X030950*
Y030399*
X031197*
X031203Y030351*
Y030232*
X031153*
Y029499*
X031847*
Y029563*
X031947*
Y029404*
X030870*
Y028396*
X031246*
Y028084*
X031106Y027944*
X031062Y027878*
X031046Y027800*
Y027648*
X031025Y027639*
X030932Y027568*
X030861Y027475*
X030816Y027366*
X030801Y027250*
X030816Y027134*
X030861Y027025*
X030932Y026932*
X031025Y026861*
X031134Y026816*
X031250Y026801*
X031366Y026816*
X031475Y026861*
X031568Y026932*
X031639Y027025*
X031684Y027134*
X031699Y027250*
X031684Y027366*
X031639Y027475*
X031568Y027568*
X031475Y027639*
X031454Y027648*
Y027716*
X031594Y027856*
X031638Y027922*
X031654Y028000*
Y028396*
X032115*
Y028991*
X032162Y029011*
X032485Y028687*
Y028396*
X032776*
X032782Y028348*
Y026552*
X033810*
Y028348*
X033735*
X033730Y028396*
Y028593*
X033902*
Y028382*
X035698*
Y029410*
X033902*
Y029199*
X033730*
Y029404*
X032624*
X032553Y029475*
Y029791*
X032678*
Y030255*
X032724Y030274*
X032822Y030176*
X032939*
X032953Y030155*
X032960Y030126*
X032925Y030080*
X032899Y030017*
X032897Y030000*
X033403*
X033401Y030017*
X033375Y030080*
X033340Y030126*
X033347Y030155*
X033361Y030176*
X033808*
X034045Y030413*
Y030440*
X034750*
Y030904*
Y031368*
X033952*
Y031045*
X033906Y031026*
X033808Y031124*
X033361*
X033347Y031145*
X033340Y031174*
X033375Y031220*
X033401Y031283*
X033403Y031300*
X032897*
X032899Y031283*
X032925Y031220*
X032960Y031174*
X032953Y031145*
X032939Y031124*
X032822*
X032724Y031026*
X032678Y031045*
Y031509*
X032553*
Y032000*
X032542Y032078*
X032512Y032151*
X032487Y032184*
Y032297*
X032732*
Y031702*
X033760*
Y033498*
X032732*
Y032903*
X032551*
Y033097*
X031816*
X031808Y033163*
X031777Y033236*
X031775Y033238*
X031769Y033255*
X031719Y033319*
X031655Y033369*
X031580Y033400*
X031500Y033410*
X031420Y033400*
X031345Y033369*
X031281Y033319*
X031231Y033255*
X031200Y033180*
X031190Y033100*
X031187Y033097*
X031149*
Y033053*
X031042*
X031009Y033090*
X031010Y033100*
X031000Y033180*
X030969Y033255*
X030919Y033319*
X030855Y033369*
X030780Y033400*
X030700Y033410*
X030620Y033400*
X030545Y033369*
X030481Y033319*
X030446Y033273*
X029125Y031953*
X028457*
X028400Y031960*
X028320Y031950*
X028245Y031919*
X028181Y031869*
X028146Y031823*
X028125Y031803*
X027550*
X027472Y031792*
X027399Y031762*
X027336Y031714*
X027186Y031564*
X027138Y031501*
X027108Y031428*
X027105Y031409*
X026955*
Y031287*
X026901Y031265*
X026884Y031251*
X026353*
Y031037*
X026340Y031029*
X025800Y030489*
X025756Y030423*
X025741Y030346*
X025694*
X025649Y030349*
X025646Y030394*
Y030898*
X025844Y031096*
X026000*
X026078Y031112*
X026144Y031156*
X026345Y031356*
X026405Y031381*
X026469Y031431*
X026519Y031495*
X026550Y031570*
X026560Y031650*
X026550Y031730*
X026519Y031805*
X026469Y031869*
X026405Y031919*
X026330Y031950*
X026250Y031960*
X026170Y031950*
X026095Y031919*
X026031Y031869*
X026019*
X025955Y031919*
X025880Y031950*
X025800Y031960*
X025720Y031950*
X025645Y031919*
X025587Y031874*
X025584Y031877*
X025520Y031926*
X025445Y031957*
X025365Y031968*
X025285Y031957*
X025210Y031926*
X025153Y031882*
X025105Y031919*
X025071Y031932*
X025060Y031991*
X025164Y032096*
X027303*
Y031949*
X027997*
Y032158*
X028287*
Y032376*
Y032594*
X027997*
Y032819*
X028029Y032840*
X028044Y032856*
X028743*
X028757Y032812*
Y032482*
X029569*
Y033018*
X029369*
Y033553*
X029532*
Y033603*
X029785*
Y033900*
Y034197*
X029532*
Y034247*
X029367*
Y034358*
X029569*
Y034448*
X029620Y034482*
X029794Y034656*
X029838Y034722*
X029854Y034800*
Y035800*
X029838Y035878*
X029794Y035944*
X029462Y036277*
X029445Y036320*
Y036433*
X029454Y036434*
X029491Y036449*
X030147*
X030197Y036456*
X030243Y036436*
X030321Y036426*
X030378*
Y036353*
X030100*
X030041Y036341*
X029992Y036308*
X029959Y036259*
X029947Y036200*
Y034450*
X029959Y034391*
X029992Y034342*
X030041Y034309*
X030100Y034297*
X030347*
Y033750*
X030359Y033691*
X030392Y033642*
X030441Y033609*
X030500Y033597*
X035200*
X035259Y033609*
X035308Y033642*
X035341Y033691*
X035353Y033750*
Y034308*
X035359Y034309*
X035408Y034342*
X035441Y034391*
X035453Y034450*
Y036200*
X035441Y036259*
X035434Y036270*
X035445Y036320*
Y037132*
X035395*
Y037424*
X035000*
Y037524*
X035395*
Y037787*
X035968*
Y012604*
G37*
G36*
X031550Y031099D02*
X031797D01*
X031826Y031061*
Y030972*
X032605*
X032624Y030926*
X032585Y030887*
Y030868*
X032381*
Y030650*
Y030432*
X032585*
Y030413*
X032624Y030374*
X032605Y030328*
X031826*
X031797Y030365*
Y030485*
X031500*
Y030535*
X031450*
Y030851*
X031203*
X031197Y030899*
Y031018*
X031247*
Y031099*
X031450*
Y031415*
X031550*
Y031099*
G37*
G36*
X024957Y030152D02*
X025039Y030136D01*
X025121Y030152*
X025137Y030164*
X025154Y030152*
X025236Y030136*
X025317Y030152*
X025334Y030164*
X025351Y030152*
X025388Y030145*
X025433Y030133*
X025445Y030088*
X025451Y030059*
X025433Y030037*
X025413Y030021*
X025369Y030039*
X025289Y030049*
X025209Y030039*
X025134Y030008*
X025070Y029958*
X025020Y029894*
X024989Y029819*
X024979Y029739*
X024989Y029659*
X025020Y029584*
X025070Y029520*
X025134Y029470*
X025209Y029439*
X025289Y029429*
X025369Y029439*
X025403Y029453*
X025415Y029455*
X025433Y029441*
X025451Y029419*
X025436Y029345*
X025452Y029264*
X025464Y029247*
X025452Y029230*
X025436Y029148*
X025452Y029067*
X025464Y029050*
X025452Y029033*
X025436Y028952*
X025452Y028870*
X025464Y028853*
X025452Y028836*
X025436Y028755*
X025452Y028673*
X025464Y028656*
X025452Y028639*
X025436Y028558*
X025452Y028476*
X025464Y028459*
X025452Y028443*
X025436Y028361*
X025452Y028279*
X025464Y028263*
X025452Y028246*
X025436Y028164*
X025452Y028083*
X025464Y028066*
X025452Y028049*
X025445Y028012*
X025433Y027967*
X025388Y027955*
X025351Y027948*
X025334Y027936*
X025317Y027948*
X025236Y027964*
X025154Y027948*
X025137Y027936*
X025121Y027948*
X025039Y027964*
X024957Y027948*
X024941Y027936*
X024924Y027948*
X024842Y027964*
X024761Y027948*
X024694Y027903*
X024645Y027913*
X024597Y027903*
X024530Y027948*
X024448Y027964*
X024367Y027948*
X024350Y027936*
X024333Y027948*
X024252Y027964*
X024170Y027948*
X024153Y027936*
X024136Y027948*
X024055Y027964*
X023973Y027948*
X023956Y027936*
X023939Y027948*
X023858Y027964*
X023776Y027948*
X023759Y027936*
X023743Y027948*
X023661Y027964*
X023579Y027948*
X023563Y027936*
X023546Y027948*
X023464Y027964*
X023383Y027948*
X023366Y027936*
X023349Y027948*
X023312Y027955*
X023267Y027967*
X023255Y028012*
X023248Y028049*
X023203Y028115*
X023213Y028164*
X023203Y028213*
X023248Y028279*
X023264Y028361*
X023261Y028377*
X023299Y028409*
X023320Y028400*
X023400Y028390*
X023480Y028400*
X023504Y028410*
X023531Y028345*
X023581Y028281*
X023645Y028231*
X023720Y028200*
X023800Y028190*
X023880Y028200*
X023955Y028231*
X024019Y028281*
X024069Y028345*
X024096Y028410*
X024120Y028400*
X024200Y028390*
X024280Y028400*
X024355Y028431*
X024419Y028481*
X024469Y028545*
X024500Y028620*
X024510Y028700*
X024500Y028780*
X024469Y028855*
X024419Y028919*
X024355Y028969*
X024280Y029000*
X024254Y029003*
Y029394*
X024238Y029472*
X024194Y029538*
X023639Y030093*
X023666Y030137*
X023743Y030152*
X023759Y030164*
X023776Y030152*
X023858Y030136*
X023939Y030152*
X023956Y030164*
X023973Y030152*
X024055Y030136*
X024136Y030152*
X024153Y030164*
X024170Y030152*
X024252Y030136*
X024333Y030152*
X024350Y030164*
X024367Y030152*
X024448Y030136*
X024530Y030152*
X024547Y030164*
X024564Y030152*
X024645Y030136*
X024727Y030152*
X024744Y030164*
X024761Y030152*
X024842Y030136*
X024924Y030152*
X024941Y030164*
X024957Y030152*
G37*
G36*
X021886Y031336D02*
X021949Y031288D01*
X022022Y031258*
X022100Y031247*
X022199*
Y031203*
X022361*
Y031185*
X022377Y031107*
X022421Y031040*
X022956Y030506*
X023022Y030462*
X023054Y030455*
Y030394*
X023051Y030349*
X023006Y030346*
X022460*
X022379Y030330*
X022310Y030283*
X022263Y030214*
X022247Y030133*
X022263Y030051*
X022275Y030034*
X022263Y030017*
X022247Y029936*
X022263Y029854*
X022228Y029816*
X022214Y029811*
X022205Y029819*
X022130Y029850*
X022050Y029860*
X021970Y029850*
X021895Y029819*
X021831Y029769*
X021807Y029738*
X021743*
X021719Y029769*
X021655Y029819*
X021580Y029850*
X021500Y029860*
X021420Y029850*
X021345Y029819*
X021281Y029769*
X021231Y029705*
X021200Y029630*
X021192Y029567*
X021143Y029545*
X021044Y029644*
X020978Y029688*
X020900Y029704*
X018151*
Y029847*
X017418*
Y031190*
X017725Y031497*
X021725*
X021886Y031336*
G37*
G36*
X017447Y028132D02*
X017478Y028059D01*
X017526Y027996*
X018136Y027386*
X018199Y027338*
X018206Y027335*
X018201Y027283*
X018165Y027276*
X018093Y027227*
X018045Y027155*
X018028Y027070*
Y026805*
X018250*
X018472*
Y027070*
X018455Y027155*
X018407Y027227*
X018377Y027247*
X018392Y027297*
X018608*
X018623Y027247*
X018593Y027227*
X018545Y027155*
X018528Y027070*
Y026805*
X018750*
Y026755*
X018800*
Y026228*
X018835Y026235*
X018907Y026283*
X018946Y026342*
X018994Y026343*
X019001Y026340*
X019016Y026305*
X019059Y026249*
X019115Y026206*
X019180Y026179*
X019250Y026170*
X019320Y026179*
X019385Y026206*
X019441Y026249*
X019484Y026305*
X019499Y026340*
X019549Y026330*
Y026303*
X019612*
X019634Y026258*
X019631Y026255*
X019600Y026180*
X019590Y026100*
X019600Y026020*
X019631Y025945*
X019681Y025881*
X019745Y025831*
X019820Y025800*
X019900Y025790*
X019980Y025800*
X020055Y025831*
X020119Y025881*
X020169Y025945*
X020200Y026020*
X020210Y026100*
X020200Y026180*
X020169Y026255*
X020166Y026258*
X020188Y026303*
X020282*
Y026353*
X020535*
Y026650*
X020585*
Y026700*
X020901*
Y026891*
X020951Y026919*
X020953Y026917*
Y026715*
X021250*
X021547*
Y026968*
X021597*
X021599Y026919*
Y026303*
X022431*
Y026126*
X022393Y026093*
X022350Y026099*
X022234Y026084*
X022125Y026039*
X022032Y025968*
X021961Y025875*
X021916Y025766*
X021901Y025650*
X021916Y025534*
X021961Y025425*
X022032Y025332*
X022125Y025261*
X022143Y025254*
X022133Y025204*
X020000*
X019922Y025188*
X019856Y025144*
X018806Y024094*
X018762Y024028*
X018746Y023950*
Y018650*
X018762Y018572*
X018806Y018506*
X019148Y018164*
X019136Y018114*
X015810*
X015732Y018098*
X015666Y018054*
X014652Y017040*
X014601Y017060*
X014588Y017158*
X014543Y017267*
X014471Y017361*
X014377Y017434*
X014354Y017443*
Y017999*
X014497*
Y018668*
Y019401*
X013803*
Y019337*
X013747*
Y019401*
X013153*
Y019599*
X013747*
Y020268*
Y021001*
X013703*
Y021205*
X013845*
Y022095*
X013153*
Y022219*
X013203Y022250*
X013284Y022216*
X013400Y022201*
X013516Y022216*
X013625Y022261*
X013718Y022332*
X013789Y022425*
X013834Y022534*
X013849Y022650*
X013834Y022766*
X013789Y022875*
X013718Y022968*
X013625Y023039*
X013516Y023084*
X013400Y023099*
X013284Y023084*
X013203Y023050*
X013153Y023081*
Y023219*
X013203Y023250*
X013284Y023216*
X013400Y023201*
X013516Y023216*
X013625Y023261*
X013718Y023332*
X013789Y023425*
X013834Y023534*
X013849Y023650*
X013834Y023766*
X013789Y023875*
X013718Y023968*
X013625Y024039*
X013516Y024084*
X013400Y024099*
X013284Y024084*
X013203Y024050*
X013153Y024081*
Y024219*
X013203Y024250*
X013284Y024216*
X013400Y024201*
X013516Y024216*
X013625Y024261*
X013718Y024332*
X013789Y024425*
X013834Y024534*
X013849Y024650*
X013834Y024766*
X013789Y024875*
X013718Y024968*
X013625Y025039*
X013516Y025084*
X013400Y025099*
X013284Y025084*
X013203Y025050*
X013153Y025081*
Y025219*
X013203Y025250*
X013284Y025216*
X013400Y025201*
X013516Y025216*
X013625Y025261*
X013718Y025332*
X013789Y025425*
X013834Y025534*
X013849Y025650*
X013834Y025766*
X013789Y025875*
X013718Y025968*
X013625Y026039*
X013516Y026084*
X013400Y026099*
X013284Y026084*
X013203Y026050*
X013153Y026081*
Y026285*
X013197Y026307*
X013201Y026305*
X013297Y026265*
X013350Y026258*
Y026650*
Y027042*
X013297Y027035*
X013201Y026995*
X013197Y026993*
X013153Y027015*
Y027219*
X013203Y027250*
X013284Y027216*
X013400Y027201*
X013516Y027216*
X013625Y027261*
X013718Y027332*
X013789Y027425*
X013834Y027534*
X013849Y027650*
X013834Y027766*
X013825Y027787*
X013913Y027875*
X013953Y027899*
X014598*
X014621Y027849*
X014605Y027830*
X013955*
Y027018*
X014005*
Y026726*
X014400*
Y026676*
X014450*
Y026320*
X014647*
Y026200*
X014658Y026122*
X014688Y026049*
X014736Y025986*
X015144Y025579*
X015206Y025530*
X015279Y025500*
X015357Y025490*
X017143*
X017221Y025500*
X017294Y025530*
X017356Y025579*
X017544Y025766*
X017592Y025829*
X017622Y025902*
X017633Y025980*
Y026201*
X017683Y026231*
X017700Y026228*
Y026755*
Y027283*
X017665Y027276*
X017603Y027294*
X017592Y027321*
X017544Y027384*
X017325Y027603*
X017344Y027649*
X017397*
Y027915*
X017100*
Y028015*
X017397*
Y028133*
X017447Y028137*
Y028132*
G37*
G36*
X023457Y026703D02*
Y025445D01*
X022716Y024704*
X020450*
X020372Y024688*
X020306Y024644*
X019542Y023881*
X019498Y023815*
X019483Y023737*
Y023630*
X019411Y023575*
X019349Y023495*
X019310Y023401*
X019297Y023300*
X019310Y023199*
X019349Y023105*
X019411Y023025*
X019492Y022963*
X019496Y022961*
Y022701*
X019353*
Y021968*
X019403*
Y021715*
X019997*
Y021968*
X020047*
Y022701*
X019904*
Y022980*
X019962Y023025*
X020024Y023105*
X020063Y023199*
X020075Y023289*
X020125*
X020137Y023199*
X020176Y023105*
X020238Y023025*
X020296Y022980*
Y022701*
X020153*
Y021968*
X020203*
Y021715*
X020797*
Y021968*
X020847*
Y022701*
X020704*
Y022961*
X020708Y022963*
X020789Y023025*
X020851Y023105*
X020890Y023199*
X020903Y023300*
X020890Y023401*
X020851Y023495*
X020789Y023575*
X020717Y023630*
Y023779*
X021034Y024096*
X022855*
X022933Y024112*
X022999Y024156*
X023805Y024962*
X023851Y024943*
Y024239*
X023455Y023844*
X021097*
Y022756*
X022061*
Y021993*
X021899*
Y021299*
X022632*
Y021349*
X022885*
Y021646*
Y021943*
X022632*
Y021993*
X022469*
Y022756*
X023563*
Y023374*
X024150Y023962*
X024837Y023274*
Y022756*
X025881*
Y021993*
X025718*
Y021943*
X025465*
Y021646*
Y021349*
X025718*
Y021299*
X026451*
Y021993*
X026289*
Y022756*
X027303*
Y023844*
X024845*
X024455Y024233*
Y025553*
X025182*
Y025603*
X025435*
Y025900*
X025535*
Y025603*
X025801*
X025803Y025599*
X025865*
X025890Y025549*
X025875Y025530*
X025849Y025467*
X025847Y025450*
X026353*
X026351Y025467*
X026325Y025530*
X026310Y025549*
X026335Y025599*
X026397*
X026403*
X026650*
Y025915*
X026750*
Y025599*
X026953*
Y025549*
X026997*
Y025457*
X026990Y025400*
X027000Y025320*
X027031Y025245*
X027081Y025181*
X027145Y025131*
X027220Y025100*
X027300Y025090*
X027380Y025100*
X027410Y025113*
X027452Y025085*
Y018140*
X027426Y018114*
X026053*
X026026Y018164*
X026050Y018220*
X026060Y018300*
X026050Y018380*
X026019Y018455*
X025969Y018519*
X025905Y018569*
X025830Y018600*
X025750Y018610*
X025670Y018600*
X025595Y018569*
X025531Y018519*
X025519Y018504*
X019384*
X019154Y018734*
Y023866*
X020084Y024796*
X022600*
X022678Y024812*
X022744Y024856*
X023244Y025356*
X023288Y025422*
X023304Y025500*
Y026616*
X023411Y026723*
X023457Y026703*
G37*
G36*
X025460Y017255D02*
X025450Y017230D01*
X025440Y017150*
X025450Y017070*
X025481Y016995*
X025531Y016931*
X025595Y016881*
X025670Y016850*
X025750Y016840*
X025830Y016850*
X025905Y016881*
X025969Y016931*
X025981Y016946*
X027766*
X028532Y016180*
X028511Y016130*
X028450*
Y015774*
X028400*
Y015724*
X028005*
Y015432*
X027955*
Y015329*
X027776*
X027698Y015318*
X027625Y015288*
X027562Y015240*
X027525Y015203*
X027229*
X027218Y015218*
X027125Y015289*
X027016Y015334*
X026900Y015349*
X026784Y015334*
X026675Y015289*
X026649Y015268*
X026604Y015291*
Y015400*
X026593Y015455*
X026626Y015505*
X026850*
Y015850*
X026505*
Y015649*
X026459Y015630*
X026325Y015763*
X026334Y015784*
X026349Y015900*
X026334Y016016*
X026289Y016125*
X026218Y016218*
X026125Y016289*
X026016Y016334*
X025900Y016349*
X025784Y016334*
X025675Y016289*
X025582Y016218*
X025511Y016125*
X025466Y016016*
X025451Y015900*
X025466Y015784*
X025511Y015675*
X025582Y015582*
X025675Y015511*
X025784Y015466*
X025900Y015451*
X026016Y015466*
X026037Y015475*
X026176Y015336*
X026173Y015315*
X026130Y015292*
X026120Y015291*
X026016Y015334*
X025900Y015349*
X025784Y015334*
X025675Y015289*
X025582Y015218*
X025511Y015125*
X025466Y015016*
X025451Y014900*
X025466Y014784*
X025511Y014675*
X025582Y014582*
X025675Y014511*
X025696Y014503*
Y014251*
X025553*
Y013518*
Y013003*
X024247*
Y013518*
Y014251*
X024104*
Y014503*
X024125Y014511*
X024218Y014582*
X024289Y014675*
X024334Y014784*
X024349Y014900*
X024334Y015016*
X024289Y015125*
X024218Y015218*
X024125Y015289*
X024016Y015334*
X023900Y015349*
X023784Y015334*
X023675Y015289*
X023582Y015218*
X023511Y015125*
X023466Y015016*
X023451Y014900*
X023466Y014784*
X023511Y014675*
X023582Y014582*
X023675Y014511*
X023696Y014503*
Y014251*
X023553*
Y013518*
Y013003*
X021901*
Y013547*
X021919Y013558*
Y014094*
X021143*
X021107*
X021093Y014138*
Y014468*
X020904*
Y014852*
X020958*
Y015685*
Y015687*
Y015693*
X020975Y015703*
X020984Y015709*
X021008Y015715*
X021064Y015673*
X021137Y015642*
X021153Y015640*
Y015568*
X021203*
Y015315*
X021500*
X021797*
Y015568*
X021847*
Y016301*
X021277*
X021151Y016427*
X021089Y016475*
X021016Y016505*
X020958Y016512*
Y016648*
X020442*
Y016515*
X016963*
X016884Y016505*
X016811Y016475*
X016749Y016427*
X015961Y015639*
X015913Y015576*
X015883Y015504*
X015873Y015425*
Y015235*
X015854Y015221*
X015782Y015127*
X015737Y015017*
X015721Y014900*
X015737Y014783*
X015782Y014673*
X015854Y014579*
X015948Y014507*
X016058Y014462*
X016175Y014446*
X016293Y014462*
X016402Y014507*
X016496Y014579*
X016568Y014673*
X016614Y014783*
X016629Y014900*
X016614Y015017*
X016568Y015127*
X016496Y015221*
X016478Y015235*
Y015300*
X017088Y015910*
X020442*
Y015777*
X020897*
X020900Y015773*
X020873Y015723*
X020442*
Y015504*
X020300*
X020222Y015488*
X020156Y015444*
X019816Y015104*
X019727*
X019718Y015127*
X019646Y015221*
X019552Y015293*
X019442Y015338*
X019325Y015354*
X019207Y015338*
X019098Y015293*
X019004Y015221*
X018932Y015127*
X018886Y015017*
X018871Y014900*
X018886Y014783*
X018932Y014673*
X019004Y014579*
X019098Y014507*
X019207Y014462*
X019325Y014446*
X019442Y014462*
X019552Y014507*
X019646Y014579*
X019718Y014673*
X019727Y014696*
X019900*
X019978Y014712*
X020044Y014756*
X020384Y015096*
X020442*
Y014852*
X020496*
Y014468*
X020281*
Y013932*
X021057*
X021093*
X021107Y013888*
Y013558*
X021062Y013547*
X020499*
Y013404*
X015634*
X014544Y014494*
X014478Y014538*
X014454Y014543*
X014441Y014597*
X014471Y014620*
X014543Y014714*
X014588Y014823*
X014604Y014941*
X014588Y015058*
X014579Y015081*
X016794Y017296*
X025433*
X025460Y017255*
G37*
%LNde-300617-2*%
%LPC*%
G36*
X026278Y037220D02*
X025837D01*
Y036779*
X025916Y036789*
X026036Y036839*
X026139Y036918*
X026218Y037021*
X026268Y037141*
X026278Y037220*
G37*
G36*
X023404D02*
X022963D01*
Y036779*
X023042Y036789*
X023162Y036839*
X023265Y036918*
X023344Y037021*
X023394Y037141*
X023404Y037220*
G37*
G36*
X025737D02*
X025296D01*
X025306Y037141*
X025356Y037021*
X025435Y036918*
X025538Y036839*
X025658Y036789*
X025737Y036779*
Y037220*
G37*
G36*
X022863D02*
X022422D01*
X022432Y037141*
X022482Y037021*
X022561Y036918*
X022664Y036839*
X022784Y036789*
X022863Y036779*
Y037220*
G37*
G36*
X022963Y035891D02*
Y035450D01*
X023404*
X023394Y035529*
X023344Y035649*
X023265Y035752*
X023162Y035831*
X023042Y035881*
X022963Y035891*
G37*
G36*
X022863D02*
X022784Y035881D01*
X022664Y035831*
X022561Y035752*
X022482Y035649*
X022432Y035529*
X022422Y035450*
X022863*
Y035891*
G37*
G36*
X022247Y035615D02*
X022000D01*
Y035349*
X022247*
Y035615*
G37*
G36*
X021900D02*
X021653D01*
Y035349*
X021900*
Y035615*
G37*
G36*
X023404Y035350D02*
X022963D01*
Y034909*
X023042Y034919*
X023162Y034969*
X023265Y035048*
X023344Y035151*
X023394Y035271*
X023404Y035350*
G37*
G36*
X022863D02*
X022422D01*
X022432Y035271*
X022482Y035151*
X022561Y035048*
X022664Y034969*
X022784Y034919*
X022863Y034909*
Y035350*
G37*
G36*
X023670Y034878D02*
X023427D01*
X023431Y034850*
X023461Y034778*
X023508Y034716*
X023570Y034668*
X023643Y034638*
X023670Y034635*
Y034878*
G37*
G36*
X023700Y034401D02*
X023453D01*
Y034135*
X023700*
Y034401*
G37*
G36*
X023292Y034319D02*
X023124D01*
Y034013*
X023292*
Y034319*
G37*
G36*
X023024D02*
X022856D01*
Y034013*
X023024*
Y034319*
G37*
G36*
X022544D02*
X022376D01*
Y034013*
X022544*
Y034319*
G37*
G36*
X022276D02*
X022108D01*
Y034013*
X022276*
Y034319*
G37*
G36*
X023024Y033913D02*
X022856D01*
Y033607*
X023024*
Y033913*
G37*
G36*
X022544D02*
X022376D01*
Y033607*
X022544*
Y033913*
G37*
G36*
X022276D02*
X022108D01*
Y033607*
X022276*
Y033913*
G37*
G36*
X017850Y032703D02*
Y032500D01*
X018053*
X018051Y032517*
X018025Y032580*
X017984Y032634*
X017930Y032675*
X017867Y032701*
X017850Y032703*
G37*
G36*
X017750D02*
X017733Y032701D01*
X017670Y032675*
X017616Y032634*
X017575Y032580*
X017549Y032517*
X017547Y032500*
X017750*
Y032703*
G37*
G36*
X018053Y032400D02*
X017850D01*
Y032197*
X017867Y032199*
X017930Y032225*
X017984Y032266*
X018025Y032320*
X018051Y032383*
X018053Y032400*
G37*
G36*
X017750D02*
X017547D01*
X017549Y032383*
X017575Y032320*
X017616Y032266*
X017670Y032225*
X017733Y032199*
X017750Y032197*
Y032400*
G37*
G36*
X032872Y037134D02*
X032606D01*
Y036779*
X032872*
Y037134*
G37*
G36*
X032506D02*
X032239D01*
Y036779*
X032506*
Y037134*
G37*
G36*
X026278Y035350D02*
X025837D01*
Y034909*
X025916Y034919*
X026036Y034969*
X026139Y035048*
X026218Y035151*
X026268Y035271*
X026278Y035350*
G37*
G36*
X025737D02*
X025296D01*
X025306Y035271*
X025356Y035151*
X025435Y035048*
X025538Y034969*
X025658Y034919*
X025737Y034909*
Y035350*
G37*
G36*
X025847Y034401D02*
X025600D01*
Y034135*
X025847*
Y034401*
G37*
G36*
X026924Y034319D02*
X026756D01*
Y034013*
X026924*
Y034319*
G37*
G36*
X016000Y035492D02*
Y035150D01*
X016342*
X016335Y035203*
X016295Y035299*
X016232Y035382*
X016149Y035445*
X016053Y035485*
X016000Y035492*
G37*
G36*
X015900D02*
X015847Y035485D01*
X015751Y035445*
X015668Y035382*
X015605Y035299*
X015565Y035203*
X015558Y035150*
X015900*
Y035492*
G37*
G36*
X014695Y035226D02*
X014350D01*
Y034920*
X014695*
Y035226*
G37*
G36*
X016342Y035050D02*
X016000D01*
Y034708*
X016053Y034715*
X016149Y034755*
X016232Y034818*
X016295Y034901*
X016335Y034997*
X016342Y035050*
G37*
G36*
X015900D02*
X015558D01*
X015565Y034997*
X015605Y034901*
X015668Y034818*
X015751Y034755*
X015847Y034715*
X015900Y034708*
Y035050*
G37*
G36*
X014350Y033206D02*
X014193Y033190D01*
X014042Y033145*
X013902Y033070*
X013780Y032970*
X013680Y032848*
X013605Y032708*
X013560Y032557*
X013544Y032400*
X013560Y032243*
X013605Y032092*
X013680Y031952*
X013780Y031830*
X013902Y031730*
X014042Y031655*
X014193Y031610*
X014350Y031594*
X014507Y031610*
X014658Y031655*
X014798Y031730*
X014920Y031830*
X015020Y031952*
X015095Y032092*
X015140Y032243*
X015156Y032400*
X015140Y032557*
X015095Y032708*
X015020Y032848*
X014920Y032970*
X014798Y033070*
X014658Y033145*
X014507Y033190*
X014350Y033206*
G37*
G36*
X030151Y034197D02*
X029885D01*
Y033950*
X030151*
Y034197*
G37*
G36*
Y033850D02*
X029885D01*
Y033603*
X030151*
Y033850*
G37*
G36*
X035718Y033448D02*
X035304D01*
Y032650*
X035718*
Y033448*
G37*
G36*
X035204D02*
X034790D01*
Y032650*
X035204*
Y033448*
G37*
G36*
X028693Y032594D02*
X028387D01*
Y032426*
X028693*
Y032594*
G37*
G36*
Y032326D02*
X028387D01*
Y032158*
X028693*
Y032326*
G37*
G36*
X035718Y032550D02*
X035304D01*
Y031752*
X035718*
Y032550*
G37*
G36*
X035204D02*
X034790D01*
Y031752*
X035204*
Y032550*
G37*
G36*
X033200Y031603D02*
Y031400D01*
X033403*
X033401Y031417*
X033375Y031480*
X033334Y031534*
X033280Y031575*
X033217Y031601*
X033200Y031603*
G37*
G36*
X033100D02*
X033083Y031601D01*
X033020Y031575*
X032966Y031534*
X032925Y031480*
X032899Y031417*
X032897Y031400*
X033100*
Y031603*
G37*
G36*
X035648Y031368D02*
X034850D01*
Y030954*
X035648*
Y031368*
G37*
G36*
Y030854D02*
X034850D01*
Y030440*
X035648*
Y030854*
G37*
G36*
X030850Y030665D02*
X030603D01*
Y030399*
X030850*
Y030665*
G37*
G36*
X028397Y030165D02*
X028150D01*
Y029899*
X028397*
Y030165*
G37*
G36*
X033403Y029900D02*
X033200D01*
Y029697*
X033217Y029699*
X033280Y029725*
X033334Y029766*
X033375Y029820*
X033401Y029883*
X033403Y029900*
G37*
G36*
X033100D02*
X032897D01*
X032899Y029883*
X032925Y029820*
X032966Y029766*
X033020Y029725*
X033083Y029699*
X033100Y029697*
Y029900*
G37*
G36*
X030000Y030449D02*
X029884Y030434D01*
X029775Y030389*
X029682Y030318*
X029611Y030225*
X029566Y030116*
X029551Y030000*
X029566Y029884*
X029611Y029775*
X029682Y029682*
X029775Y029611*
X029884Y029566*
X030000Y029551*
X030116Y029566*
X030225Y029611*
X030318Y029682*
X030389Y029775*
X030434Y029884*
X030449Y030000*
X030434Y030116*
X030389Y030225*
X030318Y030318*
X030225Y030389*
X030116Y030434*
X030000Y030449*
G37*
G36*
X029000D02*
X028884Y030434D01*
X028775Y030389*
X028682Y030318*
X028611Y030225*
X028566Y030116*
X028551Y030000*
X028566Y029884*
X028611Y029775*
X028682Y029682*
X028775Y029611*
X028884Y029566*
X029000Y029551*
X029116Y029566*
X029225Y029611*
X029318Y029682*
X029389Y029775*
X029434Y029884*
X029449Y030000*
X029434Y030116*
X029389Y030225*
X029318Y030318*
X029225Y030389*
X029116Y030434*
X029000Y030449*
G37*
G36*
X030000Y029449D02*
X029884Y029434D01*
X029775Y029389*
X029682Y029318*
X029611Y029225*
X029566Y029116*
X029551Y029000*
X029566Y028884*
X029611Y028775*
X029682Y028682*
X029775Y028611*
X029884Y028566*
X030000Y028551*
X030116Y028566*
X030225Y028611*
X030318Y028682*
X030389Y028775*
X030434Y028884*
X030449Y029000*
X030434Y029116*
X030389Y029225*
X030318Y029318*
X030225Y029389*
X030116Y029434*
X030000Y029449*
G37*
G36*
X035768Y028298D02*
X035354D01*
Y027500*
X035768*
Y028298*
G37*
G36*
X035254D02*
X034840D01*
Y027500*
X035254*
Y028298*
G37*
G36*
X032645Y027645D02*
X032300D01*
Y027300*
X032645*
Y027645*
G37*
G36*
X032200D02*
X031855D01*
Y027300*
X032200*
Y027645*
G37*
G36*
X030050Y027392D02*
Y027050D01*
X030392*
X030385Y027103*
X030345Y027199*
X030282Y027282*
X030199Y027345*
X030103Y027385*
X030050Y027392*
G37*
G36*
X029950D02*
X029897Y027385D01*
X029801Y027345*
X029718Y027282*
X029655Y027199*
X029615Y027103*
X029608Y027050*
X029950*
Y027392*
G37*
G36*
X032645Y027200D02*
X032300D01*
Y026855*
X032645*
Y027200*
G37*
G36*
X032200D02*
X031855D01*
Y026855*
X032200*
Y027200*
G37*
G36*
X030392Y026950D02*
X030050D01*
Y026608*
X030103Y026615*
X030199Y026655*
X030282Y026718*
X030345Y026801*
X030385Y026897*
X030392Y026950*
G37*
G36*
X029950D02*
X029608D01*
X029615Y026897*
X029655Y026801*
X029718Y026718*
X029801Y026655*
X029897Y026615*
X029950Y026608*
Y026950*
G37*
G36*
X035768Y027400D02*
X035354D01*
Y026602*
X035768*
Y027400*
G37*
G36*
X035254D02*
X034840D01*
Y026602*
X035254*
Y027400*
G37*
G36*
X033950Y020456D02*
X033793Y020440D01*
X033642Y020395*
X033502Y020320*
X033380Y020220*
X033280Y020098*
X033205Y019958*
X033160Y019807*
X033144Y019650*
X033160Y019493*
X033205Y019342*
X033280Y019202*
X033380Y019080*
X033502Y018980*
X033642Y018905*
X033793Y018860*
X033950Y018844*
X034107Y018860*
X034258Y018905*
X034398Y018980*
X034520Y019080*
X034620Y019202*
X034695Y019342*
X034740Y019493*
X034756Y019650*
X034740Y019807*
X034695Y019958*
X034620Y020098*
X034520Y020220*
X034398Y020320*
X034258Y020395*
X034107Y020440*
X033950Y020456*
G37*
G36*
X034126Y017245D02*
X033820D01*
Y016900*
X034126*
Y017245*
G37*
G36*
Y016800D02*
X033820D01*
Y016455*
X034126*
Y016800*
G37*
G36*
X033850Y016242D02*
Y015900D01*
X034192*
X034185Y015953*
X034145Y016049*
X034082Y016132*
X033999Y016195*
X033903Y016235*
X033850Y016242*
G37*
G36*
X033750D02*
X033697Y016235D01*
X033601Y016195*
X033518Y016132*
X033455Y016049*
X033415Y015953*
X033408Y015900*
X033750*
Y016242*
G37*
G36*
X034192Y015800D02*
X033850D01*
Y015458*
X033903Y015465*
X033999Y015505*
X034082Y015568*
X034145Y015651*
X034185Y015747*
X034192Y015800*
G37*
G36*
X033750D02*
X033408D01*
X033415Y015747*
X033455Y015651*
X033518Y015568*
X033601Y015505*
X033697Y015465*
X033750Y015458*
Y015800*
G37*
G36*
X034226Y015245D02*
X033920D01*
Y014900*
X034226*
Y015245*
G37*
G36*
Y014800D02*
X033920D01*
Y014455*
X034226*
Y014800*
G37*
G36*
X032281Y030868D02*
X031876D01*
Y030700*
X032281*
Y030868*
G37*
G36*
X031550Y030851D02*
Y030585D01*
X031797*
Y030851*
X031550*
G37*
G36*
X032281Y030600D02*
X031876D01*
Y030432*
X032281*
Y030600*
G37*
G36*
X017850Y031353D02*
Y031150D01*
X018053*
X018051Y031167*
X018025Y031230*
X017984Y031284*
X017930Y031325*
X017867Y031351*
X017850Y031353*
G37*
G36*
X017750D02*
X017733Y031351D01*
X017670Y031325*
X017616Y031284*
X017575Y031230*
X017549Y031167*
X017547Y031150*
X017750*
Y031353*
G37*
G36*
X018053Y031050D02*
X017850D01*
Y030847*
X017867Y030849*
X017930Y030875*
X017984Y030916*
X018025Y030970*
X018051Y031033*
X018053Y031050*
G37*
G36*
X017750D02*
X017547D01*
X017549Y031033*
X017575Y030970*
X017616Y030916*
X017670Y030875*
X017733Y030849*
X017750Y030847*
Y031050*
G37*
G36*
X017800Y027283D02*
Y026805D01*
X017972*
Y027070*
X017955Y027155*
X017907Y027227*
X017835Y027276*
X017800Y027283*
G37*
G36*
X013450Y027042D02*
Y026700D01*
X013792*
X013785Y026753*
X013745Y026849*
X013682Y026932*
X013599Y026995*
X013503Y027035*
X013450Y027042*
G37*
G36*
X020901Y026600D02*
X020635D01*
Y026353*
X020901*
Y026600*
G37*
G36*
X021547Y026615D02*
X021300D01*
Y026349*
X021547*
Y026615*
G37*
G36*
X021200D02*
X020953D01*
Y026349*
X021200*
Y026615*
G37*
G36*
X014350Y026626D02*
X014005D01*
Y026320*
X014350*
Y026626*
G37*
G36*
X013792Y026600D02*
X013450D01*
Y026258*
X013503Y026265*
X013599Y026305*
X013682Y026368*
X013745Y026451*
X013785Y026547*
X013792Y026600*
G37*
G36*
X018472Y026705D02*
X018300D01*
Y026228*
X018335Y026235*
X018407Y026283*
X018455Y026355*
X018472Y026440*
Y026705*
G37*
G36*
X017972D02*
X017800D01*
Y026228*
X017835Y026235*
X017907Y026283*
X017955Y026355*
X017972Y026440*
Y026705*
G37*
G36*
X018700D02*
X018528D01*
Y026440*
X018545Y026355*
X018593Y026283*
X018665Y026235*
X018700Y026228*
Y026705*
G37*
G36*
X018200D02*
X018028D01*
Y026440*
X018045Y026355*
X018093Y026283*
X018165Y026235*
X018200Y026228*
Y026705*
G37*
G36*
X021745Y026045D02*
X021400D01*
Y025700*
X021745*
Y026045*
G37*
G36*
X021300D02*
X020955D01*
Y025700*
X021300*
Y026045*
G37*
G36*
X021745Y025600D02*
X021400D01*
Y025255*
X021745*
Y025600*
G37*
G36*
X021300D02*
X020955D01*
Y025255*
X021300*
Y025600*
G37*
G36*
X026353Y025350D02*
X026150D01*
Y025147*
X026167Y025149*
X026230Y025175*
X026284Y025216*
X026325Y025270*
X026351Y025333*
X026353Y025350*
G37*
G36*
X026050D02*
X025847D01*
X025849Y025333*
X025875Y025270*
X025916Y025216*
X025970Y025175*
X026033Y025149*
X026050Y025147*
Y025350*
G37*
G36*
X023251Y021943D02*
X022985D01*
Y021696*
X023251*
Y021943*
G37*
G36*
X025365D02*
X025099D01*
Y021696*
X025365*
Y021943*
G37*
G36*
Y021596D02*
X025099D01*
Y021349*
X025365*
Y021596*
G37*
G36*
X023251D02*
X022985D01*
Y021349*
X023251*
Y021596*
G37*
G36*
X020797Y021615D02*
X020550D01*
Y021349*
X020797*
Y021615*
G37*
G36*
X020450D02*
X020203D01*
Y021349*
X020450*
Y021615*
G37*
G36*
X019997D02*
X019750D01*
Y021349*
X019997*
Y021615*
G37*
G36*
X019650D02*
X019403D01*
Y021349*
X019650*
Y021615*
G37*
G36*
X027295Y016295D02*
X026950D01*
Y015950*
X027295*
Y016295*
G37*
G36*
X026850D02*
X026505D01*
Y015950*
X026850*
Y016295*
G37*
G36*
X028350Y016130D02*
X028005D01*
Y015824*
X028350*
Y016130*
G37*
G36*
X027295Y015850D02*
X026950D01*
Y015505*
X027295*
Y015850*
G37*
G36*
X024900Y016349D02*
X024784Y016334D01*
X024675Y016289*
X024582Y016218*
X024511Y016125*
X024466Y016016*
X024451Y015900*
X024466Y015784*
X024511Y015675*
X024582Y015582*
X024675Y015511*
X024784Y015466*
X024900Y015451*
X025016Y015466*
X025125Y015511*
X025218Y015582*
X025289Y015675*
X025334Y015784*
X025349Y015900*
X025334Y016016*
X025289Y016125*
X025218Y016218*
X025125Y016289*
X025016Y016334*
X024900Y016349*
G37*
G36*
X023900D02*
X023784Y016334D01*
X023675Y016289*
X023582Y016218*
X023511Y016125*
X023466Y016016*
X023451Y015900*
X023466Y015784*
X023511Y015675*
X023582Y015582*
X023675Y015511*
X023784Y015466*
X023900Y015451*
X024016Y015466*
X024125Y015511*
X024218Y015582*
X024289Y015675*
X024334Y015784*
X024349Y015900*
X024334Y016016*
X024289Y016125*
X024218Y016218*
X024125Y016289*
X024016Y016334*
X023900Y016349*
G37*
G36*
X021797Y015215D02*
X021550D01*
Y014949*
X021797*
Y015215*
G37*
G36*
X021450D02*
X021203D01*
Y014949*
X021450*
Y015215*
G37*
G36*
X021869Y014792D02*
X021563D01*
Y014624*
X021869*
Y014792*
G37*
G36*
X021463D02*
X021157D01*
Y014624*
X021463*
Y014792*
G37*
G36*
X024900Y015349D02*
X024784Y015334D01*
X024675Y015289*
X024582Y015218*
X024511Y015125*
X024466Y015016*
X024451Y014900*
X024466Y014784*
X024511Y014675*
X024582Y014582*
X024675Y014511*
X024784Y014466*
X024900Y014451*
X025016Y014466*
X025125Y014511*
X025218Y014582*
X025289Y014675*
X025334Y014784*
X025349Y014900*
X025334Y015016*
X025289Y015125*
X025218Y015218*
X025125Y015289*
X025016Y015334*
X024900Y015349*
G37*
G36*
X021869Y014524D02*
X021563D01*
Y014356*
X021869*
Y014524*
G37*
G36*
X021463D02*
X021157D01*
Y014356*
X021463*
Y014524*
G37*
%LNde-300617-3*%
%LPD*%
G54D10*
X033950Y019650D03*
X014350Y032400D03*
X013400Y028650D03*
Y027650D03*
Y026650D03*
Y025650D03*
Y024650D03*
Y023650D03*
Y022650D03*
X031250Y027250D03*
X033800Y015850D03*
X032800D03*
X031800D03*
X030800D03*
X022350Y025650D03*
X026900Y014900D03*
X025900Y015900D03*
Y014900D03*
X024900Y015900D03*
Y014900D03*
X023900Y015900D03*
Y014900D03*
X030000Y031000D03*
X029000Y030000D03*
X030000D03*
X029000Y029000D03*
X030000D03*
X029000Y028000D03*
X030000D03*
X029000Y027000D03*
X030000D03*
X019950Y035100D03*
X018950Y036100D03*
Y035100D03*
X017950Y036100D03*
Y035100D03*
X016950Y036100D03*
Y035100D03*
X015950Y036100D03*
Y035100D03*
G54D11*
X013400Y020635D03*
Y019965D03*
X017100Y028635D03*
Y027965D03*
X021950Y036335D03*
Y035665D03*
X027050Y037485D03*
Y036815D03*
X031500Y031415D03*
Y032085D03*
Y030535D03*
Y029865D03*
X013400Y019035D03*
Y018365D03*
X014150Y019035D03*
Y018365D03*
X019700Y022335D03*
Y021665D03*
X020500Y022335D03*
Y021665D03*
X021950Y027935D03*
Y027265D03*
X021250Y026665D03*
Y027335D03*
X026700Y030215D03*
Y030885D03*
X027300Y025915D03*
Y026585D03*
X026700Y025915D03*
Y026585D03*
X026100Y025915D03*
Y026585D03*
X025900Y013885D03*
Y013215D03*
X026550Y013885D03*
Y013215D03*
X023900Y013885D03*
Y013215D03*
X014300Y028265D03*
Y028935D03*
X030900Y031385D03*
Y030715D03*
X028100Y030215D03*
Y030885D03*
X029800Y037485D03*
Y036815D03*
X033500Y037485D03*
Y036815D03*
X020500Y028035D03*
Y027365D03*
X019900Y028035D03*
Y027365D03*
X023750Y034085D03*
Y033415D03*
X025550Y034085D03*
Y033415D03*
X024950Y034085D03*
Y033415D03*
X024350Y034085D03*
Y033415D03*
X027650Y032315D03*
Y032985D03*
Y034815D03*
Y035485D03*
X021500Y015265D03*
Y015935D03*
G54D12*
X017785Y029500D03*
X017115D03*
X031515Y032750D03*
X032185D03*
X023235Y031550D03*
X022565D03*
X024815Y025900D03*
X025485D03*
X019915Y026650D03*
X020585D03*
X026085Y021646D03*
X025415D03*
X022265D03*
X022935D03*
X022635Y026650D03*
X021965D03*
X016035Y037000D03*
X015365D03*
X018635D03*
X017965D03*
X018635Y037600D03*
X017965D03*
X016665Y037000D03*
X017335D03*
X021535Y013200D03*
X020865D03*
X028335Y033900D03*
X027665D03*
X027065Y036150D03*
X027735D03*
X029165Y033900D03*
X029835D03*
G54D13*
X019250Y028645D03*
X018750D03*
X018250D03*
X017750D03*
X019250Y026755D03*
X018750D03*
X018250D03*
X017750D03*
G54D14*
X027803Y036750D03*
X028197D03*
G54D15*
X033107Y028900D03*
X031493D03*
G54D16*
X033246Y032600D03*
X035254D03*
X033296Y027450D03*
X035304D03*
G54D17*
X026070Y023300D03*
X022330D03*
G54D18*
X034924Y016850D03*
X034176D03*
X034276Y014850D03*
X035024D03*
G54D19*
X031650Y034071D03*
G54D20*
X030744Y036729D03*
X031650D03*
G54D21*
X032555Y036729D03*
G54D22*
X035000Y036726D03*
Y037474D03*
X034200Y036726D03*
Y037474D03*
X027400Y030255D03*
Y031003D03*
X014400Y027424D03*
Y026676D03*
X029000Y036726D03*
Y037474D03*
X029200Y015026D03*
Y015774D03*
X028400D03*
Y015026D03*
X013500Y036024D03*
Y035276D03*
X014300D03*
Y036024D03*
G54D23*
X023267Y027456D03*
X023464D03*
X023661D03*
X023858D03*
X024055D03*
X024252D03*
X024448D03*
X024645D03*
X024842D03*
X025039D03*
X025236D03*
X025433D03*
Y030644D03*
X025236D03*
X025039D03*
X024842D03*
X024645D03*
X024448D03*
X024252D03*
X024055D03*
X023858D03*
X023661D03*
X023464D03*
X023267D03*
G54D24*
X025944Y027967D03*
Y028164D03*
Y028361D03*
Y028558D03*
Y028755D03*
Y028952D03*
Y029148D03*
Y029345D03*
Y029542D03*
Y029739D03*
Y029936D03*
Y030133D03*
X022756D03*
Y029936D03*
Y029739D03*
Y029542D03*
Y029345D03*
Y029148D03*
Y028952D03*
Y028755D03*
Y028558D03*
Y028361D03*
Y028164D03*
Y027967D03*
G54D25*
X032252Y031241D03*
Y030059D03*
G54D26*
X032331Y030650D03*
G54D27*
X033315Y030650D03*
G54D28*
X034800Y028896D03*
Y030904D03*
G54D29*
X020687Y014200D03*
X021513Y014574D03*
Y013826D03*
X029163Y032750D03*
X028337Y032376D03*
Y033124D03*
Y035000D03*
X029163Y035374D03*
Y034626D03*
G54D30*
X020700Y015287D03*
Y016213D03*
G54D31*
X026600Y033137D03*
X026226Y033963D03*
X026974D03*
X022700Y033137D03*
X022326Y033963D03*
X023074D03*
G54D32*
X021358Y028558D02*
X022756D01*
X021200Y028400D02*
X021358Y028558D01*
X020900Y028400D02*
X021200D01*
X021850Y029200D02*
X022150D01*
X021557Y029493D02*
X021850Y029200D01*
X021557Y029493D02*
Y029607D01*
X021448Y028952D02*
X022756D01*
X020900Y029500D02*
X021448Y028952D01*
X018150Y029500D02*
X020900D01*
X022295Y029345D02*
X022756D01*
X022150Y029200D02*
X022295Y029345D01*
X023185Y030650D02*
X023267Y030733D01*
X023100Y030650D02*
X023185D01*
X022565Y031185D02*
X023100Y030650D01*
X022565Y031185D02*
Y031450D01*
X023800Y028705D02*
X023870Y028775D01*
X023800Y028500D02*
Y028705D01*
X023870Y028775D02*
Y029319D01*
X023254Y029936D02*
X023870Y029319D01*
X023196Y029739D02*
X023657Y029277D01*
Y028907D02*
Y029277D01*
X023450Y028700D02*
X023657Y028907D01*
X023311Y030133D02*
X024050Y029394D01*
Y028850D02*
Y029394D01*
Y028850D02*
X024200Y028700D01*
X022756Y030133D02*
X023311D01*
X022756Y029739D02*
X023196D01*
X022756Y029936D02*
X023254D01*
X019900Y026100D02*
X019915Y026115D01*
Y026650*
X031100Y016550D02*
X031800Y015850D01*
X024955Y032800D02*
X025300D01*
X025289Y029739D02*
X025944D01*
X025759Y031300D02*
X026000D01*
X025433Y030974D02*
X025759Y031300D01*
X025944Y029345D02*
X026495D01*
X025433Y030644D02*
Y030974D01*
X024842Y031292D02*
X024950Y031400D01*
X024842Y030644D02*
Y031292D01*
X025039Y030644D02*
Y031139D01*
X025236Y030644D02*
Y031031D01*
X016665Y036785D02*
Y037000D01*
Y036785D02*
X016950Y036500D01*
Y036100D02*
Y036500D01*
X016035Y036915D02*
Y037000D01*
X029835Y033465D02*
Y033900D01*
X031250Y033550D02*
X035050D01*
X035254Y033346*
X026700Y030215D02*
X028100D01*
X028650Y030500D02*
X030300D01*
X028365Y030215D02*
X028650Y030500D01*
X028100Y030215D02*
X028365D01*
X030385Y031385D02*
X030900D01*
X030000Y031000D02*
X030385Y031385D01*
X029500Y028500D02*
X030000Y028000D01*
X019687Y023737D02*
X020450Y024500D01*
X020513Y023863D02*
X020950Y024300D01*
X014300Y035276D02*
D01*
X019450Y035600D02*
X019950Y035100D01*
X019450Y035600D02*
Y037150D01*
X019000Y037600D02*
X019450Y037150D01*
X018635Y037600D02*
X019000D01*
X018950Y036100D02*
Y036800D01*
X018750Y037000D02*
X018950Y036800D01*
X018635Y037000D02*
X018750D01*
X016450Y035600D02*
X016950Y035100D01*
X016450Y035600D02*
Y036500D01*
X016035Y036915D02*
X016450Y036500D01*
X025236Y027014D02*
Y027456D01*
Y027014D02*
X025300Y026950D01*
X025039Y026956D02*
Y027456D01*
Y026956D02*
X025225Y026770D01*
X029176Y015750D02*
X029200Y015774D01*
X034276Y014850D02*
Y015074D01*
X026550Y013885D02*
Y014300D01*
X026400Y014450D02*
X026550Y014300D01*
X026400Y014450D02*
Y015400D01*
X025900Y015900D02*
X026400Y015400D01*
X025900Y013885D02*
Y014900D01*
X023900Y013885D02*
Y014900D01*
X025225Y026770D02*
X025675D01*
X020687Y015300D02*
X020700Y015287D01*
X020300Y015300D02*
X020687D01*
X019900Y014900D02*
X020300Y015300D01*
X019325Y014900D02*
X019900D01*
X025300Y026950D02*
X025600D01*
X013400Y027650D02*
X014015Y028265D01*
X014300*
X014374Y026650D02*
X014400Y026676D01*
X031450Y028857D02*
X031493Y028900D01*
X031450Y028000D02*
Y028857D01*
X031250Y027800D02*
X031450Y028000D01*
X031250Y027250D02*
Y027800D01*
X033500Y036815D02*
X033501D01*
X027285Y033685D02*
Y034450D01*
X027150Y033550D02*
X027285Y033685D01*
X026100Y033550D02*
X027150D01*
X025900Y033750D02*
X026100Y033550D01*
X024980Y034928D02*
Y035780D01*
X024350Y033415D02*
Y033650D01*
X024450Y033750*
X025900*
X027285Y034450D02*
X027650Y034815D01*
X024950Y033050D02*
Y033415D01*
X024350Y032850D02*
Y033415D01*
X029163Y032750D02*
X029165Y032752D01*
Y033900*
X027650Y032985D02*
X027885D01*
X028024Y033124*
X028337*
X027650Y033885D02*
X027665Y033900D01*
X027650Y032985D02*
Y033885D01*
X029163Y033902D02*
X029165Y033900D01*
X029163Y033902D02*
Y034626D01*
X028335Y033900D02*
X028337Y033902D01*
X029163Y034626D02*
X029476D01*
X029650Y034800*
X027650Y035485D02*
X027685Y035450D01*
X028600*
X028676Y035374*
X029163*
X024050Y035400D02*
Y035700D01*
X023415Y036335D02*
X024050Y035700D01*
X021950Y036335D02*
X023415D01*
X021300Y025700D02*
X021350Y025650D01*
X021250Y026665D02*
X021300Y026615D01*
X021235Y026650D02*
X021250Y026665D01*
X022350Y025650D02*
X022635Y025935D01*
Y026650*
X019687Y023300D02*
Y023737D01*
X020513Y023300D02*
Y023863D01*
X020500Y023287D02*
X020513Y023300D01*
X022265Y023235D02*
X022330Y023300D01*
X022265Y021800D02*
Y023235D01*
X026070Y023300D02*
X026085Y023285D01*
Y021800D02*
Y023285D01*
X022935Y021650D02*
X025415D01*
X025100Y023300D02*
X026070D01*
X024252Y024148D02*
X025100Y023300D01*
X024252Y024148D02*
Y027456D01*
X024055Y024155D02*
Y027456D01*
X023200Y023300D02*
X024055Y024155D01*
X022330Y023300D02*
X023200D01*
X019700Y021665D02*
X020500D01*
Y022335D02*
Y023287D01*
X019687Y023300D02*
X019700Y023287D01*
Y022335D02*
Y023287D01*
X026685Y025900D02*
X026700Y025915D01*
X024645Y026755D02*
X025100Y026300D01*
X024645Y026755D02*
Y027456D01*
X024815Y025900D02*
Y026235D01*
X024448Y026602D02*
X024815Y026235D01*
X024448Y026602D02*
Y027456D01*
X025115Y026585D02*
X027300D01*
X024842Y026858D02*
X025115Y026585D01*
X024842Y026858D02*
Y027456D01*
X018750Y029100D02*
X018900Y029250D01*
X018750Y028645D02*
Y029100D01*
X019250Y028645D02*
X019255Y028650D01*
X020300*
X020500Y028450*
Y028035D02*
Y028450D01*
X018750Y028150D02*
Y028645D01*
Y028150D02*
X018865Y028035D01*
X019900*
X018250Y028645D02*
Y029400D01*
X018150Y029500D02*
X018250Y029400D01*
X017785Y029500D02*
X018150D01*
X023235Y031315D02*
Y031450D01*
Y031315D02*
X023464Y031086D01*
Y030644D02*
Y031086D01*
X023267Y030644D02*
Y030733D01*
X021950Y027935D02*
X022085D01*
X022314Y028164*
X022756*
X021950Y026665D02*
X021965Y026650D01*
Y027250D02*
X022350D01*
X026700Y030200D02*
Y030215D01*
X026436Y029936D02*
X026700Y030200D01*
X025944Y029936D02*
X026436D01*
X026163Y033137D02*
X026600D01*
X025885Y033415D02*
X026163Y033137D01*
X025550Y033415D02*
X025885D01*
X025550D02*
D01*
X024950D02*
X025550D01*
X022700Y033137D02*
X023087D01*
X023365Y033415*
X023750*
X024350*
X024650Y034650D02*
Y034751D01*
Y034650D02*
X024950Y034350D01*
Y034085D02*
Y034350D01*
X024350Y034085D02*
Y034928D01*
X026000Y031300D02*
X026250Y031550D01*
X025236Y031031D02*
X025800Y031595D01*
X026250Y031550D02*
Y031650D01*
X025800Y031595D02*
Y031650D01*
X023858Y032358D02*
X024350Y032850D01*
X024055Y032155D02*
X024950Y033050D01*
X024252Y032097D02*
X024955Y032800D01*
X023858Y030644D02*
Y032358D01*
X024055Y030644D02*
Y032155D01*
X024252Y030644D02*
Y032097D01*
X024448Y030644D02*
Y032039D01*
X025365Y031465D02*
Y031657D01*
X025039Y031139D02*
X025365Y031465D01*
X024643Y031777D02*
X024645Y031780D01*
Y031865*
X024902Y032493D02*
X025693D01*
X024448Y032039D02*
X024902Y032493D01*
X025693D02*
X025950Y032750D01*
X025944Y028952D02*
X025950Y028957D01*
X025944Y029148D02*
X025950Y029143D01*
X025944Y029542D02*
X026342D01*
X026495Y029345D02*
X026600Y029450D01*
X026800*
X025600Y026950D02*
X025820Y027170D01*
X025944Y028755D02*
X026695D01*
X025944Y028558D02*
X026442D01*
X026693Y028307*
X027093*
X027100Y028300*
X025944Y028361D02*
X026384D01*
X026745Y028000*
X026800*
X025944Y028164D02*
X026327D01*
X026450Y028041*
X025675Y026770D02*
X025895Y026990D01*
X025944Y027706D02*
Y027967D01*
Y027706D02*
X025950Y027700D01*
X025433Y027456D02*
X025538Y027350D01*
X026695Y028755D02*
X026800Y028650D01*
X025950Y029143D02*
X028057D01*
X028700Y028500*
X029500*
X025950Y028957D02*
X027943D01*
X028900Y028000*
X029000*
X025820Y027170D02*
X027730D01*
X025538Y027350D02*
X027850D01*
X027243Y027693D02*
X027450Y027900D01*
Y028650*
X021500Y029550D02*
X021557Y029607D01*
X022058Y029542D02*
X022756D01*
X022050Y029550D02*
X022058Y029542D01*
X021050Y028750D02*
X021055Y028755D01*
X022756*
X018900Y029250D02*
X020050D01*
X020900Y028400*
X020500Y028035D02*
X021135D01*
X021461Y028361*
X022756*
Y029148D02*
X023350D01*
X024643Y031523D02*
Y031777D01*
X024645Y030644D02*
Y031520D01*
X024643Y031523D02*
X024645Y031520D01*
X024950Y031400D02*
Y031650D01*
X023661Y030644D02*
Y032761D01*
X017450Y035600D02*
X017950Y036100D01*
X016200Y026200D02*
X016850D01*
X017050Y026400*
X017450Y033950D02*
Y035600D01*
X024645Y027456D02*
Y028083D01*
X024564Y028164D02*
X024645Y028083D01*
X025564Y029936D02*
X025944D01*
X025400Y030100D02*
X025564Y029936D01*
X024645Y028083D02*
Y030095D01*
X024650Y030100*
X025400*
X029835Y033465D02*
X031165D01*
X031250Y033550*
X027800Y027700D02*
Y028300D01*
X027655Y018055D02*
Y026990D01*
X025895D02*
X027655D01*
X027835Y017935D02*
Y027065D01*
X027730Y027170D02*
X027835Y027065D01*
X028015Y017815D02*
Y027185D01*
X027850Y027350D02*
X028015Y027185D01*
X027800Y027700D02*
X028220Y027280D01*
X028150Y027650D02*
X028400Y027400D01*
X028150Y027650D02*
Y028000D01*
X023400Y028700D02*
X023450D01*
X023464Y030286D02*
Y030644D01*
X022756Y028164D02*
X024564D01*
X023650Y030100D02*
X024650D01*
X023464Y030286D02*
X023650Y030100D01*
X015850Y032350D02*
X017450Y033950D01*
X016250Y031900D02*
X018300Y033950D01*
X016250Y027600D02*
Y031900D01*
Y027600D02*
X016650Y027200D01*
X016050Y027450D02*
X016715Y026785D01*
X016800*
X015850Y027350D02*
Y032350D01*
X016200Y026750D02*
Y027000D01*
X015850Y027350D02*
X016200Y027000D01*
X016650Y027200D02*
X016750D01*
X017050Y026900*
Y026400D02*
Y026900D01*
X016050Y027450D02*
Y032150D01*
X017950Y034050*
Y035100*
X018300Y033950D02*
Y034450D01*
X018950Y035100*
X020700Y014213D02*
Y015287D01*
X020687Y014200D02*
X020700Y014213D01*
X021500Y014587D02*
X021513Y014574D01*
X021535Y013200D02*
Y013805D01*
X021513Y013826D02*
X021535Y013805D01*
X014150Y017041D02*
Y018365D01*
X013400Y014300D02*
Y018365D01*
Y014300D02*
X013941Y013759D01*
X014150*
X013650Y014650D02*
X013950Y014350D01*
X013650Y014650D02*
Y016200D01*
X013900Y016450*
X014350*
X025750Y017150D02*
X027850D01*
X028220Y017130D02*
Y027280D01*
Y017130D02*
X028800Y016550D01*
X031100*
X027850Y017150D02*
X028700Y016300D01*
X030350*
X030800Y015850*
X031850Y016800D02*
X032800Y015850D01*
X028400Y017350D02*
Y027400D01*
Y017350D02*
X028950Y016800D01*
X031850*
X027700Y017500D02*
X028015Y017815D01*
X027600Y017700D02*
X027835Y017935D01*
X014350Y016450D02*
X015810Y017910D01*
X027510*
X027655Y018055*
X019300Y018300D02*
X025850D01*
X014150Y015859D02*
X015991Y017700D01*
X027600*
X021950Y027265D02*
X021965Y027250D01*
X021842Y027158D02*
X021950Y027265D01*
X022350Y027250D02*
X022756Y027656D01*
Y027967*
X022635Y026650D02*
Y027035D01*
X023056Y027456*
X023267*
X025100Y026300D02*
X025350D01*
X025485Y026165*
Y025900D02*
Y026165D01*
X026450Y027850D02*
Y028041D01*
Y027850D02*
X026607Y027693D01*
X027243*
X026342Y029542D02*
X026600Y029800D01*
X027100*
X027200Y029700*
X028337Y032376D02*
X029426D01*
X029835Y032785*
Y033465*
X030300Y030500D02*
X030515Y030715D01*
X030900*
X024980Y035780D02*
X025050Y035850D01*
X035254Y032600D02*
Y033100D01*
Y033154D02*
Y033346D01*
X027735Y036150D02*
X029300D01*
X029650Y035800*
Y034800D02*
Y035800D01*
X013950Y014350D02*
X014400D01*
X015550Y013200*
X020865*
X014150Y014941D02*
X016709Y017500D01*
X027700*
X018950Y018650D02*
X019300Y018300D01*
X018950Y018650D02*
Y023950D01*
X020000Y025000*
X023100Y026700D02*
X023464Y027064D01*
Y027456*
X020450Y024500D02*
X022800D01*
X023661Y025361*
Y027456*
X022855Y024300D02*
X023858Y025303D01*
X020950Y024300D02*
X022855D01*
X023858Y025303D02*
Y027456D01*
X020000Y025000D02*
X022600D01*
X023100Y025500*
Y026700*
X025944Y030133D02*
Y030344D01*
X026485Y030885*
X026700*
X024645Y031865D02*
X025080Y032300D01*
X027635*
X027650Y032315*
G54D33*
X026100Y025900D02*
X026685D01*
X025485D02*
X026100D01*
Y025915*
Y025400D02*
Y025900D01*
X022100Y031550D02*
X022465D01*
X022565Y031450*
X017100Y029485D02*
X017115Y029500D01*
X017100Y028635D02*
Y029485D01*
X027650Y015750D02*
X029176D01*
X015200Y035100D02*
X015950D01*
X015024Y035276D02*
X015200Y035100D01*
X014300Y035276D02*
X015024D01*
X013500D02*
X014300D01*
X027500Y015900D02*
X027650Y015750D01*
X026900Y015900D02*
X027500D01*
X021215Y015935D02*
X021500D01*
X020937Y016213D02*
X021215Y015935D01*
X020700Y016213D02*
X020937D01*
X035254Y031350D02*
Y032600D01*
X021300Y025700D02*
Y026615D01*
X020585Y026650D02*
X021235D01*
X028337Y033902D02*
Y034450D01*
Y034900*
X027300Y025400D02*
Y025915D01*
X013024Y036024D02*
X013500D01*
X012850Y035850D02*
X013024Y036024D01*
X012850Y028650D02*
X013400D01*
X012850D02*
Y035850D01*
X013685Y028935D02*
X014300D01*
X013400Y028650D02*
X013685Y028935D01*
X014400Y027424D02*
X014824D01*
X014950Y027550*
X014300Y028935D02*
X014835D01*
X014950Y028819*
Y026200D02*
X015357Y025793D01*
X014950Y026200D02*
Y027550D01*
Y028819*
X016748Y027498D02*
X017002D01*
X017330Y027170*
X017100Y027965D02*
X017335D01*
X017750Y027550*
Y026755D02*
Y027550D01*
X016600Y027646D02*
X016748Y027498D01*
X016600Y027646D02*
Y028550D01*
X016685Y028635*
X013400Y026650D02*
X014374D01*
X014450Y025950D02*
Y026574D01*
Y025950D02*
X015050Y025350D01*
X014374Y026650D02*
X014450Y026574D01*
X017750Y026755D02*
X018250D01*
X018650*
X015357Y025793D02*
X017143D01*
X017330Y025980*
Y027170*
X015050Y025350D02*
X017500D01*
X017750Y025600*
Y025650D02*
X021350D01*
X017750D02*
Y026755D01*
X016685Y028635D02*
X017100D01*
X017715*
X017750Y028600*
X019400Y027600D02*
X019635Y027365D01*
X017740Y028210D02*
Y028590D01*
Y028210D02*
X018350Y027600D01*
X019400*
X013400Y020635D02*
Y021650D01*
X012865Y019965D02*
X013400D01*
X012850Y019950D02*
X012865Y019965D01*
X012850Y019950D02*
Y028650D01*
X013385Y019050D02*
X013400Y019035D01*
X014150*
X012850Y019050D02*
Y019950D01*
Y019050D02*
X013385D01*
X012850Y013300D02*
Y019050D01*
Y013300D02*
X013450Y012700D01*
X023900D02*
Y013215D01*
X013450Y012700D02*
X023900D01*
X026900Y014450D02*
X027250Y014100D01*
X026900Y014450D02*
Y014900D01*
X026550Y012700D02*
Y013215D01*
X025900Y012750D02*
Y013215D01*
X025850Y012700D02*
X025900Y012750D01*
X023900Y012700D02*
X025850D01*
X026550*
X035024Y014850D02*
Y015376D01*
X034800Y015600D02*
X035024Y015376D01*
X034800Y015600D02*
Y015850D01*
Y016200*
X034950Y016350*
Y016824*
X034924Y016850D02*
X034950Y016824D01*
X026900Y014900D02*
X027650D01*
X027776Y015026*
X029200*
X026550Y012700D02*
X034900D01*
X035024Y012824*
Y014850*
X027250Y012700D02*
Y014100D01*
X021500Y014700D02*
Y015265D01*
X022415*
X022600Y015450*
Y016200*
X023000Y016600*
X026650*
X026900Y016350*
Y015900D02*
Y016350D01*
X029200Y015774D02*
X029776D01*
X030450Y015100*
X033600*
X033800Y015300*
Y016474D02*
X034176Y016850D01*
X033800Y015850D02*
Y016474D01*
Y015300D02*
Y015850D01*
X033950Y014850D02*
X034276D01*
X033800Y015000D02*
X033950Y014850D01*
X033800Y015000D02*
Y015300D01*
X035350Y029750D02*
X035792D01*
X035892Y029650*
Y027550D02*
Y029650D01*
X035792Y027450D02*
X035892Y027550D01*
X035304Y027450D02*
X035792D01*
X019635Y027365D02*
X019900D01*
X020500*
X021950Y026665D02*
Y027265D01*
X020500Y027365D02*
X021635D01*
X021842Y027158*
X033111Y028896D02*
X034800D01*
X033296Y027450D02*
Y028711D01*
X033107Y028900D02*
X033111Y028896D01*
X033296Y028711*
X032250Y029350D02*
X032700Y028900D01*
X032250Y029350D02*
Y029900D01*
X032700Y028900D02*
X033107D01*
X031500Y029865D02*
X032215D01*
X032250Y029900*
X031500Y032085D02*
X032165D01*
X032250Y031400D02*
Y032000D01*
X032185Y032065D02*
Y032750D01*
Y032065D02*
X032250Y032000D01*
X032165Y032085D02*
X032185Y032065D01*
X032335Y032600D02*
X033246D01*
X032185Y032750D02*
X032335Y032600D01*
X035000Y036815D02*
X035050Y036765D01*
Y036050D02*
Y036765D01*
X031650Y036000D02*
Y036729D01*
X033500Y036815D02*
X033565Y036750D01*
X034935*
X035000Y036815*
X032555Y036729D02*
Y037557D01*
X032550Y037563D02*
X032555Y037557D01*
X030321Y036729D02*
X030744D01*
X030235Y036815D02*
X030321Y036729D01*
X029800Y036815D02*
X030235D01*
X029465D02*
X029800D01*
X029376Y036726D02*
X029465Y036815D01*
X029000Y036726D02*
X029376D01*
X022913Y037270D02*
X023206Y037563D01*
X027050Y036165D02*
Y036815D01*
Y036165D02*
X027065Y036150D01*
Y035465D02*
Y036150D01*
X027050Y035450D02*
X027065Y035465D01*
X025350Y036150D02*
X027065D01*
X025050Y035850D02*
X025350Y036150D01*
X035000Y037474D02*
X035576D01*
X035750Y037300*
Y033650D02*
Y037300D01*
X035254Y033154D02*
X035750Y033650D01*
X035254Y033100D02*
Y033154D01*
X032550Y037563D02*
X035000D01*
X021950Y035665D02*
X022215Y035400D01*
X022913*
X023385Y034928*
X023720*
X023750Y034085D02*
Y034898D01*
X023720Y034928D02*
X023750Y034898D01*
X023285Y034085D02*
X023750D01*
X023235Y031450D02*
Y032315D01*
X023000Y032550D02*
X023235Y032315D01*
X022500Y032550D02*
X023000D01*
X025550Y034085D02*
Y034600D01*
X025787Y034837*
Y035400*
X013500Y036024D02*
X014300D01*
X015324*
X015400Y036100D02*
X015950D01*
X017335Y037000D02*
X017965D01*
Y037600*
X015600D02*
X017965D01*
X015365Y037365D02*
X015600Y037600D01*
X015365Y037000D02*
Y037365D01*
Y036065D02*
Y037000D01*
X015324Y036024D02*
X015365Y036065D01*
X015400Y036100*
X026700Y030885D02*
X026935D01*
X027053Y031003*
X027400*
X029250Y031650D02*
X030700Y033100D01*
X030950Y032750D02*
X031515D01*
X029200Y031000D02*
X030950Y032750D01*
X029000Y031000D02*
X029200D01*
X028550D02*
X029000D01*
X028435Y030885D02*
X028550Y031000D01*
X028100Y030885D02*
X028435D01*
X016175Y014900D02*
Y015425D01*
X016963Y016213*
X020700*
X023150Y033950D02*
X023285Y034085D01*
X022450Y033950D02*
X023150D01*
X031515Y032750D02*
Y033085D01*
X031500Y033100D02*
X031515Y033085D01*
X023206Y037563D02*
X032550D01*
X017115Y029500D02*
Y031315D01*
X017600Y031800*
X021900*
Y032750*
Y031750D02*
X022100Y031550D01*
X027400Y031003D02*
Y031350D01*
X028400Y031650D02*
X029250D01*
X028250Y031500D02*
X028400Y031650D01*
X027550Y031500D02*
X028250D01*
X027400Y031350D02*
X027550Y031500D01*
G54D34*
X024652Y034751D02*
Y035400D01*
G54D35*
X031615Y030650D02*
X034000D01*
X031500Y030535D02*
X031615Y030650D01*
X031500Y030535D02*
Y031415D01*
X030900Y030715D02*
X031319D01*
X031500Y030535*
X030700Y030100D02*
X030900Y030300D01*
Y030715*
X032250Y026800D02*
Y027250D01*
X030000Y026900D02*
Y027000D01*
Y026900D02*
X030300Y026600D01*
X032050*
X032250Y026800*
X030000Y027000D02*
X030700Y027700D01*
Y030100*
X028197Y036750D02*
X028976D01*
X029000Y036726*
X027115Y036750D02*
X027803D01*
X027050Y036815D02*
X027115Y036750D01*
X022326Y032724D02*
X022500Y032550D01*
X022326Y032724D02*
Y033963D01*
X026974D02*
Y034576D01*
X026713Y034837D02*
X026974Y034576D01*
X025787Y034837D02*
X026713D01*
G54D36*
X034175Y030600D03*
G54D37*
X032700Y035325D03*
G54D38*
X032850Y034975D03*
G54D39*
X019325Y014900D03*
X016175D03*
X014150Y017041D03*
Y015859D03*
Y013759D03*
Y014941D03*
G54D40*
X013400Y021650D03*
X029000Y031000D03*
G54D41*
X020513Y023300D03*
X019687D03*
G54D42*
X032250Y027250D03*
X034800Y015850D03*
X021350Y025650D03*
X026900Y015900D03*
X019950Y036100D03*
G54D43*
X024980Y034928D03*
X024350D03*
X023720D03*
X024650Y035400D03*
X024050D03*
G54D44*
X025787Y035400D03*
X022913D03*
X025787Y037270D03*
X022913D03*
G54D45*
X030700Y035100D03*
X032550D03*
X032088D03*
X031625D03*
X031163D03*
Y034450D03*
X031625D03*
X032088D03*
X032550D03*
X033150Y029950D03*
Y030417D03*
Y030883D03*
Y031350D03*
X026100Y025400D03*
X028400Y031650D03*
X017800Y031100D03*
X023350Y029150D03*
X019900Y026100D03*
X025750Y017150D03*
X025300Y032800D03*
X025289Y029739D03*
X027100Y028300D03*
X026800Y028000D03*
X026250Y031650D03*
X025800D03*
X025365Y031657D03*
X025950Y032750D03*
X027200Y029700D03*
X026800Y029450D03*
X025950Y027700D03*
X026800Y028650D03*
X027450D03*
X022050Y029550D03*
X021500D03*
X021050Y028750D03*
X024950Y031650D03*
X023661Y032761D03*
X023400Y028700D03*
X016200Y026200D03*
Y026750D03*
X016700D03*
X028337Y034450D03*
X030700D03*
X027050Y035450D03*
X030700Y033100D03*
X027800Y028300D03*
X028150Y028000D03*
X024200Y028700D03*
X023800Y028500D03*
X021900Y032750D03*
X027300Y025400D03*
X025750Y018300D03*
X031500Y033100D03*
X017800Y032450D03*
M02*