%FSDAX24Y24*%
%MOIN*%
%SFA1B1*%

%IPPOS*%
%ADD9500C,0.015700*%
%ADD9501C,0.019700*%
%ADD9502C,0.023600*%
%ADD9503C,0.030000*%
%ADD9504C,0.035400*%
%ADD9505C,0.051200*%
%LNde-300617-1*%
%LPD*%
G54D9500*
X033150Y029950D03*
Y030417D03*
Y030883D03*
X027200Y029700D03*
X026800Y029450D03*
Y028650D03*
X027100Y028300D03*
X026800Y028000D03*
X025950Y027700D03*
X026100Y025400D03*
X027300D03*
X027450Y028650D03*
X027800Y028300D03*
X028150Y028000D03*
X025289Y029739D03*
X024200Y028700D03*
X023800Y028500D03*
X023400Y028700D03*
X023350Y029150D03*
X022050Y029550D03*
X021500D03*
X021050Y028750D03*
X019900Y026100D03*
X016200Y026200D03*
Y026750D03*
X016700D03*
X017800Y031100D03*
X025750Y018300D03*
Y017150D03*
X025800Y031650D03*
X025365Y031657D03*
X024950Y031650D03*
X026250D03*
X025950Y032750D03*
X025300Y032800D03*
X023661Y032761D03*
X021900Y032750D03*
X017800Y032450D03*
X028400Y031650D03*
X028337Y034450D03*
X027050Y035450D03*
X030700Y035100D03*
X031163D03*
Y034450D03*
X030700D03*
Y033100D03*
X031500D03*
X031625Y034450D03*
X032088D03*
X032550D03*
Y035100D03*
X032088D03*
X031625D03*
X033150Y031350D03*
G54D9501*
X023720Y034928D03*
X024350D03*
X024980D03*
X024650Y035400D03*
X024050D03*
G54D9502*
X019687Y023300D03*
X020513D03*
G54D9503*
X014150Y013759D03*
Y014941D03*
X016175Y014900D03*
X019325D03*
X014150Y015859D03*
Y017041D03*
G54D9504*
X023900Y014900D03*
X024900D03*
X025900D03*
X026900D03*
X031800Y015850D03*
X032800D03*
X033800D03*
X034800D03*
X032250Y027250D03*
X031250D03*
X030000Y027000D03*
Y028000D03*
Y029000D03*
Y030000D03*
Y031000D03*
X029000D03*
Y030000D03*
Y029000D03*
Y028000D03*
Y027000D03*
X022350Y025650D03*
X021350D03*
X023900Y015900D03*
X024900D03*
X025900D03*
X026900D03*
X030800Y015850D03*
X013400Y021650D03*
Y022650D03*
Y023650D03*
Y024650D03*
Y025650D03*
Y026650D03*
Y027650D03*
Y028650D03*
X015950Y035100D03*
X016950D03*
X017950D03*
X018950D03*
X019950D03*
Y036100D03*
X018950D03*
X017950D03*
X016950D03*
X015950D03*
G54D9505*
X022913Y035400D03*
Y037270D03*
X025787D03*
Y035400D03*
M02*