%FSDAX24Y24*%
%MOIN*%
%SFA1B1*%

%IPPOS*%
%AMD27*
4,1,8,-0.063000,0.018700,-0.063000,-0.018700,-0.044300,-0.037400,0.044300,-0.037400,0.063000,-0.018700,0.063000,0.018700,0.044300,0.037400,-0.044300,0.037400,-0.063000,0.018700,0.0*
%
%ADD10C,0.059100*%
%ADD11R,0.039400X0.043300*%
%ADD12R,0.043300X0.039400*%
%ADD13O,0.023600X0.086600*%
%ADD14R,0.023600X0.019700*%
%ADD15R,0.094500X0.070900*%
%ADD16R,0.072800X0.149600*%
%ADD17R,0.216500X0.078700*%
%ADD18R,0.051200X0.059100*%
%ADD19R,0.135800X0.061000*%
%ADD20R,0.043300X0.061000*%
%ADD21R,0.043300X0.061000*%
%ADD22R,0.059100X0.051200*%
%ADD23O,0.011800X0.070900*%
%ADD24O,0.070900X0.011800*%
%ADD25R,0.055100X0.023600*%
%ADD26R,0.070900X0.023600*%
G04~CAMADD=27~4~0.0~0.0~748.0~1260.0~0.0~187.0~0~0.0~0.0~0.0~0.0~0~0.0~0.0~0.0~0.0~0~0.0~0.0~0.0~90.0~1260.0~748.0*
%ADD27D27*%
%ADD28R,0.149600X0.072800*%
%ADD29R,0.051200X0.023600*%
%ADD30R,0.021700X0.057100*%
%ADD31R,0.023600X0.051200*%
%LNde-300617-1*%
%LPD*%
G54D10*
X033950Y019650D03*
X014350Y032400D03*
G54D11*
X013400Y020635D03*
Y019965D03*
X017100Y028635D03*
Y027965D03*
X021950Y036335D03*
Y035665D03*
X027050Y037485D03*
Y036815D03*
X031500Y031415D03*
Y032085D03*
Y030535D03*
Y029865D03*
X013400Y019035D03*
Y018365D03*
X014150Y019035D03*
Y018365D03*
X019700Y022335D03*
Y021665D03*
X020500Y022335D03*
Y021665D03*
X021950Y027935D03*
Y027265D03*
X021250Y026665D03*
Y027335D03*
X026700Y030215D03*
Y030885D03*
X027300Y025915D03*
Y026585D03*
X026700Y025915D03*
Y026585D03*
X026100Y025915D03*
Y026585D03*
X025900Y013885D03*
Y013215D03*
X026550Y013885D03*
Y013215D03*
X023900Y013885D03*
Y013215D03*
X014300Y028265D03*
Y028935D03*
X030900Y031385D03*
Y030715D03*
X028100Y030215D03*
Y030885D03*
X029800Y037485D03*
Y036815D03*
X033500Y037485D03*
Y036815D03*
X020500Y028035D03*
Y027365D03*
X019900Y028035D03*
Y027365D03*
X023750Y034085D03*
Y033415D03*
X025550Y034085D03*
Y033415D03*
X024950Y034085D03*
Y033415D03*
X024350Y034085D03*
Y033415D03*
X027650Y032315D03*
Y032985D03*
Y034815D03*
Y035485D03*
X021500Y015265D03*
Y015935D03*
G54D12*
X017785Y029500D03*
X017115D03*
X031515Y032750D03*
X032185D03*
X023235Y031550D03*
X022565D03*
X024815Y025900D03*
X025485D03*
X019915Y026650D03*
X020585D03*
X026085Y021646D03*
X025415D03*
X022265D03*
X022935D03*
X022635Y026650D03*
X021965D03*
X016035Y037000D03*
X015365D03*
X018635D03*
X017965D03*
X018635Y037600D03*
X017965D03*
X016665Y037000D03*
X017335D03*
X021535Y013200D03*
X020865D03*
X028335Y033900D03*
X027665D03*
X027065Y036150D03*
X027735D03*
X029165Y033900D03*
X029835D03*
G54D13*
X019250Y028645D03*
X018750D03*
X018250D03*
X017750D03*
X019250Y026755D03*
X018750D03*
X018250D03*
X017750D03*
G54D14*
X027803Y036750D03*
X028197D03*
G54D15*
X033107Y028900D03*
X031493D03*
G54D16*
X033246Y032600D03*
X035254D03*
X033296Y027450D03*
X035304D03*
G54D17*
X026070Y023300D03*
X022330D03*
G54D18*
X034924Y016850D03*
X034176D03*
X034276Y014850D03*
X035024D03*
G54D19*
X031650Y034071D03*
G54D20*
X030744Y036729D03*
X031650D03*
G54D21*
X032555Y036729D03*
G54D22*
X035000Y036726D03*
Y037474D03*
X034200Y036726D03*
Y037474D03*
X027400Y030255D03*
Y031003D03*
X014400Y027424D03*
Y026676D03*
X029000Y036726D03*
Y037474D03*
X029200Y015026D03*
Y015774D03*
X028400D03*
Y015026D03*
X013500Y036024D03*
Y035276D03*
X014300D03*
Y036024D03*
G54D23*
X023267Y027456D03*
X023464D03*
X023661D03*
X023858D03*
X024055D03*
X024252D03*
X024448D03*
X024645D03*
X024842D03*
X025039D03*
X025236D03*
X025433D03*
Y030644D03*
X025236D03*
X025039D03*
X024842D03*
X024645D03*
X024448D03*
X024252D03*
X024055D03*
X023858D03*
X023661D03*
X023464D03*
X023267D03*
G54D24*
X025944Y027967D03*
Y028164D03*
Y028361D03*
Y028558D03*
Y028755D03*
Y028952D03*
Y029148D03*
Y029345D03*
Y029542D03*
Y029739D03*
Y029936D03*
Y030133D03*
X022756D03*
Y029936D03*
Y029739D03*
Y029542D03*
Y029345D03*
Y029148D03*
Y028952D03*
Y028755D03*
Y028558D03*
Y028361D03*
Y028164D03*
Y027967D03*
G54D25*
X032252Y031241D03*
Y030059D03*
G54D26*
X032331Y030650D03*
G54D27*
X033315Y030650D03*
G54D28*
X034800Y028896D03*
Y030904D03*
G54D29*
X020687Y014200D03*
X021513Y014574D03*
Y013826D03*
X029163Y032750D03*
X028337Y032376D03*
Y033124D03*
Y035000D03*
X029163Y035374D03*
Y034626D03*
G54D30*
X020700Y015287D03*
Y016213D03*
G54D31*
X026600Y033137D03*
X026226Y033963D03*
X026974D03*
X022700Y033137D03*
X022326Y033963D03*
X023074D03*
M02*