%FSDAX24Y24*%
%MOIN*%
%SFA1B1*%

%IPPOS*%
%ADD53C,0.003900*%
%LNde-300617-1*%
%LPD*%
G54D53*
X018067Y027267D02*
D01*
X018066Y027280*
X018065Y027294*
X018062Y027307*
X018059Y027321*
X018055Y027334*
X018049Y027347*
X018043Y027359*
X018037Y027371*
X018029Y027382*
X018020Y027393*
X018011Y027403*
X018001Y027413*
X017991Y027422*
X017980Y027430*
X017968Y027437*
X017956Y027444*
X017943Y027449*
X017930Y027454*
X017917Y027458*
X017904Y027461*
X017890Y027462*
X017876Y027463*
X017863*
X017849Y027462*
X017835Y027461*
X017822Y027458*
X017809Y027454*
X017796Y027449*
X017783Y027444*
X017771Y027437*
X017759Y027430*
X017748Y027422*
X017738Y027413*
X017728Y027403*
X017719Y027393*
X017710Y027382*
X017702Y027371*
X017696Y027359*
X017690Y027347*
X017684Y027334*
X017680Y027321*
X017677Y027307*
X017674Y027294*
X017673Y027280*
X017673Y027267*
X017673Y027253*
X017674Y027239*
X017677Y027226*
X017680Y027212*
X017684Y027199*
X017690Y027186*
X017696Y027174*
X017702Y027162*
X017710Y027151*
X017719Y027140*
X017728Y027130*
X017738Y027120*
X017748Y027111*
X017759Y027103*
X017771Y027096*
X017783Y027089*
X017796Y027084*
X017809Y027079*
X017822Y027075*
X017835Y027072*
X017849Y027071*
X017863Y027070*
X017876*
X017890Y027071*
X017904Y027072*
X017917Y027075*
X017930Y027079*
X017943Y027084*
X017956Y027089*
X017968Y027096*
X017980Y027103*
X017991Y027111*
X018001Y027120*
X018011Y027130*
X018020Y027140*
X018029Y027151*
X018037Y027162*
X018043Y027174*
X018049Y027186*
X018055Y027199*
X018059Y027212*
X018062Y027226*
X018065Y027239*
X018066Y027253*
X018067Y027267*
X023523Y028026D02*
D01*
X023522Y028039*
X023521Y028053*
X023518Y028066*
X023515Y028080*
X023511Y028093*
X023505Y028106*
X023499Y028118*
X023493Y028130*
X023485Y028141*
X023476Y028152*
X023467Y028162*
X023457Y028172*
X023447Y028181*
X023436Y028189*
X023424Y028196*
X023412Y028203*
X023399Y028208*
X023386Y028213*
X023373Y028217*
X023360Y028220*
X023346Y028221*
X023332Y028222*
X023319*
X023305Y028221*
X023291Y028220*
X023278Y028217*
X023265Y028213*
X023252Y028208*
X023239Y028203*
X023227Y028196*
X023215Y028189*
X023204Y028181*
X023194Y028172*
X023184Y028162*
X023175Y028152*
X023166Y028141*
X023158Y028130*
X023152Y028118*
X023146Y028106*
X023140Y028093*
X023136Y028080*
X023133Y028066*
X023130Y028053*
X023129Y028039*
X023129Y028026*
X023129Y028012*
X023130Y027998*
X023133Y027985*
X023136Y027971*
X023140Y027958*
X023146Y027945*
X023152Y027933*
X023158Y027921*
X023166Y027910*
X023175Y027899*
X023184Y027889*
X023194Y027879*
X023204Y027870*
X023215Y027862*
X023227Y027855*
X023239Y027848*
X023252Y027843*
X023265Y027838*
X023278Y027834*
X023291Y027831*
X023305Y027830*
X023319Y027829*
X023332*
X023346Y027830*
X023360Y027831*
X023373Y027834*
X023386Y027838*
X023399Y027843*
X023412Y027848*
X023424Y027855*
X023436Y027862*
X023447Y027870*
X023457Y027879*
X023467Y027889*
X023476Y027899*
X023485Y027910*
X023493Y027921*
X023499Y027933*
X023505Y027945*
X023511Y027958*
X023515Y027971*
X023518Y027985*
X023521Y027998*
X023522Y028012*
X023523Y028026*
X019484Y026913D02*
Y028487D01*
X017516Y026913D02*
Y028487D01*
X019484*
X017516Y026913D02*
X019484D01*
X027783Y036632D02*
Y036868D01*
X028217Y036632D02*
Y036868D01*
X027783D02*
X028217D01*
X027783Y036632D02*
X028217D01*
X022972Y027672D02*
X025728D01*
X022972Y030428D02*
X025728D01*
X022972Y027672D02*
Y030428D01*
X025728Y027672D02*
Y030428D01*
X032488Y029744D02*
Y031556D01*
X033512Y029744D02*
Y031556D01*
X032488D02*
X033512D01*
X032488Y029744D02*
X033512D01*
X020824Y014791D02*
X021376D01*
X020824Y013609D02*
X021376D01*
X020824D02*
Y014791D01*
X021376Y013609D02*
Y014791D01*
X028474Y032159D02*
X029026D01*
X028474Y033341D02*
X029026D01*
Y032159D02*
Y033341D01*
X028474Y032159D02*
Y033341D01*
Y035591D02*
X029026D01*
X028474Y034409D02*
X029026D01*
X028474D02*
Y035591D01*
X029026Y034409D02*
Y035591D01*
X026009Y033274D02*
Y033826D01*
X027191Y033274D02*
Y033826D01*
X026009Y033274D02*
X027191D01*
X026009Y033826D02*
X027191D01*
X022109Y033274D02*
Y033826D01*
X023291Y033274D02*
Y033826D01*
X022109Y033274D02*
X023291D01*
X022109Y033826D02*
X023291D01*
M02*