%FSDAX24Y24*%
%MOIN*%
%SFA1B1*%

%IPPOS*%
%ADD87C,0.002000*%
%LNde-300617-1*%
%LPD*%
G54D87*
X019175Y014900D02*
X019475D01*
X019325Y014750D02*
Y015050D01*
X016025Y014900D02*
X016325D01*
X016175Y014750D02*
Y015050D01*
X014000Y017041D02*
X014300D01*
X014150Y016891D02*
Y017191D01*
X014000Y015859D02*
X014300D01*
X014150Y015709D02*
Y016009D01*
X014000Y013759D02*
X014300D01*
X014150Y013609D02*
Y013909D01*
X014000Y014941D02*
X014300D01*
X014150Y014791D02*
Y015091D01*
X013223Y028650D02*
X013577D01*
X013400Y028473D02*
Y028827D01*
X013223Y027650D02*
X013577D01*
X013400Y027473D02*
Y027827D01*
X013223Y026650D02*
X013577D01*
X013400Y026473D02*
Y026827D01*
X013223Y025650D02*
X013577D01*
X013400Y025473D02*
Y025827D01*
X013223Y024650D02*
X013577D01*
X013400Y024473D02*
Y024827D01*
X013223Y023650D02*
X013577D01*
X013400Y023473D02*
Y023827D01*
X013223Y022650D02*
X013577D01*
X013400Y022473D02*
Y022827D01*
X013223Y021650D02*
X013577D01*
X013400Y021473D02*
Y021827D01*
X020395Y023300D02*
X020631D01*
X020513Y023182D02*
Y023418D01*
X019569Y023300D02*
X019805D01*
X019687Y023182D02*
Y023418D01*
X031073Y027250D02*
X031427D01*
X031250Y027073D02*
Y027427D01*
X032073Y027250D02*
X032427D01*
X032250Y027073D02*
Y027427D01*
X034623Y015850D02*
X034977D01*
X034800Y015673D02*
Y016027D01*
X033623Y015850D02*
X033977D01*
X033800Y015673D02*
Y016027D01*
X032623Y015850D02*
X032977D01*
X032800Y015673D02*
Y016027D01*
X031623Y015850D02*
X031977D01*
X031800Y015673D02*
Y016027D01*
X030623Y015850D02*
X030977D01*
X030800Y015673D02*
Y016027D01*
X022173Y025650D02*
X022527D01*
X022350Y025473D02*
Y025827D01*
X021173Y025650D02*
X021527D01*
X021350Y025473D02*
Y025827D01*
X026723Y015900D02*
X027077D01*
X026900Y015723D02*
Y016077D01*
X026723Y014900D02*
X027077D01*
X026900Y014723D02*
Y015077D01*
X025723Y015900D02*
X026077D01*
X025900Y015723D02*
Y016077D01*
X025723Y014900D02*
X026077D01*
X025900Y014723D02*
Y015077D01*
X024723Y015900D02*
X025077D01*
X024900Y015723D02*
Y016077D01*
X024723Y014900D02*
X025077D01*
X024900Y014723D02*
Y015077D01*
X023723Y015900D02*
X024077D01*
X023900Y015723D02*
Y016077D01*
X023723Y014900D02*
X024077D01*
X023900Y014723D02*
Y015077D01*
X028823Y031000D02*
X029177D01*
X029000Y030823D02*
Y031177D01*
X029823Y031000D02*
X030177D01*
X030000Y030823D02*
Y031177D01*
X028823Y030000D02*
X029177D01*
X029000Y029823D02*
Y030177D01*
X029823Y030000D02*
X030177D01*
X030000Y029823D02*
Y030177D01*
X028823Y029000D02*
X029177D01*
X029000Y028823D02*
Y029177D01*
X029823Y029000D02*
X030177D01*
X030000Y028823D02*
Y029177D01*
X028823Y028000D02*
X029177D01*
X029000Y027823D02*
Y028177D01*
X029823Y028000D02*
X030177D01*
X030000Y027823D02*
Y028177D01*
X028823Y027000D02*
X029177D01*
X029000Y026823D02*
Y027177D01*
X029823Y027000D02*
X030177D01*
X030000Y026823D02*
Y027177D01*
X019773Y036100D02*
X020127D01*
X019950Y035923D02*
Y036277D01*
X019773Y035100D02*
X020127D01*
X019950Y034923D02*
Y035277D01*
X018773Y036100D02*
X019127D01*
X018950Y035923D02*
Y036277D01*
X018773Y035100D02*
X019127D01*
X018950Y034923D02*
Y035277D01*
X017773Y036100D02*
X018127D01*
X017950Y035923D02*
Y036277D01*
X017773Y035100D02*
X018127D01*
X017950Y034923D02*
Y035277D01*
X016773Y036100D02*
X017127D01*
X016950Y035923D02*
Y036277D01*
X016773Y035100D02*
X017127D01*
X016950Y034923D02*
Y035277D01*
X015773Y036100D02*
X016127D01*
X015950Y035923D02*
Y036277D01*
X015773Y035100D02*
X016127D01*
X015950Y034923D02*
Y035277D01*
X024881Y034928D02*
X025078D01*
X024980Y034829D02*
Y035026D01*
X025531Y035400D02*
X026043D01*
X025787Y035144D02*
Y035656D01*
X022657Y035400D02*
X023169D01*
X022913Y035144D02*
Y035656D01*
X025531Y037270D02*
X026043D01*
X025787Y037014D02*
Y037526D01*
X022657Y037270D02*
X023169D01*
X022913Y037014D02*
Y037526D01*
X024252Y034928D02*
X024448D01*
X024350Y034829D02*
Y035026D01*
X023622Y034928D02*
X023819D01*
X023720Y034829D02*
Y035026D01*
X024552Y035400D02*
X024748D01*
X024650Y035302D02*
Y035498D01*
X023952Y035400D02*
X024148D01*
X024050Y035302D02*
Y035498D01*
X030621Y035100D02*
X030779D01*
X030700Y035021D02*
Y035179D01*
X032471Y035100D02*
X032629D01*
X032550Y035021D02*
Y035179D01*
X032009Y035100D02*
X032166D01*
X032088Y035021D02*
Y035179D01*
X031546Y035100D02*
X031704D01*
X031625Y035021D02*
Y035179D01*
X031084Y035100D02*
X031241D01*
X031163Y035021D02*
Y035179D01*
X031084Y034450D02*
X031241D01*
X031163Y034371D02*
Y034529D01*
X031546Y034450D02*
X031704D01*
X031625Y034371D02*
Y034529D01*
X032009Y034450D02*
X032166D01*
X032088Y034371D02*
Y034529D01*
X032471Y034450D02*
X032629D01*
X032550Y034371D02*
Y034529D01*
X033071Y029950D02*
X033229D01*
X033150Y029871D02*
Y030029D01*
X033071Y030417D02*
X033229D01*
X033150Y030338D02*
Y030495D01*
X033071Y030883D02*
X033229D01*
X033150Y030805D02*
Y030962D01*
X033071Y031350D02*
X033229D01*
X033150Y031271D02*
Y031429D01*
X026021Y025400D02*
X026179D01*
X026100Y025321D02*
Y025479D01*
X028321Y031650D02*
X028479D01*
X028400Y031571D02*
Y031729D01*
X017721Y031100D02*
X017879D01*
X017800Y031021D02*
Y031179D01*
X023271Y029150D02*
X023429D01*
X023350Y029071D02*
Y029229D01*
X019821Y026100D02*
X019979D01*
X019900Y026021D02*
Y026179D01*
X025671Y017150D02*
X025829D01*
X025750Y017071D02*
Y017229D01*
X025221Y032800D02*
X025379D01*
X025300Y032721D02*
Y032879D01*
X025210Y029739D02*
X025368D01*
X025289Y029660D02*
Y029818D01*
X027021Y028300D02*
X027179D01*
X027100Y028221D02*
Y028379D01*
X026721Y028000D02*
X026879D01*
X026800Y027921D02*
Y028079D01*
X026171Y031650D02*
X026329D01*
X026250Y031571D02*
Y031729D01*
X025721Y031650D02*
X025879D01*
X025800Y031571D02*
Y031729D01*
X025286Y031657D02*
X025444D01*
X025365Y031579D02*
Y031736D01*
X025871Y032750D02*
X026029D01*
X025950Y032671D02*
Y032829D01*
X027121Y029700D02*
X027279D01*
X027200Y029621D02*
Y029779D01*
X026721Y029450D02*
X026879D01*
X026800Y029371D02*
Y029529D01*
X025871Y027700D02*
X026029D01*
X025950Y027621D02*
Y027779D01*
X026721Y028650D02*
X026879D01*
X026800Y028571D02*
Y028729D01*
X027371Y028650D02*
X027529D01*
X027450Y028571D02*
Y028729D01*
X021971Y029550D02*
X022129D01*
X022050Y029471D02*
Y029629D01*
X021421Y029550D02*
X021579D01*
X021500Y029471D02*
Y029629D01*
X020971Y028750D02*
X021129D01*
X021050Y028671D02*
Y028829D01*
X024871Y031650D02*
X025029D01*
X024950Y031571D02*
Y031729D01*
X023582Y032761D02*
X023740D01*
X023661Y032682D02*
Y032840D01*
X023321Y028700D02*
X023479D01*
X023400Y028621D02*
Y028779D01*
X016121Y026200D02*
X016279D01*
X016200Y026121D02*
Y026279D01*
X016121Y026750D02*
X016279D01*
X016200Y026671D02*
Y026829D01*
X016621Y026750D02*
X016779D01*
X016700Y026671D02*
Y026829D01*
X028258Y034450D02*
X028415D01*
X028337Y034371D02*
Y034529D01*
X030621Y034450D02*
X030779D01*
X030700Y034371D02*
Y034529D01*
X026971Y035450D02*
X027129D01*
X027050Y035371D02*
Y035529D01*
X030621Y033100D02*
X030779D01*
X030700Y033021D02*
Y033179D01*
X027721Y028300D02*
X027879D01*
X027800Y028221D02*
Y028379D01*
X028071Y028000D02*
X028229D01*
X028150Y027921D02*
Y028079D01*
X024121Y028700D02*
X024279D01*
X024200Y028621D02*
Y028779D01*
X023721Y028500D02*
X023879D01*
X023800Y028421D02*
Y028579D01*
X021821Y032750D02*
X021979D01*
X021900Y032671D02*
Y032829D01*
X027221Y025400D02*
X027379D01*
X027300Y025321D02*
Y025479D01*
X025671Y018300D02*
X025829D01*
X025750Y018221D02*
Y018379D01*
X031421Y033100D02*
X031579D01*
X031500Y033021D02*
Y033179D01*
X017721Y032450D02*
X017879D01*
X017800Y032371D02*
Y032529D01*
M02*