%FSDAX23Y23*%
%MOIN*%
%SFA1B1*%

%IPPOS*%
%ADD33C,0.068000*%
%ADD34R,0.067100X0.067100*%
%ADD35C,0.067100*%
%ADD36C,0.038400*%
%ADD37C,0.086700*%
%ADD38R,0.067100X0.067100*%
%ADD39R,0.051300X0.047400*%
%ADD40O,0.031600X0.088700*%
%ADD41R,0.031600X0.059200*%
%ADD42R,0.051300X0.069000*%
%ADD43R,0.051300X0.069000*%
%ADD44R,0.143800X0.069000*%
%ADD45R,0.067100X0.059200*%
%ADD46R,0.047400X0.051300*%
%ADD47R,0.059200X0.067100*%
%ADD48R,0.053300X0.047400*%
%LNde-080717-1*%
%LPD*%
G54D33*
X03830Y02835D03*
Y02635D03*
X04960Y02940D03*
Y02780D03*
X04470Y02705D03*
X04240Y02560D03*
X04470D03*
X04380D03*
G54D34*
X03510Y02515D03*
Y02675D03*
Y02835D03*
X04675Y02905D03*
G54D35*
X03410Y02515D03*
Y02675D03*
Y02835D03*
X05320Y02775D03*
Y02675D03*
Y02575D03*
Y02475D03*
X04575Y02905D03*
X04475D03*
X04375D03*
X04275D03*
X04175D03*
X04075D03*
X03975D03*
G54D36*
X04355Y02440D03*
X04295D03*
X04388Y02487D03*
X04325D03*
X04262D03*
G54D37*
X04468Y02253D03*
X04181D03*
X04468Y02440D03*
X04181D03*
G54D38*
X05320Y02375D03*
G54D39*
X05121Y02225D03*
X05188D03*
X03811Y02905D03*
X03878D03*
X03616Y02835D03*
X03683D03*
X03406Y02230D03*
X03473D03*
X04026Y02250D03*
X04093D03*
Y02315D03*
X04026D03*
X04323Y02375D03*
X04256D03*
X04443Y02790D03*
X04376D03*
X05343Y02290D03*
X05276D03*
X05333Y02225D03*
X05266D03*
G54D40*
X04560Y02681D03*
X04610D03*
X04660D03*
X04710D03*
X04760D03*
X04810D03*
X04860D03*
X04910D03*
X04960D03*
X05010D03*
X05060D03*
X05110D03*
X05160D03*
X05210D03*
X04560Y02318D03*
X04610D03*
X04660D03*
X04710D03*
X04760D03*
X04810D03*
X04860D03*
X04910D03*
X04960D03*
X05010D03*
X05060D03*
X05110D03*
X05160D03*
X05210D03*
G54D41*
X03407Y02381D03*
X03482D03*
X03445Y02298D03*
G54D42*
X03739Y02557D03*
G54D43*
X03830Y02557D03*
X03920D03*
G54D44*
X03830Y02292D03*
G54D45*
X04025Y02387D03*
Y02462D03*
X03645Y02327D03*
Y02402D03*
G54D46*
X03600Y02676D03*
Y02743D03*
X03575Y02331D03*
Y02398D03*
X04100Y02386D03*
Y02453D03*
G54D47*
X04372Y02255D03*
X04297D03*
G54D48*
X04121Y02555D03*
X04028D03*
M02*