%FSDAX23Y23*%
%MOIN*%
%SFA1B1*%

%IPPOS*%
%ADD54C,0.002000*%
%LNde-080717-1*%
%LPD*%
G54D54*
X03815Y02835D02*
X03845D01*
X03830Y02820D02*
Y02850D01*
X03815Y02635D02*
X03845D01*
X03830Y02620D02*
Y02650D01*
X04945Y02940D02*
X04975D01*
X04960Y02925D02*
Y02955D01*
X04945Y02780D02*
X04975D01*
X04960Y02765D02*
Y02795D01*
X04455Y02705D02*
X04485D01*
X04470Y02690D02*
Y02720D01*
X04225Y02560D02*
X04255D01*
X04240Y02545D02*
Y02575D01*
X04455Y02560D02*
X04485D01*
X04470Y02545D02*
Y02575D01*
X04365Y02560D02*
X04395D01*
X04380Y02545D02*
Y02575D01*
X03492Y02515D02*
X03527D01*
X03510Y02497D02*
Y02532D01*
X03392Y02515D02*
X03427D01*
X03410Y02497D02*
Y02532D01*
X03492Y02675D02*
X03527D01*
X03510Y02657D02*
Y02692D01*
X03392Y02675D02*
X03427D01*
X03410Y02657D02*
Y02692D01*
X03492Y02835D02*
X03527D01*
X03510Y02817D02*
Y02852D01*
X03392Y02835D02*
X03427D01*
X03410Y02817D02*
Y02852D01*
X04345Y02440D02*
X04364D01*
X04355Y02430D02*
Y02449D01*
X04285Y02440D02*
X04304D01*
X04295Y02430D02*
Y02449D01*
X04378Y02487D02*
X04397D01*
X04388Y02477D02*
Y02497D01*
X04315Y02487D02*
X04334D01*
X04325Y02477D02*
Y02497D01*
X04443Y02253D02*
X04494D01*
X04468Y02227D02*
Y02278D01*
X04155Y02253D02*
X04206D01*
X04181Y02227D02*
Y02278D01*
X04443Y02440D02*
X04494D01*
X04468Y02414D02*
Y02465D01*
X04155Y02440D02*
X04206D01*
X04181Y02414D02*
Y02465D01*
X04252Y02487D02*
X04271D01*
X04262Y02477D02*
Y02497D01*
X05302Y02775D02*
X05337D01*
X05320Y02757D02*
Y02792D01*
X05302Y02675D02*
X05337D01*
X05320Y02657D02*
Y02692D01*
X05302Y02575D02*
X05337D01*
X05320Y02557D02*
Y02592D01*
X05302Y02475D02*
X05337D01*
X05320Y02457D02*
Y02492D01*
X05302Y02375D02*
X05337D01*
X05320Y02357D02*
Y02392D01*
X04657Y02905D02*
X04692D01*
X04675Y02887D02*
Y02922D01*
X04557Y02905D02*
X04592D01*
X04575Y02887D02*
Y02922D01*
X04457Y02905D02*
X04492D01*
X04475Y02887D02*
Y02922D01*
X04357Y02905D02*
X04392D01*
X04375Y02887D02*
Y02922D01*
X04257Y02905D02*
X04292D01*
X04275Y02887D02*
Y02922D01*
X04157Y02905D02*
X04192D01*
X04175Y02887D02*
Y02922D01*
X04057Y02905D02*
X04092D01*
X04075Y02887D02*
Y02922D01*
X03957Y02905D02*
X03992D01*
X03975Y02887D02*
Y02922D01*
M02*