%FSDAX23Y23*%
%MOIN*%
%SFA1B1*%

%IPPOS*%
%ADD30C,0.007900*%
%ADD31C,0.010000*%
%ADD32C,0.005000*%
%LNde-080717-1*%
%LPD*%
G54D30*
X03360Y02465D02*
Y02565D01*
X03560*
Y02465D02*
Y02565D01*
X03360Y02465D02*
X03560D01*
X03360Y02625D02*
Y02725D01*
X03560*
Y02625D02*
Y02725D01*
X03360Y02625D02*
X03560D01*
X03360Y02785D02*
Y02885D01*
X03560*
Y02785D02*
Y02885D01*
X03360Y02785D02*
X03560D01*
X05270Y02325D02*
X05370D01*
X05270D02*
Y02825D01*
X05370Y02325D02*
Y02825D01*
X05270D02*
X05370D01*
X03925Y02855D02*
Y02955D01*
X04725*
Y02855D02*
Y02955D01*
X03925Y02855D02*
X04725D01*
G54D31*
X03345Y03025D02*
X05430D01*
X03345Y02140D02*
X05430D01*
X03345D02*
Y03025D01*
X05430Y02140D02*
Y03025D01*
X04330Y02102D02*
Y02130D01*
X04325Y02135D02*
X04330Y02130D01*
X04315Y02135D02*
X04325D01*
X04310Y02130D02*
X04315Y02135D01*
X04305Y02130D02*
X04310D01*
X04300Y02135D02*
X04305Y02130D01*
X04300Y02135D02*
Y02160D01*
X04305Y02165*
X04310*
X04315Y02160*
X04330*
X04335Y02165*
Y02185*
X04385Y02165D02*
X04470D01*
X04365Y02185D02*
X04385Y02165D01*
X04290Y02185D02*
X04365D01*
X04270Y02165D02*
X04290Y02185D01*
X04180Y02165D02*
X04270D01*
X04180Y02102D02*
X04470D01*
X04180D02*
Y02490D01*
X04470Y02102D02*
Y02490D01*
X04425D02*
X04470D01*
X04180D02*
X04225D01*
Y02365D02*
Y02505D01*
Y02365D02*
X04425D01*
Y02390*
Y02505*
X04225D02*
X04425D01*
G54D32*
X03575Y02695D02*
Y02725D01*
X03590*
X03595Y02720*
Y02710*
X03590Y02705*
X03575*
X03625Y02725D02*
X03615Y02720D01*
X03605Y02710*
Y02700*
X03610Y02695*
X03620*
X03625Y02700*
Y02705*
X03620Y02710*
X03605*
X03575Y02855D02*
Y02885D01*
X03590*
X03595Y02880*
Y02870*
X03590Y02865*
X03575*
X03625Y02885D02*
X03605D01*
Y02870*
X03615Y02875*
X03620*
X03625Y02870*
Y02860*
X03620Y02855*
X03610*
X03605Y02860*
X05200Y02350D02*
Y02380D01*
X05215*
X05220Y02375*
Y02365*
X05215Y02360*
X05200*
X05245Y02350D02*
Y02380D01*
X05230Y02365*
X05250*
X04650Y02980D02*
Y03010D01*
X04665*
X04670Y03005*
Y02995*
X04665Y02990*
X04650*
X04680Y03005D02*
X04685Y03010D01*
X04695*
X04700Y03005*
Y03000*
X04695Y02995*
X04690*
X04695*
X04700Y02990*
Y02985*
X04695Y02980*
X04685*
X04680Y02985*
X04090Y02175D02*
Y02205D01*
X04105*
X04110Y02200*
Y02190*
X04105Y02185*
X04090*
X04140Y02175D02*
X04120D01*
X04140Y02195*
Y02200*
X04135Y02205*
X04125*
X04120Y02200*
X03575Y02535D02*
Y02565D01*
X03590*
X03595Y02560*
Y02550*
X03590Y02545*
X03575*
X03605Y02535D02*
X03615D01*
X03610*
Y02565*
X03605Y02560*
M02*