%FSDAX23Y23*%
%MOIN*%
%SFA1B1*%

%IPPOS*%
%ADD10C,0.060000*%
%ADD11R,0.059100X0.059100*%
%ADD12C,0.059100*%
%ADD13C,0.030400*%
%ADD14C,0.078700*%
%ADD15R,0.059100X0.059100*%
%ADD16R,0.043300X0.039400*%
%ADD17O,0.023600X0.080700*%
%ADD18R,0.023600X0.051200*%
%ADD19R,0.043300X0.061000*%
%ADD20R,0.043300X0.061000*%
%ADD21R,0.135800X0.061000*%
%ADD22R,0.059100X0.051200*%
%ADD23R,0.039400X0.043300*%
%ADD24R,0.051200X0.059100*%
%ADD25R,0.045300X0.039400*%
%ADD26C,0.020000*%
%ADD27C,0.030000*%
%ADD28C,0.012000*%
%ADD29R,0.260000X0.235000*%
%LNde-080717-1*%
%LPD*%
G36*
X03784Y02654D02*
X03781Y02648D01*
X03779Y02635*
X03781Y02621*
X03786Y02609*
X03788Y02607*
Y02521*
X03781Y02517*
X03771Y02521*
Y02552*
X03707*
Y02520*
X03700Y02515*
X03698Y02515*
X03692Y02513*
X03685Y02509*
X03681Y02502*
X03679Y02495*
Y02438*
X03650*
Y02402*
X03640*
Y02438*
X03605*
X03604Y02430*
X03580*
Y02398*
X03575*
Y02393*
X03545*
Y02373*
X03535*
Y02289*
X03595*
Y02282*
X03640*
X03657Y02265*
X03664Y02259*
X03673Y02255*
X03680Y02255*
X03681Y02252*
X03685Y02245*
X03692Y02241*
X03700Y02239*
X03960*
X03967Y02241*
X03974Y02245*
X03978Y02252*
X03980Y02260*
Y02344*
X03981Y02345*
X03985Y02345*
X03994Y02336*
Y02320*
X04026*
Y02310*
X03994*
Y02285*
Y02279*
Y02255*
X04026*
Y02245*
X03994*
Y02223*
X03522*
X03515Y02231*
Y02269*
X03476*
Y02344*
X03486Y02345*
X03504*
Y02376*
X03482*
Y02381*
X03477*
Y02416*
X03475*
Y02420*
X03474Y02427*
X03471Y02435*
X03466Y02441*
X03456Y02451*
X03450Y02456*
X03442Y02459*
X03440Y02459*
Y02475*
X03445Y02479*
X03450Y02486*
X03460Y02483*
Y02465*
X03559*
Y02480*
X03564Y02480*
X03572Y02484*
X03580Y02490*
X03585Y02497*
X03589Y02505*
X03590Y02515*
Y02575*
X03599Y02584*
X03645*
X03654Y02585*
X03662Y02589*
X03670Y02595*
X03685Y02610*
X03690Y02617*
X03694Y02625*
X03695Y02635*
Y02664*
X03777*
X03784Y02654*
G37*
G36*
X05425Y02643D02*
X05415Y02639D01*
X05415*
X05405Y02650*
X05397Y02655*
X05389Y02659*
X05380Y02660*
X05377*
X05369Y02670*
X05370Y02675*
X05368Y02687*
X05363Y02700*
X05355Y02710*
X05345Y02718*
X05341Y02719*
Y02730*
X05345Y02731*
X05355Y02739*
X05363Y02750*
X05368Y02762*
X05370Y02775*
X05368Y02787*
X05363Y02800*
X05355Y02810*
X05345Y02818*
X05332Y02823*
X05320Y02825*
X05307Y02823*
X05295Y02818*
X05284Y02810*
X05280Y02805*
X05185*
X05177Y02804*
X05169Y02801*
X05163Y02796*
X05138Y02771*
X05133Y02765*
X05130Y02757*
X05129Y02750*
Y02734*
X05119Y02729*
X05118Y02730*
X05115Y02730*
Y02681*
X05105*
Y02730*
X05101Y02730*
X05100Y02729*
X05090Y02734*
Y02810*
X05089Y02817*
X05086Y02825*
X05081Y02831*
X05006Y02906*
X05000Y02910*
X05003Y02914*
X05008Y02926*
X05010Y02940*
X05008Y02953*
X05003Y02965*
X04995Y02975*
X04985Y02983*
X04973Y02988*
X04960Y02990*
X04946Y02988*
X04934Y02983*
X04924Y02975*
X04920Y02970*
X04752*
X04716Y03005*
X04710Y03010*
X04703Y03013*
X04695Y03014*
X04104*
X04096Y03013*
X04089Y03010*
X04083Y03005*
X04053Y02976*
X04048Y02970*
X04045Y02962*
X04044Y02955*
Y02944*
X04039Y02940*
X04031Y02930*
X04030Y02926*
X04019*
X04018Y02930*
X04010Y02940*
X04000Y02948*
X03987Y02953*
X03975Y02955*
X03962Y02953*
X03950Y02948*
X03939Y02940*
X03920*
Y02944*
X03836*
Y02934*
X03816*
Y02905*
X03811*
Y02900*
X03779*
Y02875*
X03785*
X03790Y02865*
X03786Y02860*
X03781Y02848*
X03779Y02835*
X03781Y02821*
X03784Y02815*
X03777Y02805*
X03725*
Y02874*
X03574*
Y02870*
X03559*
Y02884*
X03460*
Y02785*
X03550*
X03559Y02785*
X03560Y02775*
Y02734*
X03559Y02724*
X03460*
Y02625*
X03527*
X03531Y02616*
X03530Y02615*
X03524Y02607*
X03520Y02599*
X03519Y02590*
Y02564*
X03460*
Y02547*
X03450Y02543*
X03445Y02550*
X03435Y02558*
X03422Y02563*
X03410Y02565*
X03397Y02563*
X03385Y02558*
X03374Y02550*
X03366Y02540*
X03361Y02527*
X03360Y02515*
X03361Y02502*
X03366Y02490*
X03374Y02479*
X03379Y02475*
Y02430*
X03377Y02426*
X03375*
Y02335*
X03377*
Y02269*
X03364*
Y02190*
X03470*
X03488Y02172*
X03494Y02167*
X03502Y02164*
X03509Y02163*
X04633*
X04641Y02164*
X04648Y02167*
X04655Y02172*
X04681Y02198*
X04686Y02204*
X04689Y02212*
X04690Y02220*
Y02265*
X04700Y02270*
X04701Y02269*
X04705Y02269*
Y02318*
Y02368*
X04701Y02368*
X04697Y02365*
X04691Y02364*
X04684Y02367*
X04682Y02370*
X04676Y02375*
X04668Y02378*
X04660Y02379*
X04651Y02378*
X04644Y02375*
X04637Y02370*
X04635Y02367*
X04628Y02364*
X04622Y02365*
X04618Y02368*
X04615Y02368*
Y02318*
Y02269*
X04618Y02269*
X04619Y02270*
X04629Y02265*
Y02232*
X04621Y02223*
X04530*
X04524Y02233*
X04527Y02241*
X04528Y02253*
X04527Y02264*
X04536Y02268*
X04537Y02267*
X04544Y02262*
X04551Y02259*
X04560Y02258*
X04568Y02259*
X04576Y02262*
X04582Y02267*
X04584Y02270*
X04591Y02273*
X04597Y02272*
X04601Y02269*
X04605Y02269*
Y02318*
Y02368*
X04601Y02368*
X04597Y02365*
X04591Y02364*
X04584Y02367*
X04582Y02370*
X04576Y02375*
X04568Y02378*
X04560Y02379*
X04551Y02378*
X04544Y02375*
X04537Y02370*
X04532Y02363*
X04529Y02355*
X04528Y02349*
X04436*
X04428Y02348*
X04421Y02345*
X04414Y02340*
X04379Y02304*
X04326*
Y02294*
X04302*
Y02255*
X04297*
Y02250*
X04262*
Y02223*
X04243*
X04237Y02233*
X04239Y02241*
X04241Y02253*
X04239Y02264*
X04236Y02275*
X04230Y02286*
X04223Y02295*
X04214Y02302*
X04204Y02308*
X04192Y02311*
X04181Y02312*
X04169Y02311*
X04158Y02308*
X04148Y02302*
X04145Y02300*
X04135Y02304*
Y02354*
X04129Y02354*
Y02381*
X04100*
Y02391*
X04129*
Y02393*
X04137Y02397*
X04139Y02397*
X04148Y02390*
X04158Y02384*
X04169Y02381*
X04181Y02380*
X04192Y02381*
X04204Y02384*
X04204Y02385*
X04214Y02379*
Y02335*
X04298*
Y02345*
X04318*
Y02375*
X04323*
Y02380*
X04355*
Y02404*
X04364Y02405*
X04372Y02409*
X04380Y02414*
X04385Y02422*
X04389Y02430*
X04390Y02440*
X04389Y02449*
X04388Y02452*
X04393Y02462*
X04394Y02462*
X04397Y02463*
X04405Y02468*
X04405Y02468*
X04406Y02467*
X04412Y02459*
X04410Y02451*
X04409Y02440*
X04410Y02428*
X04413Y02417*
X04419Y02406*
X04426Y02397*
X04435Y02390*
X04445Y02384*
X04457Y02381*
X04468Y02380*
X04480Y02381*
X04491Y02384*
X04501Y02390*
X04510Y02397*
X04518Y02406*
X04523Y02417*
X04526Y02426*
X04536Y02431*
X04568Y02398*
X04574Y02393*
X04582Y02390*
X04590Y02389*
X04767*
X04775Y02381*
X04775Y02375*
X04773Y02373*
X04765Y02368*
X04765*
Y02318*
Y02269*
X04768Y02269*
X04772Y02272*
X04778Y02273*
X04785Y02270*
X04787Y02267*
X04794Y02262*
X04801Y02259*
X04810Y02258*
X04818Y02259*
X04826Y02262*
X04832Y02267*
X04834Y02270*
X04841Y02273*
X04847Y02272*
X04851Y02269*
X04855Y02269*
Y02318*
X04865*
Y02269*
X04868Y02269*
X04875Y02274*
X04879Y02280*
X04885Y02281*
X04890Y02280*
X04894Y02274*
X04901Y02269*
X04905Y02269*
Y02318*
X04915*
Y02269*
X04918Y02269*
X04922Y02272*
X04928Y02273*
X04935Y02270*
X04937Y02267*
X04944Y02262*
X04951Y02259*
X04960Y02258*
X04968Y02259*
X04976Y02262*
X04982Y02267*
X04984Y02270*
X04991Y02273*
X04997Y02272*
X05001Y02269*
X05005Y02269*
Y02318*
Y02368*
X05001Y02368*
X05000Y02367*
X04989Y02371*
X04989Y02372*
X04986Y02380*
X04981Y02386*
X04951Y02416*
X04945Y02421*
X04937Y02424*
X04930Y02425*
X04860*
X04813Y02471*
X04807Y02476*
X04800Y02479*
X04792Y02480*
X04622*
X04528Y02574*
X04532Y02584*
X04585*
X04592Y02585*
X04600Y02588*
X04606Y02593*
X04631Y02618*
X04636Y02624*
X04638Y02629*
X04646Y02633*
X04649Y02633*
X04651Y02632*
X04655Y02631*
Y02681*
X04665*
Y02631*
X04668Y02632*
X04675Y02636*
X04679Y02642*
X04685Y02643*
X04690Y02642*
X04694Y02636*
X04701Y02632*
X04705Y02631*
Y02681*
X04715*
Y02631*
X04718Y02632*
X04725Y02636*
X04729Y02642*
X04735Y02643*
X04740Y02642*
X04744Y02636*
X04751Y02632*
X04755Y02631*
Y02681*
X04765*
Y02631*
X04766Y02631*
X04772Y02627*
X04775Y02624*
X04774Y02620*
Y02590*
X04775Y02580*
X04779Y02572*
X04785Y02565*
X04792Y02559*
X04800Y02555*
X04810Y02554*
X05225*
X05234Y02555*
X05242Y02559*
X05250Y02565*
X05269Y02584*
X05279Y02581*
X05280Y02580*
X05320*
Y02575*
X05325*
Y02535*
X05330Y02536*
X05339Y02540*
X05344Y02544*
X05354Y02539*
Y02522*
X05345Y02517*
X05345Y02518*
X05332Y02523*
X05320Y02525*
X05307Y02523*
X05295Y02518*
X05284Y02510*
X05276Y02500*
X05271Y02487*
X05270Y02475*
X05271Y02462*
X05276Y02450*
X05284Y02439*
X05291Y02434*
X05288Y02424*
X05270*
Y02329*
X05242*
Y02347*
X05241Y02355*
X05237Y02363*
X05232Y02370*
X05226Y02375*
X05218Y02378*
X05210Y02379*
X05201Y02378*
X05194Y02375*
X05187Y02370*
X05185Y02367*
X05178Y02364*
X05172Y02365*
X05168Y02368*
X05165Y02368*
Y02318*
X05155*
Y02368*
X05151Y02368*
X05144Y02363*
X05140Y02357*
X05135Y02356*
X05129Y02357*
X05125Y02363*
X05118Y02368*
X05115Y02368*
Y02318*
Y02269*
X05118Y02269*
X05125Y02274*
X05129Y02280*
X05135Y02281*
X05140Y02280*
X05144Y02274*
X05145Y02274*
X05146Y02264*
Y02254*
X05126*
Y02225*
Y02195*
X05146*
Y02185*
X05375*
Y02189*
X05384Y02190*
X05392Y02194*
X05400Y02200*
X05415Y02215*
X05415*
X05425Y02211*
Y02140*
X03380*
X03345Y02175*
Y03025*
X05425*
Y02643*
G37*
G36*
X04244Y02944D02*
X04239Y02940D01*
X04231Y02930*
X04226Y02917*
X04225Y02905*
X04226Y02892*
X04231Y02880*
X04239Y02869*
X04250Y02861*
X04262Y02856*
X04275Y02855*
X04287Y02856*
X04300Y02861*
X04310Y02869*
X04318Y02880*
X04319Y02883*
X04330*
X04331Y02880*
X04339Y02869*
X04344Y02865*
Y02860*
X04345Y02852*
X04348Y02844*
X04353Y02838*
X04362Y02829*
X04358Y02819*
X04344*
Y02795*
X04376*
Y02785*
X04344*
Y02775*
X04034*
X04010Y02799*
Y02869*
X04018Y02880*
X04019Y02883*
X04030*
X04031Y02880*
X04039Y02869*
X04050Y02861*
X04062Y02856*
X04075Y02855*
X04087Y02856*
X04100Y02861*
X04110Y02869*
X04118Y02880*
X04123Y02892*
X04125Y02905*
X04123Y02917*
X04118Y02930*
X04110Y02940*
X04109Y02947*
X04117Y02954*
X04161*
X04170Y02951*
X04170Y02944*
X04169Y02944*
X04164Y02943*
X04155Y02939*
X04146Y02933*
X04140Y02924*
X04136Y02915*
X04135Y02910*
X04175*
X04214*
X04213Y02915*
X04209Y02924*
X04203Y02933*
X04194Y02939*
X04185Y02943*
X04180Y02944*
X04179Y02944*
X04180Y02951*
X04188Y02954*
X04241*
X04244Y02944*
G37*
%LNde-080717-2*%
%LPC*%
G36*
X03570Y02430D02*
X03545D01*
Y02403*
X03570*
Y02430*
G37*
G36*
X03504Y02416D02*
X03487D01*
Y02386*
X03504*
Y02416*
G37*
G36*
X03734Y02598D02*
X03707D01*
Y02562*
X03734*
Y02598*
G37*
G36*
X03771D02*
X03744D01*
Y02562*
X03771*
Y02598*
G37*
G36*
X05315Y02570D02*
X05280D01*
X05281Y02564*
X05285Y02555*
X05291Y02546*
X05300Y02540*
X05309Y02536*
X05315Y02535*
Y02570*
G37*
G36*
X05055Y02368D02*
X05051Y02368D01*
X05044Y02363*
X05040Y02357*
X05035Y02356*
X05029Y02357*
X05025Y02363*
X05018Y02368*
X05015Y02368*
Y02318*
Y02269*
X05018Y02269*
X05025Y02274*
X05029Y02280*
X05035Y02281*
X05040Y02280*
X05044Y02274*
X05051Y02269*
X05055Y02269*
Y02318*
Y02368*
G37*
G36*
X04292Y02294D02*
X04262D01*
Y02260*
X04292*
Y02294*
G37*
G36*
X05116Y02254D02*
X05089D01*
Y02230*
X05116*
Y02254*
G37*
G36*
Y02220D02*
X05089D01*
Y02195*
X05116*
Y02220*
G37*
G36*
X04755Y02368D02*
X04751Y02368D01*
X04744Y02363*
X04740Y02357*
X04735Y02356*
X04729Y02357*
X04725Y02363*
X04718Y02368*
X04715Y02368*
Y02318*
Y02269*
X04718Y02269*
X04725Y02274*
X04729Y02280*
X04735Y02281*
X04740Y02280*
X04744Y02274*
X04751Y02269*
X04755Y02269*
Y02318*
Y02368*
G37*
G36*
X05105D02*
X05101Y02368D01*
X05094Y02363*
X05090Y02357*
X05085Y02356*
X05079Y02357*
X05075Y02363*
X05068Y02368*
X05065Y02368*
Y02318*
Y02269*
X05068Y02269*
X05075Y02274*
X05079Y02280*
X05085Y02281*
X05090Y02280*
X05094Y02274*
X05101Y02269*
X05105Y02269*
Y02318*
Y02368*
G37*
G36*
X04355Y02370D02*
X04328D01*
Y02345*
X04355*
Y02370*
G37*
G36*
X03415Y02874D02*
Y02840D01*
X03449*
X03448Y02845*
X03444Y02854*
X03438Y02863*
X03429Y02869*
X03420Y02873*
X03415Y02874*
G37*
G36*
X03405D02*
X03399Y02873D01*
X03390Y02869*
X03381Y02863*
X03375Y02854*
X03371Y02845*
X03370Y02840*
X03405*
Y02874*
G37*
G36*
X03449Y02830D02*
X03415D01*
Y02795*
X03420Y02796*
X03429Y02800*
X03438Y02806*
X03444Y02815*
X03448Y02824*
X03449Y02830*
G37*
G36*
X03806Y02934D02*
X03779D01*
Y02910*
X03806*
Y02934*
G37*
G36*
X03449Y02670D02*
X03415D01*
Y02635*
X03420Y02636*
X03429Y02640*
X03438Y02646*
X03444Y02655*
X03448Y02664*
X03449Y02670*
G37*
G36*
X03405D02*
X03370D01*
X03371Y02664*
X03375Y02655*
X03381Y02646*
X03390Y02640*
X03399Y02636*
X03405Y02635*
Y02670*
G37*
G36*
Y02830D02*
X03370D01*
X03371Y02824*
X03375Y02815*
X03381Y02806*
X03390Y02800*
X03399Y02796*
X03405Y02795*
Y02830*
G37*
G36*
X03415Y02714D02*
Y02680D01*
X03449*
X03448Y02685*
X03444Y02694*
X03438Y02703*
X03429Y02709*
X03420Y02713*
X03415Y02714*
G37*
G36*
X03405D02*
X03399Y02713D01*
X03390Y02709*
X03381Y02703*
X03375Y02694*
X03371Y02685*
X03370Y02680*
X03405*
Y02714*
G37*
G36*
X04214Y02900D02*
X04180D01*
Y02865*
X04185Y02866*
X04194Y02870*
X04203Y02876*
X04209Y02885*
X04213Y02894*
X04214Y02900*
G37*
G36*
X04170D02*
X04135D01*
X04136Y02894*
X04140Y02885*
X04146Y02876*
X04155Y02870*
X04164Y02866*
X04170Y02865*
Y02900*
G37*
%LNde-080717-3*%
%LPD*%
G54D10*
X03830Y02835D03*
Y02635D03*
X04960Y02940D03*
Y02780D03*
X04470Y02705D03*
X04240Y02560D03*
X04470D03*
X04380D03*
G54D11*
X03510Y02515D03*
Y02675D03*
Y02835D03*
X04675Y02905D03*
G54D12*
X03410Y02515D03*
Y02675D03*
Y02835D03*
X05320Y02775D03*
Y02675D03*
Y02575D03*
Y02475D03*
X04575Y02905D03*
X04475D03*
X04375D03*
X04275D03*
X04175D03*
X04075D03*
X03975D03*
G54D13*
X04355Y02440D03*
X04295D03*
X04388Y02487D03*
X04325D03*
X04262D03*
G54D14*
X04468Y02253D03*
X04181D03*
X04468Y02440D03*
X04181D03*
G54D15*
X05320Y02375D03*
G54D16*
X05121Y02225D03*
X05188D03*
X03811Y02905D03*
X03878D03*
X03616Y02835D03*
X03683D03*
X03406Y02230D03*
X03473D03*
X04026Y02250D03*
X04093D03*
Y02315D03*
X04026D03*
X04323Y02375D03*
X04256D03*
X04443Y02790D03*
X04376D03*
X05343Y02290D03*
X05276D03*
X05333Y02225D03*
X05266D03*
G54D17*
X04560Y02681D03*
X04610D03*
X04660D03*
X04710D03*
X04760D03*
X04810D03*
X04860D03*
X04910D03*
X04960D03*
X05010D03*
X05060D03*
X05110D03*
X05160D03*
X05210D03*
X04560Y02318D03*
X04610D03*
X04660D03*
X04710D03*
X04760D03*
X04810D03*
X04860D03*
X04910D03*
X04960D03*
X05010D03*
X05060D03*
X05110D03*
X05160D03*
X05210D03*
G54D18*
X03407Y02381D03*
X03482D03*
X03445Y02298D03*
G54D19*
X03739Y02557D03*
G54D20*
X03830Y02557D03*
X03920D03*
G54D21*
X03830Y02292D03*
G54D22*
X04025Y02387D03*
Y02462D03*
X03645Y02327D03*
Y02402D03*
G54D23*
X03600Y02676D03*
Y02743D03*
X03575Y02331D03*
Y02398D03*
X04100Y02386D03*
Y02453D03*
G54D24*
X04372Y02255D03*
X04297D03*
G54D25*
X04121Y02555D03*
X04028D03*
G54D26*
X04740Y02940D02*
X04960D01*
X04695Y02984D02*
X04740Y02940D01*
X04104Y02984D02*
X04695D01*
X04675Y02905D02*
X04685Y02895D01*
X04690*
X04700Y02885*
X04985*
X04475Y02905D02*
Y02925D01*
X04504Y02954*
X04375Y02860D02*
Y02905D01*
Y02860D02*
X04390Y02845D01*
X04530*
X04585Y02790*
X05110Y02681D02*
Y02775D01*
X04504Y02954D02*
X04605D01*
X04625Y02934*
X05285Y02625D02*
X05355D01*
X04810Y02620D02*
Y02681D01*
X04885Y02225D02*
Y02315D01*
X04881Y02318D02*
X04885Y02315D01*
X04860Y02318D02*
X04881D01*
X04860D02*
X04910D01*
X04792Y02450D02*
X04847Y02395D01*
X04610Y02450D02*
X04792D01*
X04500Y02560D02*
X04610Y02450D01*
X04780Y02420D02*
X04810Y02390D01*
X04590Y02420D02*
X04780D01*
X04505Y02505D02*
X04590Y02420D01*
X04470Y02560D02*
X04500D01*
X04440Y02505D02*
X04505D01*
X04610Y02318D02*
Y02384D01*
X04436Y02318D02*
X04560D01*
X04372Y02255D02*
X04436Y02318D01*
X03410Y02430D02*
X03435D01*
X03445Y02420*
X04025Y02845D02*
X04030Y02840D01*
X04025Y02845D02*
Y02945D01*
X04010Y02959D02*
X04025Y02945D01*
X03460Y02460D02*
X03517Y02402D01*
X03520*
X03460Y02460D02*
Y02570D01*
X03410Y02620D02*
X03460Y02570D01*
X03700Y02775D02*
X03882D01*
X03683Y02791D02*
X03700Y02775D01*
X03683Y02791D02*
Y02835D01*
X03882Y02775D02*
X03988Y02668D01*
X03871Y02743D02*
X03990Y02625D01*
X03600Y02743D02*
X03871D01*
X04810Y02681D02*
Y02745D01*
X04800Y02755D02*
X04810Y02745D01*
X04075Y02905D02*
Y02955D01*
X04104Y02984*
X04960Y02681D02*
Y02780D01*
X04985Y02885D02*
X05060Y02810D01*
Y02681D02*
Y02810D01*
X05010Y02681D02*
Y02815D01*
X04975Y02850D02*
X05010Y02815D01*
X04630Y02850D02*
X04975D01*
X04910Y02681D02*
Y02750D01*
X04840Y02820D02*
X04910Y02750D01*
X04617Y02820D02*
X04840D01*
X04625Y02854D02*
X04630Y02850D01*
X04575Y02862D02*
X04617Y02820D01*
X04820Y02790D02*
X04860Y02750D01*
X04585Y02790D02*
X04820D01*
X04625Y02854D02*
Y02934D01*
X04575Y02862D02*
Y02905D01*
X04860Y02681D02*
Y02750D01*
X04960Y02318D02*
Y02365D01*
X04930Y02395D02*
X04960Y02365D01*
X04847Y02395D02*
X04930D01*
X04380Y02560D02*
X04385D01*
X04440Y02505*
X04810Y02318D02*
Y02390D01*
X04230Y02705D02*
X04470D01*
X04193Y02668D02*
X04230Y02705D01*
X03988Y02668D02*
X04193D01*
X04175Y02625D02*
X04240Y02560D01*
X03990Y02625D02*
X04175D01*
X04340Y02650D02*
X04528D01*
X04295Y02605D02*
X04340Y02650D01*
X04295Y02530D02*
Y02605D01*
X04528Y02650D02*
X04560Y02681D01*
X04610Y02640D02*
Y02681D01*
X04585Y02615D02*
X04610Y02640D01*
X04350Y02615D02*
X04585D01*
X04325Y02590D02*
X04350Y02615D01*
X04325Y02487D02*
Y02590D01*
X05185Y02775D02*
X05320D01*
X05160Y02750D02*
X05185Y02775D01*
X05160Y02681D02*
Y02750D01*
X05210Y02681D02*
X05313D01*
X05320Y02375D02*
X05348Y02346D01*
Y02290D02*
Y02346D01*
X05266Y02275D02*
X05281Y02290D01*
X05266Y02225D02*
Y02275D01*
X05188Y02225D02*
X05266D01*
X05238Y02290D02*
X05281D01*
X05210Y02318D02*
X05238Y02290D01*
X03473Y02230D02*
X03509Y02193D01*
X04633*
X04660Y02220*
Y02318*
X03445Y02308D02*
Y02420D01*
X03410Y02430D02*
Y02515D01*
X03401Y02230D02*
X03407Y02236D01*
Y02391*
G54D27*
X04710Y02681D02*
X04755D01*
X04670D02*
X04710D01*
Y02605D02*
Y02681D01*
Y02605D02*
X04775Y02540D01*
X05255*
X05290Y02575*
X05320*
X05390Y02240D02*
Y02434D01*
Y02614*
X05380Y02625D02*
X05390Y02614D01*
X05355Y02625D02*
X05380D01*
X05260D02*
X05285D01*
X05225Y02590D02*
X05260Y02625D01*
X04810Y02590D02*
X05225D01*
X04810D02*
Y02620D01*
X04885Y02225D02*
X05121D01*
X04610Y02384D02*
X04725D01*
X04529D02*
X04610D01*
X04190Y02325D02*
X04325D01*
X04297Y02255D02*
Y02322D01*
X04395Y02375D02*
X04520D01*
X04323D02*
X04395D01*
X04395Y02375*
Y02480*
X04388Y02487D02*
X04395Y02480D01*
X04745Y02225D02*
X04885D01*
X04735Y02235D02*
X04745Y02225D01*
X04735Y02235D02*
Y02375D01*
X04725Y02384D02*
X04735Y02375D01*
X04520D02*
X04529Y02384D01*
X05085Y02230D02*
Y02318D01*
Y02540*
Y02318D02*
X05110D01*
X05060D02*
X05085D01*
X05110D02*
X05150D01*
X05020D02*
X05060D01*
X04323Y02375D02*
X04325Y02373D01*
Y02325D02*
Y02373D01*
X04128Y02386D02*
X04190Y02325D01*
X04100Y02386D02*
X04128D01*
X04025Y02462D02*
X04091D01*
X04011Y02235D02*
X04026Y02250D01*
X03565Y02235D02*
X04011D01*
X03520Y02280D02*
X03565Y02235D01*
X04175Y02790D02*
Y02905D01*
X04055Y02790D02*
X04376D01*
X04030Y02815D02*
X04055Y02790D01*
X04030Y02815D02*
Y02840D01*
X03814Y02959D02*
X04010D01*
X03811Y02956D02*
X03814Y02959D01*
X03811Y02905D02*
Y02956D01*
X03520Y02402D02*
X03645D01*
X03493D02*
X03517D01*
X03410Y02620D02*
Y02675D01*
X03830Y02557D02*
Y02635D01*
X03975Y02785D02*
Y02905D01*
X03830Y02835D02*
X03970D01*
X03855Y02700D02*
X03920Y02634D01*
X03660Y02700D02*
X03855D01*
X03660Y02635D02*
Y02700D01*
X03555Y02515D02*
Y02590D01*
X03585Y02620*
X03645*
X03660Y02635*
X03510Y02515D02*
X03555D01*
X03920Y02557D02*
Y02634D01*
X03510Y02675D02*
X03598D01*
X03425Y02905D02*
X03811D01*
X03410Y02890D02*
X03425Y02905D01*
X03410Y02835D02*
Y02890D01*
X04026Y02250D02*
Y02386D01*
X03520Y02280D02*
Y02402D01*
X03830Y02292D02*
Y02557D01*
X03878Y02905D02*
X03975D01*
Y02785D02*
X04020Y02740D01*
X04420*
X04443Y02763*
Y02790*
X04565Y02755D02*
X04800D01*
X04530Y02790D02*
X04565Y02755D01*
X04443Y02790D02*
X04530D01*
X04227Y02487D02*
X04262D01*
X04160Y02555D02*
X04227Y02487D01*
X04121Y02555D02*
X04160D01*
X05320Y02475D02*
X05390D01*
X05375Y02225D02*
X05390Y02240D01*
X05333Y02225D02*
X05375D01*
X03645Y02402D02*
Y02515D01*
X03687Y02557*
X03739*
X03645Y02327D02*
X03682Y02290D01*
X03641Y02331D02*
X03645Y02327D01*
X03827Y02290D02*
X03830Y02292D01*
X03682Y02290D02*
X03827D01*
X03575Y02331D02*
X03641D01*
X04093Y02250D02*
X04178D01*
X04093D02*
Y02315D01*
X04026Y02386D02*
X04099D01*
X03920Y02557D02*
X03923Y02555D01*
X04028*
X04025Y02462D02*
X04028Y02466D01*
Y02555*
X03488Y02397D02*
X03493Y02402D01*
X03410Y02675D02*
Y02835D01*
X03510D02*
X03616D01*
X04254Y02375D02*
Y02480D01*
X04262Y02487*
G54D28*
X04293Y02440D02*
Y02528D01*
X04295Y02530*
G54D29*
X03830Y02377D03*
M02*