%FSDAX23Y23*%
%MOIN*%
%SFA1B1*%

%IPPOS*%
%ADD16R,0.043300X0.039400*%
%ADD17O,0.023600X0.080700*%
%ADD18R,0.023600X0.051200*%
%ADD19R,0.043300X0.061000*%
%ADD20R,0.043300X0.061000*%
%ADD21R,0.135800X0.061000*%
%ADD22R,0.059100X0.051200*%
%ADD23R,0.039400X0.043300*%
%ADD24R,0.051200X0.059100*%
%ADD25R,0.045300X0.039400*%
%LNde-080717-1*%
%LPD*%
G54D16*
X05121Y02225D03*
X05188D03*
X03811Y02905D03*
X03878D03*
X03616Y02835D03*
X03683D03*
X03406Y02230D03*
X03473D03*
X04026Y02250D03*
X04093D03*
Y02315D03*
X04026D03*
X04323Y02375D03*
X04256D03*
X04443Y02790D03*
X04376D03*
X05343Y02290D03*
X05276D03*
X05333Y02225D03*
X05266D03*
G54D17*
X04560Y02681D03*
X04610D03*
X04660D03*
X04710D03*
X04760D03*
X04810D03*
X04860D03*
X04910D03*
X04960D03*
X05010D03*
X05060D03*
X05110D03*
X05160D03*
X05210D03*
X04560Y02318D03*
X04610D03*
X04660D03*
X04710D03*
X04760D03*
X04810D03*
X04860D03*
X04910D03*
X04960D03*
X05010D03*
X05060D03*
X05110D03*
X05160D03*
X05210D03*
G54D18*
X03407Y02381D03*
X03482D03*
X03445Y02298D03*
G54D19*
X03739Y02557D03*
G54D20*
X03830Y02557D03*
X03920D03*
G54D21*
X03830Y02292D03*
G54D22*
X04025Y02387D03*
Y02462D03*
X03645Y02327D03*
Y02402D03*
G54D23*
X03600Y02676D03*
Y02743D03*
X03575Y02331D03*
Y02398D03*
X04100Y02386D03*
Y02453D03*
G54D24*
X04372Y02255D03*
X04297D03*
G54D25*
X04121Y02555D03*
X04028D03*
M02*