%FSDAX23Y23*%
%MOIN*%
%SFA1B1*%

%IPPOS*%
%ADD31C,0.010000*%
%ADD51C,0.006000*%
%LNde-080717-1*%
%LPD*%
G54D31*
X05445Y03025D02*
X05605D01*
X05445Y02140D02*
X05605D01*
X05595Y02722D02*
Y03025D01*
Y02140D02*
Y02410D01*
X05575Y02965D02*
X05595Y03025D01*
X05615Y02965*
X05595Y02140D02*
X05615Y02200D01*
X05575D02*
X05595Y02140D01*
X05430Y03040D02*
Y03180D01*
X03345Y03040D02*
Y03180D01*
X04527Y03170D02*
X05430D01*
X03345D02*
X04215D01*
X05370Y03190D02*
X05430Y03170D01*
X05370Y03150D02*
X05430Y03170D01*
X03345D02*
X03405Y03150D01*
X03345Y03170D02*
X03405Y03190D01*
G54D51*
X05641Y02466D02*
Y02426D01*
X05601Y02466*
X05591*
X05581Y02456*
Y02436*
X05591Y02426*
X05641Y02526D02*
Y02486D01*
X05601Y02526*
X05591*
X05581Y02516*
Y02496*
X05591Y02486*
X05651Y02556D02*
X05641Y02566D01*
X05631*
Y02556*
X05641*
Y02566*
X05651Y02556*
X05661Y02546*
X05641Y02636D02*
X05581D01*
X05611Y02606*
Y02646*
X05591Y02666D02*
X05581Y02676D01*
Y02696*
X05591Y02706*
X05601*
X05611Y02696*
X05621Y02706*
X05631*
X05641Y02696*
Y02676*
X05631Y02666*
X05621*
X05611Y02676*
X05601Y02666*
X05591*
X05611Y02676D02*
Y02696D01*
X04271Y03184D02*
X04231D01*
Y03154*
X04251Y03164*
X04261*
X04271Y03154*
Y03134*
X04261Y03124*
X04241*
X04231Y03134*
X04331Y03124D02*
X04291D01*
X04331Y03164*
Y03174*
X04321Y03184*
X04301*
X04291Y03174*
X04361Y03114D02*
X04371Y03124D01*
Y03134*
X04361*
Y03124*
X04371*
X04361Y03114*
X04351Y03104*
X04411Y03134D02*
X04421Y03124D01*
X04441*
X04451Y03134*
Y03174*
X04441Y03184*
X04421*
X04411Y03174*
Y03164*
X04421Y03154*
X04451*
X04511Y03184D02*
X04491Y03174D01*
X04471Y03154*
Y03134*
X04481Y03124*
X04501*
X04511Y03134*
Y03144*
X04501Y03154*
X04471*
M02*